<svg xmlns="http://www.w3.org/2000/svg" viewBox="0 0 5000 5000"><defs><style>.cls-1{isolation:isolate;}.cls-2{fill:#fff;}.cls-3{fill:#fff0f0;}.cls-4{fill:#ffe1e1;}.cls-5{fill:#fcc;}.cls-6{fill:#1988a4;}.cls-7{fill:#000628;}.cls-8{fill:#062051;}.cls-9{fill:#fcc1c0;}.cls-10{fill:#ffe7e5;}.cls-11{fill:#efefef;}.cls-12{fill:#fac2ae;}.cls-13{fill:#1d1d1d;}.cls-14{fill:#171717;}.cls-15{fill:#041b3f;}.cls-16{fill:#01132d;}.cls-17{fill:#ffb103;}.cls-18{fill:#fcbba7;}.cls-19{fill:#ffb19f;}.cls-20{fill:#895a2b;}.cls-21{fill:#a96f36;}.cls-22{fill:#b1a290;}.cls-23{fill:#d3d3d3;}.cls-24{fill:#58595b;}.cls-25{fill:#11393d;}.cls-26{fill:#51bacd;}.cls-27{fill:#808081;}.cls-28{fill:#091644;}.cls-29{fill:#f1a080;}.cls-30{fill:#080f28;}.cls-31{fill:#232f63;}.cls-32{fill:#0a1a49;}.cls-33,.cls-46,.cls-47{fill:#f85840;}.cls-34{fill:#d82723;}.cls-35{fill:#141a33;}.cls-35,.cls-36,.cls-37,.cls-38,.cls-40{fill-rule:evenodd;}.cls-36{fill:#030822;}.cls-37{fill:#2c3049;}.cls-38{fill:#3a3f57;}.cls-39{fill:#00000f;}.cls-40{fill:#242942;}.cls-41{fill:#082656;}.cls-42{fill:#ce303f;}.cls-43{fill:#c4422b;opacity:0.5;mix-blend-mode:multiply;}.cls-44{fill:#455993;}.cls-45{fill:#fec435;}.cls-46{opacity:0.45;}.cls-47{opacity:0.57;}</style></defs><title>08</title><g class="cls-1"><g id="Layer_2" data-name="Layer 2"><g id="Layer_1-2" data-name="Layer 1"><rect class="cls-2" width="5000" height="5000"/><path class="cls-3" d="M1474.84,2643.77H1473c-23,0-43.1-14.69-51-36.28q-4.55-12.33-10-24.18c-9.62-20.91-5.84-45.51,10.44-61.78l1.31-1.31a54.06,54.06,0,0,0,0-76.45l-35.55-35.55a54.06,54.06,0,0,0-76.45,0l-1.31,1.31c-16.28,16.28-40.88,20.06-61.78,10.44q-11.85-5.46-24.18-10c-21.59-7.94-36.28-28-36.28-51v-1.88a54.06,54.06,0,0,0-54.06-54.06h-50.27a54.06,54.06,0,0,0-54.06,54.06v1.88c0,23-14.69,43.1-36.28,51q-12.33,4.53-24.18,10c-20.91,9.62-45.51,5.84-61.78-10.44l-1.31-1.31a54.06,54.06,0,0,0-76.45,0l-35.55,35.55a54.06,54.06,0,0,0,0,76.45l1.31,1.31c16.27,16.27,20.06,40.87,10.44,61.78q-5.46,11.85-10,24.18c-7.94,21.59-28,36.28-51,36.28H743A54.06,54.06,0,0,0,689,2697.83v50.27A54.06,54.06,0,0,0,743,2802.16h1.88c23,0,43.1,14.69,51,36.28q4.53,12.33,10,24.18c9.62,20.91,5.83,45.51-10.44,61.78l-1.31,1.31a54.06,54.06,0,0,0,0,76.45l35.55,35.55a54.06,54.06,0,0,0,76.45,0l1.31-1.31c16.27-16.27,40.87-20.06,61.78-10.44q11.85,5.46,24.18,10c21.59,7.94,36.28,28,36.28,51v1.88a54.06,54.06,0,0,0,54.06,54.06h50.27a54.06,54.06,0,0,0,54.06-54.06V3087c0-23,14.69-43.1,36.27-51q12.33-4.53,24.19-10c20.9-9.62,45.5-5.83,61.78,10.44l1.31,1.31a54.06,54.06,0,0,0,76.45,0l35.55-35.55a54.06,54.06,0,0,0,0-76.45l-1.31-1.31c-16.28-16.27-20.06-40.87-10.44-61.78q5.46-11.85,10-24.18c7.94-21.59,28-36.28,51-36.28h1.88a54.06,54.06,0,0,0,54.06-54.06v-50.27A54.06,54.06,0,0,0,1474.84,2643.77Zm-365.92,297.58c-120.61,0-218.38-97.77-218.38-218.39s97.77-218.38,218.38-218.38,218.39,97.77,218.39,218.38S1229.54,2941.35,1108.92,2941.35Z"/><path class="cls-3" d="M1623.73,2052.28l-1.21.25a35.65,35.65,0,0,1-37.35-16.63q-4.49-7.31-9.52-14.19a35.71,35.71,0,0,1-1.3-40.88l.67-1a35.29,35.29,0,0,0-9.87-48.93l-27.34-18.16a35.29,35.29,0,0,0-48.92,9.88l-.67,1a35.69,35.69,0,0,1-38.19,14.66q-8.28-2-16.77-3.28a35.62,35.62,0,0,1-29.8-28l-.25-1.21a35.28,35.28,0,0,0-41.57-27.61l-32.17,6.49a35.29,35.29,0,0,0-27.62,41.57l.25,1.21a35.65,35.65,0,0,1-16.63,37.35q-7.31,4.49-14.19,9.52a35.69,35.69,0,0,1-40.88,1.3l-1-.67a35.29,35.29,0,0,0-48.93,9.87l-18.16,27.34a35.3,35.3,0,0,0,9.88,48.93l1,.66a35.7,35.7,0,0,1,14.66,38.19q-2,8.3-3.28,16.77a35.63,35.63,0,0,1-28,29.8l-1.21.25a35.28,35.28,0,0,0-27.61,41.57l6.49,32.18a35.29,35.29,0,0,0,41.58,27.61l1.2-.24a35.64,35.64,0,0,1,37.35,16.62q4.49,7.3,9.52,14.19a35.69,35.69,0,0,1,1.3,40.88l-.67,1a35.28,35.28,0,0,0,9.87,48.92l27.34,18.16a35.31,35.31,0,0,0,48.93-9.87l.66-1a35.7,35.7,0,0,1,38.19-14.66q8.3,2,16.77,3.28a35.63,35.63,0,0,1,29.8,28l.25,1.2a35.29,35.29,0,0,0,41.57,27.62l32.18-6.5a35.29,35.29,0,0,0,27.61-41.57l-.24-1.21a35.64,35.64,0,0,1,16.62-37.35q7.31-4.48,14.19-9.52a35.71,35.71,0,0,1,40.88-1.3l1,.67a35.28,35.28,0,0,0,48.92-9.87l18.16-27.34a35.3,35.3,0,0,0-9.87-48.92l-1-.67a35.69,35.69,0,0,1-14.66-38.19q2-8.28,3.28-16.77a35.63,35.63,0,0,1,28-29.8l1.2-.25a35.29,35.29,0,0,0,27.62-41.57l-6.5-32.17A35.29,35.29,0,0,0,1623.73,2052.28ZM1428,2290a142.57,142.57,0,1,1,111.55-168A142.57,142.57,0,0,1,1428,2290Z"/><path class="cls-4" d="M1062.13,1972.07l-1.16.41a35.64,35.64,0,0,1-39.33-11.15q-5.49-6.58-11.44-12.69a35.69,35.69,0,0,1-7.09-40.28l.52-1.09a35.3,35.3,0,0,0-16.72-47l-29.64-14.09a35.29,35.29,0,0,0-47,16.71l-.52,1.1A35.71,35.71,0,0,1,874,1883.89q-8.47-.77-17.06-.87a35.64,35.64,0,0,1-33.48-23.46l-.41-1.16A35.29,35.29,0,0,0,778,1837l-30.93,11A35.29,35.29,0,0,0,725.62,1893l.41,1.16a35.65,35.65,0,0,1-11.15,39.33q-6.6,5.49-12.69,11.44a35.7,35.7,0,0,1-40.28,7.09l-1.1-.52a35.29,35.29,0,0,0-47,16.72l-14.1,29.64a35.3,35.3,0,0,0,16.72,47l1.1.52a35.68,35.68,0,0,1,19.92,35.71q-.76,8.49-.86,17.07a35.63,35.63,0,0,1-23.46,33.47l-1.16.42a35.29,35.29,0,0,0-21.43,45.07l11,30.93a35.3,35.3,0,0,0,45.08,21.43l1.16-.41a35.65,35.65,0,0,1,39.33,11.15q5.49,6.59,11.44,12.69a35.69,35.69,0,0,1,7.09,40.28l-.52,1.09a35.29,35.29,0,0,0,16.72,47l29.64,14.09a35.29,35.29,0,0,0,47-16.72l.51-1.09a35.71,35.71,0,0,1,35.72-19.93q8.49.76,17.07.86a35.65,35.65,0,0,1,33.47,23.47l.41,1.16a35.3,35.3,0,0,0,45.08,21.43l30.92-11a35.3,35.3,0,0,0,21.44-45.07l-.42-1.16a35.65,35.65,0,0,1,11.16-39.33q6.58-5.49,12.69-11.44a35.69,35.69,0,0,1,40.28-7.09l1.09.52a35.3,35.3,0,0,0,47-16.72l14.09-29.64a35.29,35.29,0,0,0-16.72-47l-1.09-.52a35.68,35.68,0,0,1-19.93-35.71q.77-8.49.86-17.07a35.66,35.66,0,0,1,23.46-33.47l1.16-.42a35.29,35.29,0,0,0,21.44-45.07l-11-30.93A35.29,35.29,0,0,0,1062.13,1972.07Zm-160,263.08a142.58,142.58,0,1,1,86.58-182.1A142.58,142.58,0,0,1,902.12,2235.15Z"/><path class="cls-5" d="M1621,1650.34l-.66.34a21.46,21.46,0,0,1-24.38-3.4q-3.82-3.48-7.88-6.63a21.51,21.51,0,0,1-7.56-23.44l.22-.7a21.25,21.25,0,0,0-13.86-26.67l-18.84-5.95a21.24,21.24,0,0,0-26.67,13.86l-.22.69a21.5,21.5,0,0,1-19.66,14.84c-3.42.17-6.84.46-10.25.9a21.46,21.46,0,0,1-21.91-11.23l-.34-.66a21.25,21.25,0,0,0-28.66-9l-17.54,9.11a21.25,21.25,0,0,0-9.06,28.66l.34.66a21.46,21.46,0,0,1-3.4,24.38q-3.48,3.83-6.63,7.87a21.47,21.47,0,0,1-23.44,7.56l-.69-.22a21.27,21.27,0,0,0-26.68,13.87l-6,18.84a21.25,21.25,0,0,0,13.86,26.67l.69.22a21.49,21.49,0,0,1,14.84,19.66q.25,5.13.9,10.25a21.46,21.46,0,0,1-11.23,21.91l-.65.34a21.25,21.25,0,0,0-9.06,28.66l9.11,17.54a21.26,21.26,0,0,0,28.66,9.06l.66-.34a21.46,21.46,0,0,1,24.38,3.4q3.82,3.48,7.88,6.62a21.53,21.53,0,0,1,7.56,23.45l-.22.69a21.24,21.24,0,0,0,13.86,26.67l18.84,6a21.25,21.25,0,0,0,26.67-13.86l.22-.7a21.52,21.52,0,0,1,19.66-14.84q5.13-.24,10.25-.89a21.46,21.46,0,0,1,21.91,11.22l.34.66a21.26,21.26,0,0,0,28.66,9.06l17.54-9.11a21.27,21.27,0,0,0,9.06-28.67l-.34-.65a21.46,21.46,0,0,1,3.4-24.38q3.48-3.83,6.63-7.88a21.51,21.51,0,0,1,23.44-7.56l.69.22a21.26,21.26,0,0,0,26.68-13.86l5.95-18.84a21.26,21.26,0,0,0-13.86-26.68l-.69-.22a21.47,21.47,0,0,1-14.84-19.65q-.26-5.13-.9-10.26a21.45,21.45,0,0,1,11.23-21.9l.65-.35a21.24,21.24,0,0,0,9.06-28.66l-9.11-17.53A21.25,21.25,0,0,0,1621,1650.34Zm-73.71,170.16a85.86,85.86,0,1,1,36.6-115.79A85.87,85.87,0,0,1,1547.29,1820.5Z"/><polygon class="cls-5" points="1785.79 2043.54 1769.02 2029.1 2105.4 1638.37 2223.93 1902.99 2703.48 1389.62 2924.73 1603.64 3249.22 1312.36 3264 1328.83 2924.17 1633.89 2704.28 1421.19 2217.36 1942.45 2099.44 1679.21 1785.79 2043.54"/><path class="cls-5" d="M3356,1231.37c-31.19,59.34-62.64,141-70.46,204.7l-42-103.76-98.63-52.89C3209.06,1278.5,3293.68,1256,3356,1231.37Z"/><path class="cls-3" d="M500,3529.45s1222.75-81.86,1892.17-700.71C3160.88,2118.1,4347.55,1262,4453.09,2131.38s0,1424.91,0,1424.91Z"/><path class="cls-6" d="M3462.59,1855s-36.36,4-33.06,106.48S3483.09,1847.71,3462.59,1855Z"/><path class="cls-7" d="M3712.57,3600.58c0,14.32,21.07,100.24,21.07,100.24h102.9s8.67-28.64,6.19-39.78-35.61-43-37.64-49.32-27.22-89.1-27.22-89.1S3712.57,3586.26,3712.57,3600.58Z"/><path class="cls-7" d="M3196.56,3553.32s-15.8,50.25-23.24,62.35-50.21,42.81-52.07,46.53-7.44,38.15-7.44,38.15h142.26s6.51-52.11,6.51-63.28-4.65-41.87-4.65-41.87l-3.72-36.29Z"/><path class="cls-8" d="M3326.41,2690.92s-44.67,302.62-68.48,399.41-88.5,470.62-88.5,470.62,54.79,26.19,92.15,14c0,0,111.4-318.11,118-392.33s81.65-300.16,107.16-287.87c62.4,30,123.13,312,123.13,312s77.83,316.06,101.63,363c0,0,47.6,11.48,92.56-6.52,0,0-53.35-325.79-57.81-385.3-4.3-57.31-96.9-487.07-96.9-487.07Z"/><path class="cls-9" d="M3212,2417.08s-79.35,76.7-128.94,89.93,14.55-94.56,14.55-94.56l84-56.2Z"/><path class="cls-10" d="M3484.41,1856.36s-45.62,2-62.48,100.17c0,0,1.65,29.62-30.09,38.12,0,0-12.56,19.74,20.5,27.68,0,0,14.88-2.46,0,25.38s30.42,54.63,91.91,68.51c0,0,12.9,51.58-24.79,68.44s83.31,13.88,83.31,13.88-22.81-74.38,7.93-87.28,124-84.3,69.43-178.53S3484.41,1856.36,3484.41,1856.36Z"/><path class="cls-6" d="M3596.49,2026.88s-32.62,73.88-34.16,90.78l34.16-17.8Z"/><path class="cls-9" d="M3504.25,2116.22s18.84-5,15.87,12.9-22.3,55.93,29,61.43-63.73,28.82-63.73,27.33,1.51-37.44,1.51-37.44S3513.18,2160.36,3504.25,2116.22Z"/><path class="cls-2" d="M3482.43,2177.72s32.66,23.2,77.57,10.36c0,0,6.74-6.4,18.64,1.54s111.09,57.52,125,60.5,38.68,19.84,33.23,51.08-67.94,214.73-67.94,214.73h-32.73l20.75,44.64,12,171.36-376.9,2.21s6.94-211.73-1.82-333.75c0,0-69.6,40.16-91.42,61.49,0,0-64-43.92-70.2-102.55,0,0,142.61-128.06,178.81-152.36C3336.86,2187.18,3465.51,2190.82,3482.43,2177.72Z"/><path class="cls-10" d="M3591,2473.26c-51-49-127.1-125.37-129.41-145.78-3.47-30.74-24.79-43.14-32.73-45.62s-24.79-17.85-23.8-34.22c0,0,4.71-21.82-6.45-20.33,0,0-4-1.49-11.9,16.36-2.48,5.57-2,11.77-.08,17.66,2.45,7.65-3.85,15.13-11.86,14.47a65.74,65.74,0,0,0-20.3,1.6c-30.25,6.94-22.31,59,3.47,78.85s48.6-8.43,70.43,15.87c15.89,17.7,69.66,97.47,97.7,139.51,0,0,31.74,75.22,80.33,100.51s62.49-96.21,62.49-96.21Z"/><path class="cls-9" d="M3591,2473.26s21.35,33.75,22.84,47.63l32.9-17.09Z"/><path class="cls-11" d="M3609.88,2356.25s-7.93.49-14.88,13.88-25,82.52-25,82.52l21,20.61Z"/><path class="cls-12" d="M2777.23,3552.9s22.19,35-10.23,54.93,82.55,39.63,101.44,15.91c0,0-43.6-58.44-43.6-77.28S2777.23,3552.9,2777.23,3552.9Z"/><path class="cls-12" d="M3000.4,3548.5s22.18,35-10.24,54.93,82.56,39.63,101.44,15.91c0,0-43.6-58.44-43.6-77.28S3000.4,3548.5,3000.4,3548.5Z"/><path class="cls-13" d="M2867.7,3618.62c-4.1-3.45-7.79,0-11.4,1.19-21.19,7.22-42.56,9.37-64.39,4.22-9.46-2.23-17.7-6.31-23.08-15.94-3.71-6.64-8.52-5.8-13.29-1.66-10.56,9.15-20.05,19.77-30.28,29.24-11.27,10.44-24.34,18.85-39.17,22.4-1.08,4.21-4.2,2.6-6.54,2.72-9,.45-18-.89-26.85,1.38l.08-.12c.92,2.79-1.11,8.31,2.57,8.11,8.17-.42,13.91,12.46,23.06,4.91.18-.16,1.12.75,1.67,1.23,4.45,4,9.32,2.57,14.06,1.11,1.28-.4,2-2,3.41.07,2.92,4.17,7.36,4.26,11.53,4.27,19.05,0,38.18,1.15,57-3.21,11.31-2.62,22.71-5.72,34-7.19,12.11-1.58,20.39-11,31.55-14.19,11.34-3.29,19.94-13.91,30.2-20.46a4,4,0,0,0,1.9-4C2863,3627.29,2866.13,3623.23,2867.7,3618.62Z"/><path class="cls-14" d="M2867.7,3618.62c-1.57,4.61-4.7,8.67-4,14.07a4,4,0,0,1-1.9,4c-10.26,6.55-18.86,17.17-30.2,20.46-11.16,3.23-19.44,12.61-31.55,14.19-11.28,1.47-22.68,4.57-34,7.19-18.83,4.36-38,3.25-57,3.21-4.17,0-8.61-.1-11.53-4.27-1.42-2-2.13-.47-3.41-.07-4.74,1.46-9.61,2.85-14.06-1.11-.55-.48-1.49-1.39-1.67-1.23-9.15,7.55-14.89-5.33-23.06-4.91-3.68.2-1.65-5.32-2.57-8.11-1.9,4.75-3.64,9.59-5.75,14.21-3.1,6.81-.68,10.63,5.08,12.9,14.29,5.62,29.16,8.22,44.08,10.29,27.21,3.78,54.43.71,81.62-.61,9.55-.46,19.07-1.57,28.61-2.19,4.37-.28,9-1.86,12.37,3.63.7,1.16,3.56.93,5.43.9,16-.26,31.93-2.32,47.83-4.43,3.32-.43,5.25-2.23,4.49-5.59-5-22.16-.23-45.56-6.92-67.47C2869.09,3622,2868.34,3620.31,2867.7,3618.62Zm-96.54,66.4a2.61,2.61,0,0,1,2.57-1.5,2.92,2.92,0,0,1,3.1,3.4c-.13,1.81-1.78,1.25-2.84,1.25C2772.5,3688.17,2771.13,3687.77,2771.16,3685Zm-58.42,3.82c-.39-1.35.3-1.77.93-1.82s1.53.21,1.72.65a1.25,1.25,0,0,1-1.22,1.89C2713.62,3689.55,2713.07,3689,2712.74,3688.84Zm-47.17-6.18c.4-.26.74-.67,1.1-.68s.73.37,1.1.57c-.35.25-.68.66-1,.68S2666,3682.88,2665.57,3682.66Zm-14.19-6.9a1.44,1.44,0,0,1,.6.22c.06.06-.08.39-.13.59a1.6,1.6,0,0,1-.6-.23C2651.19,3676.29,2651.33,3676,2651.38,3675.76Z"/><path class="cls-13" d="M2771.16,3685c0,2.75,1.34,3.15,2.83,3.15,1.06,0,2.71.56,2.84-1.25a2.92,2.92,0,0,0-3.1-3.4A2.61,2.61,0,0,0,2771.16,3685Z"/><path class="cls-15" d="M2765.39,2755s-128,349.13-128,376.9,138.86,445.53,138.86,445.53,46.62,6.58,63.48-9.7c0,0-20.83-310.81-53.56-415.95,0,0,125-319.42,132.9-289.66s44.64,274.74,44.64,364c0,0,37.69,240,25.79,326.81,0,0,55.54,18.35,79.34,0,0,0,29.76-227.62,32.73-345.65,0,0,45.63-408.64,18.85-461.21S2765.39,2755,2765.39,2755Z"/><path class="cls-16" d="M2919.06,2796.51s202.9-9.25,201.63,204.38c0,0,13.27-188.4,5.34-220.13S2919.06,2796.51,2919.06,2796.51Z"/><path class="cls-17" d="M2983.6,1943.33s71.53-66.77,73.92,47.69-123.4,62.59-123.4,62.59Z"/><path class="cls-9" d="M2968.1,2152.32s0,85.18,8.05,106.64-90.31-5.36-90.31-5.36,19.67-25.66,6.26-116.1S2968.1,2152.32,2968.1,2152.32Z"/><path class="cls-10" d="M2986,1921.87s72.43,2.68,56.34,106.4a143.56,143.56,0,0,0-3.58,36.66c.89,18.78-7.5,90.31-23.42,98.36s-118.75,30.4-154.52-34.87l-10.28-17.89s-30.4.45-33.08-21.9,8.94-25.93,18.33-21c0,0-58.46-111.32-18.73-116.24S2986,1921.87,2986,1921.87Z"/><path class="cls-9" d="M3020.9,1936.8s-2.69,57.49-25.06,65.54-149.25,12.93-148,82.69c0,0-39.83-12.5-26-68.38S3017.82,1887.81,3020.9,1936.8Z"/><path class="cls-10" d="M3115.45,2431.13s8.93,167,20.83,256.88c0,0,105.63,7.06,110.09,22.38s-154.72,12.34-154.72,12.34l-53.56-291.6Z"/><path class="cls-9" d="M3117.61,2468.11s-34.56-2.76-37.87,15.09-6.52,66.35-6.52,66.35l-35.13-106.68h78Z"/><path class="cls-18" d="M2331.89,2267s-1-27.77,18.85-41.66,14.38-57.52,15.87-62,20.83-30.25,13.88-56.53c0,0-4.95-8.43-20.33,18.84s-20.33,40.67-20.33,40.67,14.38-78.36,22.32-98.69-9.92-54.55-9.92-54.55-13.39-5.46-13.39,18.35-21.33,92.74-27.77,100.17S2295.2,2265,2295.2,2265Z"/><path class="cls-19" d="M2372.53,2108.4s-23.77,34.6-32.7,57.91,25.62,33.23,25.62,33.23l12.88-59.78,6.15-11.14Z"/><path class="cls-19" d="M2353.42,2099.68s-16.57-28-24.5,0,16.41,40.08,16.41,40.08Z"/><path class="cls-19" d="M2355.7,2020.6s-18.25,27.57,3.27,56.88C2359,2077.48,2375.54,2049.46,2355.7,2020.6Z"/><path class="cls-12" d="M2326.57,3520.67s-14.61,99.87-.72,112.72,122-10.36,123.83-17.6-48.63-22.52-55.63-87.19C2387.19,3465.2,2326.57,3520.67,2326.57,3520.67Z"/><path class="cls-13" d="M2444.86,3582.64l4.75,1.33.63.67.85-.31c26,9.61,48.33,26.36,73.22,38.23a481.64,481.64,0,0,0,79.19,29.87c16.2,4.48,33.84,5.6,46.73,18.53-1.46,8.3-8.4,8.19-14.36,8.9-17.67,2.11-35.35,4.39-53.09,5.63-32.06,2.25-64.14,5-96.34,3.25l32.61-34.58c-6.7-1-13.42-10.63-20.29-4.31-13.24,12.18-27.16,24-37.09,39.44-8.31.63-16.43-.88-24.57-2.11l13.89-15.43c11.05-10.5,22.11-21,33.79-32.11-5.82-3.08-10.07-5-13.93-7.48-4-2.61-7.15-3.24-10.92.84-8.07,8.75-16.63,17.05-25,25.53-9.49,9.17-19.58,17.77-27.31,28.62-7.31-.74-15,1.9-21.89-2.56l33.6-34.68c10.58-9,20.08-19,29.33-29.35-16.26-11.42-16.27-11.43-29.35,2.14-4.82,5-9.56,10.08-14.34,15.13l-4.25,3c1.22-3-6.06-5.44,0-9.41,4.64-3,4-7-2.57-8.09-2.19-.38-2-3-2.29-4.89,8.17-5.78,17.73-10.31,19.74-21.69C2423.24,3587.61,2433.87,3584.76,2444.86,3582.64Zm61.76,35.21c-6-.1-8.87,1.88-9.29,5.77a5.51,5.51,0,0,0,5.36,6.27,5.58,5.58,0,0,0,6.18-5.51C2508.93,3621.81,2508.86,3618.13,2506.62,3617.85Zm-51.92-24.51c1.82-5.87-2.88-3.49-4.46-3.83-3.84-.84-7.09.88-7.38,5.09a5.4,5.4,0,0,0,5.55,6C2453.72,3600.83,2454.23,3596.71,2454.7,3593.34Z"/><path class="cls-20" d="M2486.44,3688.74c32.2,1.79,64.28-1,96.34-3.25,17.74-1.24,35.42-3.52,53.09-5.63,6-.71,12.9-.6,14.36-8.9,4.66,3.53,7.95,7.91,8.76,13.86-4,1.4-7.92,3.63-12,4.09-29.08,3.26-58.13,7.08-87.45,7.3a84.57,84.57,0,0,0-25.63,4.19c17,5.54,32.4,9.67,48.31,11.72q-106.44.23-212.9.4c-19,0-38-1-57-.43-9.75.28-12.36-3.52-11.46-12.29.59-5.77.38-11.62.53-17.43,19.27-1.45,38.3,2.8,57.52,2.45l26.84-.23c6.87,4.46,14.58,1.82,21.89,2.56l29.48,0c8.14,1.23,16.26,2.74,24.57,2.11C2469.88,3687.25,2478.19,3689.21,2486.44,3688.74Z"/><path class="cls-14" d="M2358.89,3684.82c-19.22.35-38.25-3.9-57.52-2.45a12.31,12.31,0,0,1,.16-10.79c15.18-8.88,17.69-31.49,4.77-43-2.47-5-.27-9.88.84-14.69,3.55-15.42,5.82-16.56,19.12-8.35,21.61,13.33,44.42,19.36,69.61,12.86.24,1.9.1,4.51,2.29,4.89,6.54,1.14,7.21,5.06,2.57,8.09-6.07,4,1.21,6.38,0,9.41C2387.89,3656.53,2371.26,3668.65,2358.89,3684.82Z"/><path class="cls-21" d="M2582.19,3712.12c-15.91-2-31.3-6.18-48.31-11.72a84.57,84.57,0,0,1,25.63-4.19c29.32-.22,58.37-4,87.45-7.3,4.11-.46,8-2.69,12-4.09,5.53,14.09,2.09,21.57-13.47,25C2624.66,3714.33,2603.34,3712.2,2582.19,3712.12Z"/><path class="cls-22" d="M2306.3,3628.58c12.92,11.51,10.41,34.12-4.77,43C2299.94,3656.9,2300.46,3642.44,2306.3,3628.58Z"/><path class="cls-21" d="M2444.86,3582.64c-11,2.12-21.62,5-29.25,14.07-2.24-4-1.17-8.25-1.22-12.42-.07-5.85,2.86-8.75,8.61-7.72C2430.46,3577.89,2438.38,3577.73,2444.86,3582.64Z"/><path class="cls-21" d="M2451.09,3584.33l-.85.31-.63-.67.87-.37Z"/><path class="cls-22" d="M2358.89,3684.82c12.37-16.17,29-28.29,41.83-44l4.25-3c1.08,8.44,9.32,8.36,14.36,12.09l-33.6,34.68Z"/><path class="cls-23" d="M2486.44,3688.74c-8.25.47-16.56-1.49-24.77.55,9.93-15.41,23.85-27.26,37.09-39.44,6.87-6.32,13.59,3.33,20.29,4.31Z"/><path class="cls-23" d="M2434.93,3658.53c8.37-8.48,16.93-16.78,25-25.53,3.77-4.08,6.87-3.45,10.92-.84,3.86,2.5,8.11,4.4,13.93,7.48-11.68,11.11-22.74,21.61-33.79,32.1C2448.12,3664.31,2438.41,3665.21,2434.93,3658.53Z"/><path class="cls-23" d="M2419.33,3649.91c-5-3.73-13.28-3.65-14.36-12.09,4.78-5,9.52-10.11,14.34-15.12,13.08-13.57,13.09-13.56,29.35-2.14C2439.41,3630.93,2429.91,3641,2419.33,3649.91Z"/><path class="cls-22" d="M2434.93,3658.53c3.48,6.68,13.19,5.78,16.06,13.21l-13.89,15.44-29.48,0C2415.35,3676.3,2425.44,3667.7,2434.93,3658.53Z"/><path class="cls-22" d="M2506.62,3617.85c2.24.28,2.31,4,2.25,6.53a5.58,5.58,0,0,1-6.18,5.51,5.51,5.51,0,0,1-5.36-6.27C2497.75,3619.73,2500.6,3617.75,2506.62,3617.85Z"/><path class="cls-22" d="M2454.7,3593.34c-.47,3.37-1,7.49-6.29,7.29a5.4,5.4,0,0,1-5.55-6c.29-4.21,3.54-5.93,7.38-5.09C2451.82,3589.85,2456.52,3587.47,2454.7,3593.34Z"/><path class="cls-24" d="M2162.18,3703.59h-626v-21.14h274.75c19.91,0,36.1-15,36.1-33.53V3223.38c0-18.49-16.19-33.53-36.1-33.53H1598.34c-25.36,0-47.36-15.57-54.75-38.73l-199.73-626.21a52.33,52.33,0,0,1,7.81-47.22,58.1,58.1,0,0,1,46.94-23.39H1603c54.92,0,102.52,33.54,118.44,83.46L1915,3144.69c4.51,14.14,18.74,24,34.61,24h212.59c31.56,0,57.24,24.53,57.24,54.68v425.54C2219.42,3679.06,2193.74,3703.59,2162.18,3703.59Zm-306.07-21.14h306.07c19.91,0,36.1-15,36.1-33.53V3223.38c0-18.49-16.19-33.53-36.1-33.53H1949.59c-25.36,0-47.36-15.57-54.75-38.73l-193.58-606.94c-12.91-40.47-53.33-68.74-98.3-68.74H1398.61c-12.15,0-23,5.37-29.87,14.72a31.39,31.39,0,0,0-4.73,28.33l199.72,626.2c4.51,14.14,18.74,24,34.61,24h212.59c31.56,0,57.24,24.53,57.24,54.68v425.54A52.85,52.85,0,0,1,1856.11,3682.45Z"/><path class="cls-25" d="M1774.68,2877.4H1503.1c-22,0-41.39-13.62-47.67-33.53L1364.16,2558c-6.09-19.21,9.24-38.59,30.3-38.59h271.77c22,0,41.2,13.62,47.67,33.52L1805,2838.81C1811.08,2858,1795.93,2877.4,1774.68,2877.4Z"/><path class="cls-26" d="M1774.7,2877.4H1540.07c-22,0-41.39-13.62-47.67-33.53L1401.14,2558c-6.1-19.21,9.23-38.59,30.3-38.59h234.63c22,0,41.38,13.62,47.85,33.52L1805,2838.81C1811.1,2858,1796,2877.4,1774.7,2877.4Z"/><path class="cls-26" d="M1620.14,3054h579.13a0,0,0,0,1,0,0v97a3.37,3.37,0,0,1-3.37,3.37H1623.52a3.37,3.37,0,0,1-3.37-3.37v-97A0,0,0,0,1,1620.14,3054Z" transform="translate(3819.41 6208.49) rotate(180)"/><rect class="cls-25" x="1594.15" y="3117.6" width="631.11" height="58.62" rx="1.51" transform="translate(3819.41 6293.82) rotate(180)"/><path class="cls-27" d="M1810.93,3695.4H1536.18a2.38,2.38,0,1,1,0-4.76h274.75c24.42,0,44.29-18.72,44.29-41.72V3223.38c0-23-19.87-41.73-44.29-41.73H1598.34c-21.78,0-40.64-13.27-46.94-33l-199.73-626.21a44.25,44.25,0,0,1,6.61-39.9,49.91,49.91,0,0,1,40.33-20H1603a2.38,2.38,0,0,1,0,4.76H1398.61a45.16,45.16,0,0,0-36.49,18.08,39.5,39.5,0,0,0-5.92,35.65l199.73,626.2c5.67,17.77,22.71,29.72,42.41,29.72h212.59c27,0,49,20.85,49,46.48v425.54C1860,3674.55,1838,3695.4,1810.93,3695.4Z"/><path class="cls-12" d="M2034.34,3562.33s-25.79,93.33-11.9,106.18,122-10.36,123.83-17.61-60.33-25.1-46.13-88.57S2034.34,3562.33,2034.34,3562.33Z"/><path class="cls-28" d="M1899.11,1999s28-52.48,68.6,4-43.44,91.31-43.44,91.31Z"/><path class="cls-12" d="M1903.65,2010.55s55.74-17.48,78.8,53.83c0,0,15.7,40,38.77,38.31,0,0,12.12,10.89-13.46,25.41,0,0,14.63,33.19,19.7,48.47s20.53,47.49-93.1,80.23c0,0-20.32,69.82,8.61,121.85s-101.77,48.82-102.55,43.68,24.11-91,10.65-148c-14.63-62.09-98.84-113.84-98.84-113.84S1845.9,1961.11,1903.65,2010.55Z"/><path class="cls-29" d="M1822.06,2151.62s-32.68-11.39-25,34.23-34.21-69.88-34.21-69.88Z"/><path class="cls-29" d="M1810.51,2204.51s51.86,6.83,52.3,39.48-6.55,86-6.55,86l-12.33-80.39Z"/><path class="cls-29" d="M1895.91,2016.34s-30.1,8.59-21.2,50.11c11,51.12-82.8,81.62-82.8,81.62s65.64-168.6,101.47-131.36"/><path class="cls-30" d="M1895.91,2016.34s-5.1-84.83-60.34-45.26,17.4,102,17.4,102l4.06-21.59c2-10.87,7.87-20.86,16.9-27.24a43.61,43.61,0,0,1,19.45-7.52Z"/><path class="cls-30" d="M1834.45,2109.37s-7.84,43.45,5.69,66.08c0,0-18.94-42.42-48.23-27.38S1834.45,2109.37,1834.45,2109.37Z"/><path class="cls-31" d="M1895.91,2016.34s-3.47-40.38-16.7-32c-22.5,14.25-21.09,36.79-19.39,64.59a46.11,46.11,0,0,0,2.24,12.44c6.55,18.45-.44,42.36-40.08,66.14s-43.58,62.51,3.94,84.24,25.15,62.54,25.15,62.54-23.59-31.42-52.62-29.27-126.22-38.82-125.07-122c.46-33.12,12.87-36.21,15-51,7.31-51.12,74.5-147.49,179-123.59,0,0,45.89,9.36,36.09,64.73Z"/><path class="cls-32" d="M1794.52,2155.76s-35.45,35.24,19.7,71.22c0,0,25,20,21.69,32.08l15.16,15.23s23.1-42.64-25.15-62.54C1825.92,2211.75,1785.48,2198.08,1794.52,2155.76Z"/><path class="cls-31" d="M1686.36,2080.23s-18.36,52.33-16.84,70C1669.52,2150.22,1654.19,2103,1686.36,2080.23Z"/><path class="cls-29" d="M1934.36,2256.8s-16.75-4.77-19.87,9.23,13,43.86,13,43.86S1930.43,2263.59,1934.36,2256.8Z"/><path class="cls-33" d="M1852.3,2354.74s23.15,30,52.52,16.72,26.43-24.2,26.43-24.2,36.31-3.92,69.37-17.3,220.19,181.68,220.19,181.68,45.62-232.1,62.81-267.14c0,0,5-8.6,15.54,2.31s38.35,4.63,38.35,4.63,10.25-4,7.28,11.57-20.83,314.42-72.41,335.25-224.15-113.07-224.15-113.07l-7,233.08L1961,2755,1706,2732.16s-87.62-307.16-29.92-347S1852.3,2354.74,1852.3,2354.74Z"/><path class="cls-18" d="M2026.41,2669.67s-11.41,43,0,45.13c15,2.83,76.37-23.31,89.76-25.79s44.14-8.93,52.57-.5S2198,2686,2198,2686s-45.13-46.61-66.46-55-88.81,38.68-88.81,38.68Z"/><path class="cls-29" d="M2073,2703.72s50.25-35,77-28.1,33.06,15.57,33.06,15.57a15.14,15.14,0,0,1-14.38-2.68C2162,2682.89,2135.53,2680.58,2073,2703.72Z"/><path class="cls-29" d="M2042.73,2669.67s-7.74,37.9,16.73,38.62c0,0-41.6,18.41-39.43-2.82a224.48,224.48,0,0,1,6.38-35.8Z"/><path class="cls-34" d="M1748,2482.54l7.93,150.1s-9.91,14.55,85.3-4.63,185.15,23.14,185.15,23.14v18.52h16.32l.73-24.47s-89.79-52.89-228-33.72c0,0-42.31,13.23-46.28-29.09S1748,2482.54,1748,2482.54Z"/><path class="cls-34" d="M2047.24,2437.08l1,48.11,57.35,41.25S2053.68,2474.28,2047.24,2437.08Z"/><path class="cls-34" d="M2220.81,2511.64s4.46,31.57-9.42,26.11-42.59-78.41-42.59-78.41Z"/><path class="cls-10" d="M2393.25,2240.05s.61-25.54-21.66-37.88-17-52.56-18.72-56.63-23.66-27.35-16.41-51.66c0,0,5.35-7.85,22.91,16.89s23.29,36.93,23.29,36.93-17.35-71.7-26.52-90.21,10.05-50.35,10.05-50.35,14.77-5.3,15.19,16.58,25.32,84.77,32.61,91.47,20,122.26,20,122.26Z"/><path class="cls-26" d="M2637.38,2370.13s17.32-10.8,53.56-102.9c0,0,7.94-40.91,54.55-38.93s135.88-9.67,135.88-9.67,13.89,59.59,91.92,13.31c0,0,7.27-3.48,11.9-13.31,0,0,48.14,2.57,77.23-7.35s79.19,39.5,79.86,161.83l8.18,75.63s-6,2.8-31.7,6c-26.25,3.31-61.5,7.27-61.5,7.27l49.26,270.12L2748.47,2746l-12.9-328.3s-9.74,34.18-52.56,65.46C2683,2483.2,2647.3,2452.46,2637.38,2370.13Z"/><path class="cls-6" d="M2735.9,2323.19l-.33,94.55S2722,2459.4,2683,2483.2c0,0-4.56-1.92-14.15-17.52C2668.86,2465.68,2733.26,2433.61,2735.9,2323.19Z"/><path class="cls-10" d="M2434,2237.45s22.23,84.41,103.57,168.39l-60.18,50.25s-61.77-96.83-84.11-216Z"/><path class="cls-35" d="M2601.35,2710.39H2131.81a15,15,0,0,1-14.91-14.92h0a15,15,0,0,1,14.91-14.91h469.54a15,15,0,0,1,14.92,14.91h0A15,15,0,0,1,2601.35,2710.39Z"/><path class="cls-36" d="M2601.35,2710.39H2131.81a8.28,8.28,0,1,1,0-14.06h469.54a8.28,8.28,0,1,1,0,14.06Z"/><path class="cls-36" d="M2613,2680.56H2237.38c-10.73,0-18.42-8.78-17.1-19.51l29.93-243.26c1.33-10.73,11.18-19.51,21.92-19.51h375.56c10.73,0,18.43,8.78,17.11,19.51l-29.94,243.26C2633.54,2671.78,2623.68,2680.56,2613,2680.56Z"/><path class="cls-37" d="M2613,2680.56H2248.47c-10.73,0-18.43-8.78-17.11-19.51l29.94-243.26c1.31-10.73,11.18-19.51,21.91-19.51h364.48c10.73,0,18.43,8.78,17.11,19.51l-29.94,243.26C2633.54,2671.78,2623.68,2680.56,2613,2680.56Z"/><path class="cls-38" d="M2593.09,2680.56h-37.51l-296-248.5,1.76-14.27a21.77,21.77,0,0,1,5.13-11.43l326.66,274.2ZM2309,2398.28,2632,2669.36a21.16,21.16,0,0,0,2.9-8.31l4.66-37.83-268-224.94Z"/><path class="cls-37" d="M2217.14,2710.39h-85.33a15,15,0,0,1-14.91-14.92h0a15,15,0,0,1,14.91-14.91h85.33a15,15,0,0,1,14.91,14.91h0A15,15,0,0,1,2217.14,2710.39Z"/><rect class="cls-39" x="2210.63" y="2673.1" width="405.63" height="14.91" rx="7.45"/><path class="cls-40" d="M2455.76,2501.93c-20.71,0-39.21,16.78-41.33,37.49s12.94,37.49,33.65,37.49,39.21-16.78,41.33-37.49S2476.47,2501.93,2455.76,2501.93Z"/><path class="cls-15" d="M1940.12,2852.74S2135,3048.55,2294.2,3111c0,0-19.34,251.43,23.81,404.67l78.85-7.44s52.1-381.08,55.06-429.33S2429.48,2989,2309,2959.29s-282.81-72.94-269.33-134.66S1940.12,2852.74,1940.12,2852.74Z"/><path class="cls-8" d="M1734.81,2913.17s-86.3,86.07-8.93,165.77,442.92,55.9,442.92,55.9-115.8,193.41-129.1,398.72l66.62,19.34s153.56-310,202.71-376.68-14.15-133.62-77-161.89-303-107.3-267.69-199.45S1734.81,2913.17,1734.81,2913.17Z"/><path class="cls-41" d="M2014.5,3502.82s7.28,33.06-8.59,55.54S2111,3587.45,2111,3587.45s11.24-1.32,13.23-20.49,22.48-28,7.93-32.4-95.87-23.15-101.16-31.74S2014.5,3502.82,2014.5,3502.82Z"/><path class="cls-41" d="M2296.19,3494.88s76.6,3.65,103.1-4.45,18.56,5.11,21.87,16.35-2.65,28.44-21.16,28.44-101.83,10.58-99.18,2.64,4-26.45-2-31.74S2290.27,3494.64,2296.19,3494.88Z"/><path class="cls-13" d="M2140,3617.13l4.76,1.32s.62.67.62.67l.86-.3c26,9.61,48.32,26.36,73.21,38.22a482.59,482.59,0,0,0,79.19,29.88c16.21,4.48,33.85,5.6,46.73,18.53-1.46,8.3-8.39,8.19-14.35,8.9-17.68,2.11-35.35,4.39-53.1,5.63-32.06,2.25-64.13,5-96.34,3.24l32.61-34.58c-6.69-1-13.41-10.63-20.29-4.3-13.24,12.18-27.16,24-37.09,39.44-8.3.63-16.42-.89-24.57-2.12q7-7.71,13.89-15.43l33.8-32.1c-5.83-3.09-10.08-5-13.94-7.48-4.05-2.62-7.14-3.24-10.91.84-8.08,8.74-16.64,17-25,25.53-9.5,9.16-19.59,17.77-27.32,28.62-7.31-.74-15,1.9-21.89-2.56l33.61-34.68c10.58-9,20.07-19,29.32-29.36-16.25-11.41-16.27-11.43-29.34,2.15-4.82,5-9.57,10.08-14.35,15.12l-4.25,3c1.22-3-6.06-5.44,0-9.41,4.63-3,4-6.95-2.58-8.09-2.19-.39-2-3-2.28-4.89,8.17-5.79,17.72-10.31,19.73-21.7C2118.41,3622.1,2129.05,3619.25,2140,3617.13Zm61.76,35.2c-6-.09-8.87,1.89-9.29,5.78a5.52,5.52,0,0,0,5.36,6.27,5.6,5.6,0,0,0,6.19-5.52C2204.11,3656.3,2204,3652.61,2201.79,3652.33Zm-51.92-24.5c1.83-5.87-2.88-3.49-4.46-3.84-3.84-.83-7.08.89-7.38,5.1a5.41,5.41,0,0,0,5.55,6C2148.89,3635.32,2149.41,3631.2,2149.87,3627.83Z"/><path class="cls-20" d="M2181.61,3723.22c32.21,1.8,64.28-1,96.34-3.24,17.75-1.24,35.42-3.52,53.1-5.63,6-.71,12.89-.6,14.35-8.9,4.66,3.52,7.95,7.9,8.76,13.85-4,1.41-7.92,3.64-12,4.1-29.08,3.26-58.13,7.07-87.45,7.3a84.28,84.28,0,0,0-25.63,4.18c17,5.55,32.4,9.68,48.32,11.73q-106.45.21-212.9.39c-19,0-38-1-57-.42-9.74.28-12.36-3.52-11.46-12.3.59-5.76.39-11.61.54-17.42,19.27-1.45,38.29,2.8,57.52,2.45l26.83-.23c6.88,4.46,14.58,1.82,21.89,2.56l29.48,0c8.15,1.22,16.27,2.74,24.57,2.11C2165.05,3721.74,2173.36,3723.7,2181.61,3723.22Z"/><path class="cls-14" d="M2054.07,3719.31c-19.23.35-38.25-3.9-57.52-2.45a12.28,12.28,0,0,1,.15-10.79c15.18-8.88,17.69-31.49,4.78-43-2.48-5.05-.27-9.88.83-14.69,3.55-15.43,5.82-16.56,19.13-8.35,21.61,13.32,44.41,19.35,69.61,12.86.24,1.9.09,4.5,2.28,4.89,6.55,1.14,7.21,5.06,2.58,8.09-6.08,4,1.2,6.38,0,9.41C2083.07,3691,2066.43,3703.13,2054.07,3719.31Z"/><path class="cls-21" d="M2277.37,3746.61c-15.92-2.05-31.31-6.18-48.32-11.73a84.28,84.28,0,0,1,25.63-4.18c29.32-.23,58.37-4,87.45-7.3,4.11-.46,8-2.69,12-4.1,5.53,14.1,2.09,21.58-13.47,25C2319.83,3748.82,2298.51,3746.69,2277.37,3746.61Z"/><path class="cls-22" d="M2001.48,3663.07c12.91,11.51,10.4,34.12-4.78,43C1995.12,3691.38,1995.63,3676.93,2001.48,3663.07Z"/><path class="cls-21" d="M2140,3617.13c-11,2.12-21.62,5-29.25,14.06-2.24-4-1.17-8.24-1.22-12.42-.06-5.84,2.86-8.74,8.62-7.72C2125.63,3612.38,2133.56,3612.21,2140,3617.13Z"/><path class="cls-21" d="M2146.27,3618.82l-.86.3s-.63-.67-.62-.67.86-.36.86-.36Z"/><path class="cls-22" d="M2054.07,3719.31c12.36-16.18,29-28.29,41.82-44l4.25-3c1.08,8.44,9.33,8.36,14.37,12.09l-33.61,34.68Z"/><path class="cls-23" d="M2181.61,3723.22c-8.25.48-16.56-1.48-24.77.56,9.93-15.41,23.85-27.26,37.09-39.44,6.88-6.33,13.6,3.33,20.29,4.3Z"/><path class="cls-23" d="M2130.11,3693c8.36-8.49,16.92-16.79,25-25.53,3.77-4.08,6.86-3.46,10.91-.84,3.86,2.5,8.11,4.39,13.94,7.48l-33.8,32.1C2143.29,3698.8,2133.58,3699.7,2130.11,3693Z"/><path class="cls-23" d="M2114.51,3684.4c-5-3.73-13.29-3.65-14.37-12.09,4.78-5,9.53-10.12,14.35-15.12,13.07-13.58,13.09-13.56,29.34-2.15C2134.58,3665.42,2125.09,3675.44,2114.51,3684.4Z"/><path class="cls-22" d="M2130.11,3693c3.47,6.68,13.18,5.78,16,13.21q-6.94,7.72-13.89,15.43l-29.48,0C2110.52,3710.79,2120.61,3702.18,2130.11,3693Z"/><path class="cls-22" d="M2201.79,3652.33c2.25.28,2.32,4,2.26,6.53a5.6,5.6,0,0,1-6.19,5.52,5.52,5.52,0,0,1-5.36-6.27C2192.92,3654.22,2195.78,3652.24,2201.79,3652.33Z"/><path class="cls-22" d="M2149.87,3627.83c-.46,3.37-1,7.49-6.29,7.29a5.41,5.41,0,0,1-5.55-6c.3-4.21,3.54-5.93,7.38-5.1C2147,3624.34,2151.7,3622,2149.87,3627.83Z"/><path class="cls-21" d="M2443.74,3577.09l-.86.31s-.63-.67-.62-.67l.86-.37Z"/><path class="cls-34" d="M1718.27,2877.4l-8.26,70s174.22-10.78,349.45-94.67c0,0-11.58-21.54,0-48.18S1718.27,2877.4,1718.27,2877.4Z"/><path class="cls-33" d="M1719.93,2785.22s-18,92.2-4.64,117.49,320.69-50,344.17-78.08,17.32-70.69,17.32-70.69Z"/><path class="cls-42" d="M3693.46,2711.37h-2364a32,32,0,0,0-32,32v21.05a32,32,0,0,0,32,32.05h2364a32,32,0,0,0,32-32.05v-21.05A32,32,0,0,0,3693.46,2711.37Z"/><path class="cls-43" d="M3693.46,2777.92h-2364a32,32,0,0,1-32-32.05v18.59a32,32,0,0,0,32,32.05h2364a32,32,0,0,0,32-32.05v-18.59A32,32,0,0,1,3693.46,2777.92Z"/><path class="cls-31" d="M1528.9,2852.74h46c8.39,0,16.14-13.4,20.35-35.19l4.06-21h-68.52Z"/><polygon class="cls-44" points="1484.61 2796.51 1484.61 3768.63 1498.19 3768.63 1530.79 2796.51 1484.61 2796.51"/><path class="cls-31" d="M3416.59,2796.51l4.07,21c4.21,21.79,12,35.19,20.35,35.19h46l-1.89-56.23Z"/><polygon class="cls-44" points="3487.01 2852.74 3517.71 3768.63 3531.29 3768.63 3531.29 2796.51 3485.12 2796.51 3487.01 2852.74"/><path class="cls-45" d="M3020.9,1936.8s-15.24-7.18-20,26.79-50.67,45.9-115,53.65-37,70.34-37,70.34l-13.11-20s-16.14-7.71-18.5,10.9c0,0-70.92-109-3-159.62s183.69-52.46,206.59-21.46S3020.9,1936.8,3020.9,1936.8Z"/><path class="cls-14" d="M2857.31,3650.73c10-2.58,20.23-1.06,30.34-1.57,2.65-.13,6.18,1.69,7.4-3.07-10.37.15-20.73,1.14-31.11.15C2861.08,3646,2857.85,3646.15,2857.31,3650.73Z"/><path class="cls-13" d="M3090.1,3612.14c-4.1-3.46-7.8,0-11.41,1.2-21.23,7.23-42.64,9.37-64.51,4.22-9.47-2.23-17.72-6.33-23.11-16-3.72-6.65-8.54-5.81-13.32-1.66-10.58,9.16-20.08,19.8-30.32,29.29-11.3,10.46-24.39,18.88-39.25,22.44-1.08,4.21-4.2,2.6-6.55,2.72-9,.45-18-.89-26.89,1.39l.08-.12c.93,2.79-1.11,8.31,2.57,8.12,8.18-.42,13.94,12.48,23.1,4.91.19-.15,1.13.76,1.67,1.24,4.47,4,9.34,2.57,14.08,1.11,1.29-.4,2-2,3.43.07,2.92,4.18,7.36,4.27,11.55,4.28,19.08,0,38.24,1.15,57.1-3.22,11.33-2.62,22.75-5.73,34-7.2,12.13-1.58,20.42-11,31.6-14.22,11.36-3.29,20-13.92,30.26-20.49a4,4,0,0,0,1.89-4C3085.4,3620.83,3088.53,3616.76,3090.1,3612.14Z"/><path class="cls-14" d="M3090.1,3612.14c-1.57,4.62-4.7,8.69-4,14.1a4,4,0,0,1-1.89,4c-10.29,6.57-18.9,17.2-30.26,20.49-11.18,3.24-19.47,12.64-31.6,14.22-11.3,1.47-22.72,4.58-34,7.2-18.86,4.37-38,3.26-57.1,3.22-4.19,0-8.63-.1-11.55-4.28-1.43-2-2.14-.47-3.43-.07-4.74,1.46-9.61,2.85-14.08-1.11-.54-.48-1.48-1.39-1.67-1.24-9.16,7.57-14.92-5.33-23.1-4.91-3.68.19-1.64-5.33-2.57-8.12-1.91,4.75-3.65,9.6-5.76,14.23-3.11,6.82-.69,10.65,5.09,12.92,14.31,5.63,29.21,8.23,44.16,10.31,27.25,3.78,54.51.71,81.75-.61,9.57-.47,19.1-1.58,28.66-2.2,4.38-.28,9.05-1.86,12.39,3.64.7,1.16,3.57.93,5.43.9,16.06-.26,32-2.33,47.92-4.43,3.32-.44,5.26-2.25,4.49-5.61-5-22.2-.22-45.64-6.93-67.58C3091.49,3615.49,3090.75,3613.83,3090.1,3612.14Zm-96.7,66.52a2.6,2.6,0,0,1,2.57-1.51,2.93,2.93,0,0,1,3.11,3.41c-.13,1.81-1.78,1.25-2.85,1.25C2994.74,3681.81,2993.37,3681.41,2993.4,3678.66Zm-58.52,3.82c-.39-1.35.3-1.77.94-1.82s1.53.2,1.71.65a1.25,1.25,0,0,1-1.22,1.89C2935.76,3683.19,2935.21,3682.66,2934.88,3682.48Zm-47.25-6.2c.4-.26.75-.66,1.1-.67s.73.37,1.1.57c-.34.24-.68.66-1,.68S2888.05,3676.51,2887.63,3676.28Zm-14.21-6.91a1.74,1.74,0,0,1,.6.23c.06.06-.09.39-.14.59a1.74,1.74,0,0,1-.6-.23C2873.22,3669.91,2873.37,3669.58,2873.42,3669.37Z"/><path class="cls-13" d="M2993.4,3678.66c0,2.75,1.34,3.15,2.83,3.15,1.07,0,2.72.56,2.85-1.25a2.93,2.93,0,0,0-3.11-3.41A2.6,2.6,0,0,0,2993.4,3678.66Z"/><path class="cls-13" d="M2925.18,3680.88c.37.2,1,.8,1.61.81a1.41,1.41,0,0,0,1.38-2.14c-.21-.5-1.28-.78-1.94-.73S2924.74,3679.35,2925.18,3680.88Z"/><path class="cls-13" d="M2871.86,3673.89c.47.25.89.67,1.3.64s.78-.49,1.18-.76c-.42-.23-.84-.66-1.25-.65S2872.3,3673.59,2871.86,3673.89Z"/><path class="cls-13" d="M2855.81,3666.09c-.06.22-.22.6-.15.66a2,2,0,0,0,.68.26c0-.23.21-.61.15-.67A1.91,1.91,0,0,0,2855.81,3666.09Z"/><path class="cls-16" d="M2919.06,2862.09s-14.54-40.34-46.28,5.29-121.67,243.21-95.88,300.85l22.32,38.54s-7.11-47.54-13.06-55C2786.16,3151.75,2899.23,2860.1,2919.06,2862.09Z"/><path class="cls-6" d="M3023.81,2334.43s13.61,154.06,30.81,227.46,5.29,148.5,5.29,148.5h42.64L3057.26,2462l-9.26-.66Z"/><path class="cls-11" d="M3292,2337.4l-1.82,63L3234,2435.2S3275.14,2400.88,3292,2337.4Z"/><path class="cls-26" d="M3454.82,1901.71c10.83,38.89,42.37,114.9,118.86,84.58,0,0,43.64-14,22.81,40.59s-6.94,97.28-6.94,97.28,198.68-178.58,29.75-269.15c-77.36-41.48-119.69-35.11-142.68-18.37C3456.4,1851.37,3448.11,1877.61,3454.82,1901.71Z"/><path class="cls-26" d="M3523.87,1985.3s4.4,24.46,0,35c0,0,39-27.92,38.45-38.1S3523.87,1985.3,3523.87,1985.3Z"/><polygon class="cls-33" points="2621.04 1890.04 2641.74 1904.89 2665.71 1896.24 2657.99 1920.53 2673.62 1940.65 2648.14 1940.81 2633.83 1961.89 2625.8 1937.71 2601.33 1930.62 2621.85 1915.51 2621.04 1890.04"/><polygon class="cls-45" points="2182.55 2019.34 2195.76 2028.81 2211.06 2023.29 2206.13 2038.79 2216.11 2051.63 2199.85 2051.74 2190.71 2065.19 2185.59 2049.76 2169.97 2045.23 2183.07 2035.59 2182.55 2019.34"/><polygon class="cls-45" points="3235.97 2003.95 3249.19 2013.42 3264.49 2007.91 3259.56 2023.4 3269.53 2036.25 3253.27 2036.35 3244.14 2049.81 3239.01 2034.37 3223.4 2029.85 3236.49 2020.2 3235.97 2003.95"/><polygon class="cls-45" points="3770.51 2133.32 3783.73 2142.79 3799.03 2137.28 3794.1 2152.77 3804.07 2165.61 3787.81 2165.72 3778.68 2179.17 3773.56 2163.74 3757.94 2159.21 3771.03 2149.57 3770.51 2133.32"/><polygon class="cls-33" points="3422.59 1721.38 3435.81 1730.85 3451.1 1725.34 3446.18 1740.83 3456.15 1753.68 3439.89 1753.78 3430.76 1767.24 3425.63 1751.8 3410.02 1747.28 3423.11 1737.63 3422.59 1721.38"/><polygon class="cls-33" points="3866.31 2064.32 3879.53 2073.8 3894.83 2068.28 3889.9 2083.78 3899.88 2096.62 3883.61 2096.73 3874.48 2110.18 3869.36 2094.75 3853.74 2090.22 3866.83 2080.58 3866.31 2064.32"/><polygon class="cls-33" points="1553.61 2244.36 1566.83 2253.83 1582.13 2248.31 1577.2 2263.81 1587.17 2276.66 1570.91 2276.76 1561.78 2290.21 1556.66 2274.78 1541.04 2270.25 1554.13 2260.61 1553.61 2244.36"/><polygon class="cls-46" points="1512 2107.29 1481.16 2082.34 1484.19 2078.6 1506.62 2096.74 1503.38 2034.63 1508.19 2034.38 1512 2107.29"/><polygon class="cls-33" points="3243.04 1955.81 3228.79 1893.88 3236.32 1892.14 3246.68 1937.18 3303.95 1855.64 3310.28 1860.08 3243.04 1955.81"/><polygon class="cls-47" points="3841.76 2304.77 3832.74 2265.54 3837.51 2264.44 3844.07 2292.97 3880.35 2241.32 3884.36 2244.13 3841.76 2304.77"/></g></g></g></svg>