<svg xmlns="http://www.w3.org/2000/svg" xmlns:xlink="http://www.w3.org/1999/xlink" viewBox="0 0 5000 5000"><defs><style>.cls-1{fill:#fff;}.cls-2{fill:url(#linear-gradient);}.cls-3{fill:#000d3a;}.cls-4{fill:#021751;}.cls-5{fill:#d7e0ff;}.cls-6{fill:url(#linear-gradient-2);}.cls-7{fill:url(#linear-gradient-3);}.cls-8{fill:url(#linear-gradient-4);}.cls-9{fill:url(#linear-gradient-5);}.cls-10{fill:url(#linear-gradient-6);}.cls-11{fill:url(#linear-gradient-7);}.cls-12{fill:url(#linear-gradient-8);}.cls-13{fill:#2d4177;}.cls-14{fill:#3b58a8;}.cls-15{fill:#ffc1c2;}.cls-16{fill:#2a3c66;}.cls-17{fill:#f05831;}.cls-18{fill:#e32710;}.cls-19{fill:#ffa7a6;}.cls-20{fill:#12489e;}.cls-21{fill:#114dbd;}.cls-22{fill:#e5eae6;}.cls-23{fill:#07ae7b;}.cls-24{fill:#293760;}.cls-25{fill:#384c94;}.cls-26{fill:#b2c3fb;}.cls-27{fill:#005a3d;}.cls-28{fill:#6691dd;}.cls-29{fill:#152d54;}.cls-30{fill:url(#linear-gradient-9);}.cls-31{fill:url(#linear-gradient-10);}.cls-32{fill:#02c97d;}</style><linearGradient id="linear-gradient" x1="2946.56" y1="1556.32" x2="2407.13" y2="2779.91" gradientUnits="userSpaceOnUse"><stop offset="0" stop-color="#fff"/><stop offset="1" stop-color="#eaf0ff"/></linearGradient><linearGradient id="linear-gradient-2" x1="1718.13" y1="3023.21" x2="1283.5" y2="3209.18" gradientTransform="matrix(1, -0.01, 0.01, 1, -56.8, 10.52)" xlink:href="#linear-gradient"/><linearGradient id="linear-gradient-3" x1="1504.33" y1="2728.99" x2="1069.7" y2="2914.96" gradientTransform="translate(140.22 -24.1) rotate(1.13)" xlink:href="#linear-gradient"/><linearGradient id="linear-gradient-4" x1="1238.85" y1="2473.47" x2="804.23" y2="2659.44" gradientTransform="translate(444.34 -66.72) rotate(3.56)" xlink:href="#linear-gradient"/><linearGradient id="linear-gradient-5" x1="3343.68" y1="1980.31" x2="3693.87" y2="1980.31" xlink:href="#linear-gradient"/><linearGradient id="linear-gradient-6" x1="3324.01" y1="2223.73" x2="3674.2" y2="2223.73" xlink:href="#linear-gradient"/><linearGradient id="linear-gradient-7" x1="3324.01" y1="2453.5" x2="3674.2" y2="2453.5" xlink:href="#linear-gradient"/><linearGradient id="linear-gradient-8" x1="3095.31" y1="2808.67" x2="3674.2" y2="2808.67" xlink:href="#linear-gradient"/><linearGradient id="linear-gradient-9" x1="3678.24" y1="1591.32" x2="3756.56" y2="1591.32" gradientUnits="userSpaceOnUse"><stop offset="0" stop-color="#3b58a8"/><stop offset="1" stop-color="#3b58a8"/></linearGradient><linearGradient id="linear-gradient-10" x1="3493.65" y1="1610.53" x2="3571.97" y2="1610.53" xlink:href="#linear-gradient-9"/></defs><title>Asset 8</title><g id="Layer_2" data-name="Layer 2"><g id="Layer_1-2" data-name="Layer 1"><rect class="cls-1" width="5000" height="5000"/><g id="_8" data-name="8"><path class="cls-2" d="M2771.86,3358.35c468.29,70.25,819.9,209,852.45,104.53s-178-133.82,273.82-86.24,407.94,34.42,293.89-268.25S4214,2864.81,4407,2526s-315.83-512.82-491.29-809.62-637.75-550.64-1233.75-373.31-1286.47-131.85-1667.56,111.63-294,448.54-200.76,844.61-346.46,398-247.76,615.64S704,3084,579,3256.35s-227.67,250.22,735.12,198.82S2771.86,3358.35,2771.86,3358.35Z"/><path class="cls-3" d="M2154.14,3231.29s851.6,103.32,897.05,109.59c0,8.6,7.41,29.92-23.94,39.33S2093,3676.47,2049.11,3692.14s-95.62,32.92-153.61,17.25c-51.23-13.85-699.17-168-849.81-203.83a38.11,38.11,0,0,1-29.2-39.43l5.25-19.72Z"/><path class="cls-1" d="M2154.14,3207.16s818.25,114.43,863.71,120.7,40.75,18.81,9.4,28.21S2093,3652.34,2049.11,3668s-95.62,32.92-153.61,17.24c-54.6-14.75-787.07-212.87-872.78-236.05a2,2,0,0,1,.16-4Z"/><path class="cls-3" d="M1943.36,2381.94s192.33,740.35,204.82,783.31-1.51,40.6-38,46.76S1083.66,3432.5,1045.71,3435.79s-74.83,7.68-86.75-39.49S731.24,2426.58,723.65,2380.5s0-82.27,70.48-81.17,1024.88,34.9,1076.72,37.08S1934.52,2353.19,1943.36,2381.94Z"/><path class="cls-4" d="M1962.83,2381.94s192.33,740.35,204.82,783.31-1.86,38.75-38,46.76c-36,8-1026.51,220.49-1064.47,223.78s-74.82,7.68-86.75-39.49S750.7,2426.58,743.11,2380.5s0-82.27,70.49-81.17,1024.88,34.9,1076.71,37.08S1954,2353.19,1962.83,2381.94Z"/><polygon class="cls-5" points="1911.81 2394.74 2119.35 3167.26 1046.14 3373.75 804 2379.28 1911.81 2394.74"/><path class="cls-1" d="M2087.65,3153.24l-6.1,1.18-183.09,35.23h0l-35.2,6.78-175.53,33.75-621.54,119.6L835.7,2403.26,1890.1,2418l49,182.41,3.14,11.67v0l48.38,180,91.87,342Z"/><polygon class="cls-5" points="2264.9 3554.93 2729.61 3408.73 2443.62 3360.99 1978.87 3480.28 2264.9 3554.93"/><circle class="cls-1" cx="1512.42" cy="3601.62" r="7.27"/><circle class="cls-1" cx="1459.96" cy="3587.08" r="7.27"/><circle class="cls-1" cx="1407.51" cy="3572.53" r="7.27"/><polygon class="cls-5" points="2135.21 3378.4 2218.15 3393.34 2141.93 3412.6 2057.04 3396.57 2135.21 3378.4"/><polygon class="cls-5" points="2035.84 3401.49 2121.7 3417.71 2052.83 3435.11 1963.96 3418.2 2035.84 3401.49"/><polygon class="cls-5" points="2325.53 3334.18 2400.84 3347.19 2331.66 3364.67 2253.35 3350.95 2325.53 3334.18"/><polygon class="cls-5" points="2432.09 3309.41 2504.97 3320.88 2421.79 3341.9 2347.53 3329.07 2432.09 3309.41"/><polygon class="cls-5" points="2231.51 3356.03 2310.85 3369.93 2238.76 3388.14 2156.83 3373.38 2231.51 3356.03"/><polygon class="cls-5" points="1942.82 3423.11 2032.66 3440.2 1952.18 3460.54 1861.23 3442.07 1942.82 3423.11"/><polygon class="cls-5" points="1732.89 3471.89 1825.22 3492.61 1740.67 3513.97 1648.51 3491.5 1732.89 3471.89"/><polygon class="cls-5" points="1840.65 3446.85 1932.52 3465.5 1844.09 3487.84 1752.59 3467.31 1840.65 3446.85"/><polygon class="cls-5" points="1351.51 3473.8 1286.29 3488.84 1228.61 3474.9 1295.5 3459.47 1351.51 3473.8"/><polygon class="cls-5" points="1510.68 3514.51 1450.42 3528.51 1384.49 3512.58 1446.62 3498.13 1510.68 3514.51"/><polygon class="cls-5" points="1428.16 3493.4 1365.49 3507.98 1305.36 3493.45 1370.03 3478.53 1428.16 3493.4"/><polygon class="cls-5" points="1629.56 3495.9 1722.49 3518.56 1641.72 3538.97 1547.7 3514.92 1629.56 3495.9"/><polygon class="cls-5" points="2539.09 3284.55 2539.08 3284.5 2610.36 3294.26 2526.65 3315.41 2454.9 3304.11 2539.09 3284.55"/><polygon class="cls-5" points="1579.77 3384.91 1528.72 3374.54 1602.52 3358.35 1653.16 3367.98 1579.77 3384.91"/><polygon class="cls-5" points="1483.9 3407.01 1432.9 3395.57 1507.51 3379.2 1559.11 3389.67 1483.9 3407.01"/><polygon class="cls-5" points="1466.87 3447.19 1409.46 3433.19 1483.92 3416.02 1543.79 3429.45 1466.87 3447.19"/><polygon class="cls-5" points="1674.38 3363.09 1624.32 3353.56 1697.31 3337.55 1745.6 3346.67 1674.38 3363.09"/><polygon class="cls-5" points="1209.54 3470.29 1153.81 3456.82 1224.49 3441.3 1276.98 3454.73 1209.54 3470.29"/><polygon class="cls-5" points="1766.88 3341.76 1719.17 3332.75 1792.47 3316.66 1839.2 3325.08 1766.88 3341.76"/><polygon class="cls-5" points="1295.61 3450.44 1243.55 3437.12 1319.89 3420.37 1371.45 3432.95 1295.61 3450.44"/><polygon class="cls-5" points="1390.47 3428.56 1339.37 3416.09 1412.62 3400.02 1464.12 3411.58 1390.47 3428.56"/><polygon class="cls-5" points="2350.98 3287.76 2429.52 3269.5 2514.82 3281.18 2431.77 3300.47 2350.98 3287.76"/><polygon class="cls-5" points="2166.17 3258.68 2234.87 3242.84 2309 3252.99 2236.4 3269.74 2166.17 3258.68"/><polygon class="cls-5" points="2102.39 3248.65 2169.58 3233.9 2210.36 3239.49 2142.95 3255.03 2102.39 3248.65"/><polygon class="cls-5" points="2259.62 3273.39 2333.51 3256.35 2405.13 3266.16 2327.86 3284.13 2259.62 3273.39"/><polygon class="cls-5" points="1954.25 3298.55 1910.18 3290.83 1982.63 3274.93 2024.96 3282.24 1954.25 3298.55"/><polygon class="cls-5" points="1860.92 3320.07 1814.79 3311.76 1887.62 3295.78 1932.3 3303.61 1860.92 3320.07"/><polygon class="cls-5" points="2047.06 3277.15 2005.36 3269.94 2078.8 3253.83 2120.05 3260.32 2047.06 3277.15"/><polygon class="cls-5" points="1623.9 3543.47 1569.33 3557.26 1469.43 3533.11 1529.14 3519.23 1623.9 3543.47"/><polygon class="cls-5" points="2132.26 3338.64 2209.39 3352.15 2134.98 3369.44 2058.82 3355.72 2132.26 3338.64"/><polygon class="cls-5" points="2037.21 3360.75 2113.36 3374.47 2035.64 3392.52 1961.12 3378.45 2037.21 3360.75"/><polygon class="cls-5" points="2225.64 3316.92 2303.28 3330.33 2231.23 3347.07 2154.1 3333.56 2225.64 3316.92"/><polygon class="cls-5" points="2159.25 3296.53 2236.71 3278.67 2305.07 3289.43 2225.39 3307.96 2159.25 3296.53"/><polygon class="cls-5" points="1939.94 3383.38 2014.44 3397.45 1942.63 3414.14 1868.41 3400.01 1939.94 3383.38"/><polygon class="cls-5" points="2328.19 3293.07 2408.96 3305.78 2325.28 3325.22 2247.63 3311.8 2328.19 3293.07"/><polygon class="cls-5" points="1526.01 3470.64 1446.71 3489.09 1388.66 3474.24 1466.84 3456.21 1526.01 3470.64"/><polygon class="cls-5" points="1747.98 3428.03 1819.95 3442.64 1732.85 3462.88 1664.29 3447.49 1747.98 3428.03"/><polygon class="cls-5" points="1971.11 3339.92 2043.84 3323.15 2110.16 3334.77 2036.98 3351.79 1971.11 3339.92"/><polygon class="cls-5" points="2069.38 3281.01 2143.26 3263.97 2213.49 3275.02 2136.92 3292.68 2069.38 3281.01"/><polygon class="cls-5" points="1447.85 3451.58 1370.14 3469.5 1314.12 3455.17 1390.44 3437.58 1447.85 3451.58"/><polygon class="cls-5" points="1644.59 3452.08 1713.15 3467.46 1629.59 3486.88 1563.87 3470.85 1644.59 3452.08"/><polygon class="cls-5" points="1610.63 3491.28 1529.23 3510.2 1465.17 3493.81 1544.93 3475.26 1610.63 3491.28"/><polygon class="cls-5" points="1847.29 3404.93 1921.49 3419.05 1840.53 3437.86 1768.54 3423.24 1847.29 3404.93"/><polygon class="cls-5" points="1684.13 3406.1 1760.68 3388.45 1825.97 3400.87 1747.85 3419.04 1684.13 3406.1"/><polygon class="cls-5" points="1583.37 3429.34 1663.47 3410.86 1727.29 3423.82 1644.56 3443.07 1583.37 3429.34"/><polygon class="cls-5" points="1781.91 3383.55 1853.48 3367.05 1918.55 3379.34 1847.1 3395.96 1781.91 3383.55"/><polygon class="cls-5" points="1874.77 3362.14 1949.39 3344.93 2015.37 3356.81 1939.73 3374.41 1874.77 3362.14"/><polygon class="cls-5" points="2043.58 3314.2 1976.44 3302.44 2047.29 3286.1 2114.82 3297.77 2043.58 3314.2"/><polygon class="cls-5" points="1485.86 3451.82 1563.59 3433.9 1624.87 3447.65 1544.95 3466.24 1485.86 3451.82"/><polygon class="cls-5" points="2203.41 3313.08 2131.99 3329.69 2065.78 3318.09 2137.15 3301.63 2203.41 3313.08"/><polygon class="cls-5" points="1853.3 3358.08 1788.35 3345.81 1861.13 3329.03 1927.46 3340.98 1853.3 3358.08"/><polygon class="cls-5" points="1760.51 3379.48 1695.78 3367.16 1767.07 3350.72 1832.01 3362.99 1760.51 3379.48"/><polygon class="cls-5" points="1949.18 3335.97 1882.85 3324.02 1954.5 3307.5 2021.64 3319.26 1949.18 3335.97"/><polygon class="cls-5" points="1663.35 3401.88 1600.54 3389.13 1674.56 3372.05 1739.29 3384.37 1663.35 3401.88"/><polygon class="cls-5" points="1563.57 3424.89 1503.7 3411.46 1579.88 3393.89 1642.7 3406.65 1563.57 3424.89"/><path class="cls-6" d="M1909.28,3022.86s2.81,45.59,11,70.13-1,22.2-24.1,26.94-655,130.65-679.25,132.69-47.78,4.72-55.58-22.24-25.8-102-30.83-128.34-.31-47.12,44.73-46.79,654.45-59.18,687.57-58.15S1903.52,3006.43,1909.28,3022.86Z"/><path class="cls-7" d="M1818,2740.8s1.6,45.64,9.09,70.39-1.62,22.17-24.81,26.29S1144,2950.76,1119.76,2952.17s-47.88,3.45-55-23.71-23.09-102.64-27.42-129.12.93-47.1,45.94-45.58,655.79-41.85,688.88-40S1812.67,2724.22,1818,2740.8Z"/><path class="cls-8" d="M1754.29,2495.31s-.34,45.67,6.1,70.72-2.56,22.07-25.9,25.21-662.46,85.26-686.78,85.64-48,1.42-53.91-26-18.72-103.53-21.92-130.16,2.93-47,47.84-43.6,657-14,689.94-10.7S1749.67,2478.52,1754.29,2495.31Z"/><path class="cls-3" d="M3696.64,3013.93l-548.85-1.16c-29.77-.06-53.26-26-52.46-57.89l29.79-1197.36c.79-31.91,25.56-57.73,55.33-57.66l548.86,1.16c29.77.06,53.25,26,52.46,57.89L3752,2956.26C3751.19,2988.17,3726.41,3014,3696.64,3013.93Z"/><path class="cls-4" d="M3662.9,3011.11,3114.05,3010c-29.77-.07-53.26-26-52.46-57.9l29.78-1197.35c.8-31.91,25.57-57.73,55.34-57.66l548.86,1.16c29.77.06,53.25,26,52.46,57.89l-29.79,1197.35C3717.45,2985.35,3692.67,3011.17,3662.9,3011.11Z"/><path class="cls-1" d="M3732.3,1760l-29.59,1189.46c-.59,23.4-18.75,42.33-40.6,42.29l-45.64-.09-490.19-1-10.48,0c-21.85-.07-39.06-19.06-38.47-42.47l29.58-1189.46c.57-23.4,18.76-42.33,40.58-42.28l546.34,1.14C3715.65,1717.6,3732.89,1736.6,3732.3,1760Z"/><path class="cls-3" d="M3512.29,1769.15l-185.56.28c-6.17,0-11.57-4-15-10.27a33.31,33.31,0,0,1-3.71-16.47l.82-36.59,224.11-.33-.82,36.58A33.79,33.79,0,0,1,3527,1760C3523.31,1765.62,3518.06,1769.15,3512.29,1769.15Z"/><path class="cls-9" d="M3693.47,1980.31l.4-14.72h-.8l-.19-7.14a25.64,25.64,0,0,0-8-17.65,32.29,32.29,0,0,0-22.79-9L3373,1933a30.67,30.67,0,0,0-23.39,10.4,24.35,24.35,0,0,0-5.91,16.5l.55,20.41-.55,20.41a24.35,24.35,0,0,0,5.91,16.5,30.67,30.67,0,0,0,23.39,10.4l289.14,1.2a32.34,32.34,0,0,0,22.79-9,25.64,25.64,0,0,0,8-17.65l.19-7.14h.8Z"/><path class="cls-10" d="M3673.81,2223.73l.39-14.71h-.79l-.2-7.14a25.69,25.69,0,0,0-7.95-17.65,32.36,32.36,0,0,0-22.8-9l-289.13,1.21a30.63,30.63,0,0,0-23.39,10.39,24.31,24.31,0,0,0-5.92,16.5l.55,20.41-.55,20.41a24.29,24.29,0,0,0,5.92,16.5,30.61,30.61,0,0,0,23.39,10.4l289.13,1.21a32.4,32.4,0,0,0,22.8-9,25.71,25.71,0,0,0,7.95-17.65l.2-7.15h.79Z"/><path class="cls-11" d="M3673.81,2453.5l.39-29.3h-.79l-.2-14.22c-.18-13.5-3.17-25.8-7.95-35.15-5.66-11.06-13.81-18-22.8-17.93l-289.13,2.4c-9.62.08-18.07,8.18-23.39,20.71-3.87,9.08-6.09,20.49-5.92,32.86l.55,40.64-.55,40.65c-.17,12.37,2.05,23.78,5.92,32.86,5.32,12.53,13.77,20.63,23.39,20.71l289.13,2.39c9,.08,17.14-6.86,22.8-17.92,4.78-9.35,7.77-21.65,7.95-35.15l.2-14.22h.79Z"/><path class="cls-12" d="M3673.55,2808.67l.65-45.23h-1.31l-.32-22c-.3-20.82-5.25-39.81-13.15-54.24-9.35-17.07-22.84-27.78-37.69-27.67l-478,3.71c-15.9.12-29.87,12.61-38.67,31.95-6.39,14-10.06,31.63-9.78,50.73l.91,62.72-.91,62.73c-.28,19.1,3.39,36.71,9.78,50.73,8.8,19.33,22.77,31.83,38.67,31.95l478,3.7c14.85.12,28.34-10.59,37.69-27.65,7.9-14.44,12.85-33.43,13.15-54.26l.32-21.95h1.31Z"/><path class="cls-13" d="M3206.16,2010.44c-17,48.41-46.61,149.3,0,163s99.24-54.83,85-110.76S3206.16,2010.44,3206.16,2010.44Z"/><path class="cls-14" d="M3616.47,2991.66l-236.47-.5-253.72-.53a533.61,533.61,0,0,1-7.68-61.28v-.11c-3.26-46.73-2.54-111.72,12.05-189.6,0,0,4.49-2.17,12.63-5.86,60.62-27.46,322.87-139.22,420.88-64.57,13.51,10.29,23.91,24.13,30.23,42.2C3634.5,2826.29,3625.77,2935,3616.47,2991.66Z"/><path class="cls-15" d="M2747.22,2200.93c-66.34-22.48-76.76-31.8-88.28-6s46.61,75.67,80.61,88.28S2747.22,2200.93,2747.22,2200.93Z"/><path class="cls-16" d="M3219.87,2021.09c-21.11,52.91-32.3,96.15-28.76,101.26s70.95-14.36,75.21-44.24-20-66.7-29-64.19A95.24,95.24,0,0,0,3219.87,2021.09Z"/><path class="cls-17" d="M3238.31,2202.56s-2.54,4.89-7.3,13.27c-12.72,22.41-41.34,69.78-79.62,114.81-10.72,12.63-22.24,25.09-34.36,36.78a359.48,359.48,0,0,1-31.54,27.16q-3.47,2.63-7,5.11c-29.67,21.18-61.74,35.33-94.68,35.64-134.36,1.18-265.14-159.72-265.14-159.72l3.86-9.82,16-72.71c39-8.42,218.58,142.32,237.73,124.62,12.88-11.89,89-100.71,161.91-167.3,10.15-9.28,20.24-18.14,30.09-26.3l0,0c22.09-18.27,43-33,60.58-41.25,2.06-1,4.08-1.84,6-2.61l1.14,41.91,1.4,52.35Z"/><path class="cls-18" d="M3266.07,2229.7c-2.19,12.65-33-28.79-35.06-13.88-12.72,22.42-41.34,69.79-79.62,114.82-10.72,12.63-22.24,25.09-34.36,36.78a361,361,0,0,1-31.54,27.15c-2.31,1.75-4.63,3.47-7,5.11-29.67,21.19-61.74,35.33-94.68,35.64-134.36,1.18-265.14-159.71-265.14-159.71l3.86-9.83c35.77,27.57,155.74,117.74,212,131,66.52,15.77,134.13-38.7,153.7-78.63,19.92-40.64,59.82-76.81,107.74-143,32.95-30.11,55.82,13.19,81.3,1.3,2.06-1,4.08-1.84,6-2.6Z"/><path class="cls-17" d="M3594.39,2711.41c-38.43,12.81-89.09,21.85-142.79,27.9-117.11,13.27-248.73,12.44-299.48,6.07-12.9-1.6-20.55-3.57-21.47-5.74-6.15-14.72,18.4-209.79,27-284.62,2.11-18.31-.28-32.22-5.11-43.56a75,75,0,0,0-7.7-13.73c-8.16-11.64-18.7-20.59-27.78-30.31a107.15,107.15,0,0,1-8.47-10.17,55.64,55.64,0,0,1-11-31.06c-2-42,25.68-126.9,97.81-208.69,10.31-11.67,21.5-23.27,33.65-34.67q13.55-12.76,28.75-25.12c.57-.48,1.16-1,1.73-1.42,92.69-41.76,154.12,28.45,189.72,108.13,16.69,37.37,27.7,76.85,33.58,107.79,18.4,96.92-17.2,224.5,8.57,247.82S3594.39,2711.41,3594.39,2711.41Z"/><path class="cls-18" d="M3237.32,2121.69c-.39.16-.81.31-1.18.44-11,3.51-16-7.5-40.82-4.63-7.12.81-15.92,2.79-26.93,6.58,22.09-18.27,43-33,60.58-41.25q13.55-12.76,28.75-25.12a20.21,20.21,0,0,1,8.62.38C3292.51,2065.76,3252.48,2115.68,3237.32,2121.69Z"/><path class="cls-15" d="M3335.1,2115.79s-27.26,38.49-56.43,46.72c-9.24,2.61-18.69,2.17-27.51-3.49-36.64-23.51-11.64-51.21-6.12-59.5,3.71-5.55,4.11-22.61,3.78-42.07-.18-9.47-.51-19.52-.7-29.08,0,0,21.75-20.24,49.63-17.72S3335.1,2115.79,3335.1,2115.79Z"/><path class="cls-19" d="M3335.1,2115.79s-27.26,38.49-56.43,46.72c-12-12.53-16.12-28-17.13-38.43-1.25-13.07-1.08-38.38-12.72-66.63-.18-9.47-.51-19.52-.7-29.08,0,0,21.75-20.24,49.63-17.72S3335.1,2115.79,3335.1,2115.79Z"/><path class="cls-13" d="M3152.12,2745.38c-4.08,23.06-30.77,148.73-33.52,183.86-3.26-46.73-2.54-111.72,12.05-189.6,0,0,4.49-2.17,12.63-5.86A61.55,61.55,0,0,1,3152.12,2745.38Z"/><path class="cls-15" d="M3326,2004.75s-27,26.1-67.64,33.6h0a120.09,120.09,0,0,1-22.83,2c-53.06-.59-39-47.53-26.06-69.92,10.29-17.9,14.52-39.3,16-63.8q.32-5.46.48-11.12c.06-2.59.11-5.22.13-7.9,0,0,64.39-2.45,94.16,16.26,6.27,3.94,10.15,10.72,12.37,19C3340.89,1953.6,3326,2004.75,3326,2004.75Z"/><path class="cls-18" d="M3286.76,2356.89c-3.29,63.85-91.57,152.12-99.24,228.89-6.21,62.15-27.53,134.36-35.4,159.6-12.9-1.6-20.55-3.58-21.47-5.75-6.15-14.71,18.4-209.78,27-284.61,2.11-18.32-.28-32.22-5.11-43.56C3194.25,2338.62,3286.76,2356.89,3286.76,2356.89Z"/><path class="cls-20" d="M2082.44,3134.05c-.33,7.32-.66,14.15-.94,20.37l-95.1,18.3-88,16.93h0l-7.7-73.89-5.66-54.2s4-136.77,17.26-261.39c8.75-82.31,21.54-159.32,39.89-188.11v0c3-4.76,6.23-8.21,9.57-10.12a11.67,11.67,0,0,1,1.73-.87c43.18-17.94,86.26-4.54,103.41,2.37,5,2,7.74,3.44,7.74,3.44,15.62,47.66,21.56,145.61,22.86,248.3C2088.78,2959,2085.36,3067.68,2082.44,3134.05Z"/><path class="cls-3" d="M2087.49,2855.16c-33.41-61.63-47.77-128.57-57.84-81.61-9,42.24-46.45,279.35-43.25,399.17l-88,16.93h0l-7.7-73.89-5.66-54.2s4-136.77,17.26-261.39c23.55-59.54,48.49-107,69.77-134.82,24.25-31.69,55.11-53.12,84.83-61.93,5,2,7.74,3.44,7.74,3.44C2080.25,2654.52,2086.19,2752.47,2087.49,2855.16Z"/><path class="cls-21" d="M1990.57,2792.08c-24.83,94.9-64.44,218.31-99.88,323.68-9.61,28.51-18.91,55.73-27.51,80.67l-137.07,26.36-38.45,7.39c5-32.37,10.33-64.7,14.3-83.23,4.12-19.24,2.92-58.48.92-109-.94-23.38-2.06-49.18-2.9-76.52-1.79-58-2.36-123,2.5-186.76a176.26,176.26,0,0,1,28.89-77.4c47.55-70.62,141-102.34,207.68-96.85,4.36.35,8.6.85,12.7,1.55,34.56,5.66,59.59,22.55,63,50.38C2017.63,2675.68,2007.56,2727.22,1990.57,2792.08Z"/><path class="cls-3" d="M2010.74,2694.39s-28.51,31-76.76,29.63-109.77-14.08-101,59.77-73.8,179.1-133,177.59c-1.79-58-2.36-123,2.5-186.76a176.26,176.26,0,0,1,28.89-77.4c20.29-8.11,42.35-10.83,63.93-9.89C1863.6,2690.31,2010.74,2694.39,2010.74,2694.39Z"/><path class="cls-22" d="M1877.17,2163.72,1989.58,2178s85.24,113.39,86.66,207.18,17.18,255.46-1.11,288.7-183.41,42.32-266,22.79S1808.9,2185.47,1877.17,2163.72Z"/><path class="cls-14" d="M2266.63,2363.8a118.19,118.19,0,0,1-11.36,12.83c-44.51,42.31-116,29.55-149.3,12.13l-129.36-229.21c21.54,10.57,51.83,36,82.93,63.38,54.46,48,111.37,102.12,127.95,93.32,7.72-4.08,21.17-21.29,36.54-43.86l32.81-50.88c27.66-44.59,53.48-89.38,58.76-96.11,10.53-13.38,53.28,10.7,54.94,20.92C2372.1,2155.71,2311,2306.56,2266.63,2363.8Z"/><path class="cls-13" d="M2266.63,2363.8a118.19,118.19,0,0,1-11.36,12.83c-44.51,42.31-116,29.55-149.3,12.13l-129.36-229.21c21.54,10.57,51.83,36,82.93,63.38,40.51,49.79,60.93,101,69.13,134.27,9.87,40,74.57,32.9,87.73,2.74,9.23-21.16,8.75-63.93,7.63-87.55l32.81-50.88c10-8.8,18.82-14.79,21-10.71C2282.4,2219.51,2271.89,2316.54,2266.63,2363.8Z"/><path class="cls-14" d="M1974.3,2155.31c-8.1,18.58,6.54,57.14,30.63,77.12s63.1,146.26,46.56,226.14,28.74,303.56,41.91,342.24,113.78,58.21,105.19-31.53-92.67-192.22-94.09-288.94,4.75-176.46-30.89-226.29S1974.3,2155.31,1974.3,2155.31Z"/><path class="cls-13" d="M1876.18,2142.57s67.07-5,98.12,12.74-83.92,10.71-94.58,25C1861.6,2204.52,1876.18,2142.57,1876.18,2142.57Z"/><path class="cls-15" d="M1960.87,2201.93c-16.65,3.5-38.13.23-53.35-5.91-11.1-4.47-18.93-10.46-19.2-16.46-.6-12.6,2.41-51.68,4-77.58.22-3.45.42-6.63.57-9.52l85.21,32.32s-.38,1-.93,2.69c-.24.82-.55,1.8-.85,3a73.1,73.1,0,0,0-2.42,20C1974.18,2164.92,1989.65,2195.9,1960.87,2201.93Z"/><path class="cls-19" d="M1977.93,2127.86a24.87,24.87,0,0,1-1.62,2.57c-12.83,18.68-52.14,34.53-61.45,46.22-2.58,3.25-4.89,10.89-7.34,19.37-11.1-4.47-18.93-10.46-19.2-16.46-.6-12.6,2.41-51.68,4-77.58,30.17-1,78.2,22.22,84.85,25.49C1977.67,2127.74,1977.93,2127.86,1977.93,2127.86Z"/><path class="cls-15" d="M2014,2087.41c-2.39,19.15-14.9,42.66-42,47.35h0c-9.87,1.74-21.69.95-35.66-3.46-52.33-16.5-70.91-72.88-70.91-72.88s17.33-50.93,43.27-76.17c8.23-8,17.33-13.47,27-13.87,1.73-.06,3.45-.11,5.09-.13,36.93-.5,56,10.92,56,10.92a109.77,109.77,0,0,1,6.45,15.62C2013.11,2024.27,2016.69,2065.57,2014,2087.41Z"/><path class="cls-14" d="M1904.46,2230c-1.38,11.89-32,111.11-51.94,227.75-5.43,31.65-10.08,64.59-13.16,97.4-1.33,14.25-2.14,27.57-2.58,40.05-4.17,122.1,30.24,163,6.42,200.79-6.8,10.81-20.88,22.11-38.91,31.6-51.45,27.11-135.06,39.66-173.46-14.87-51.87-73.65,64.7-171.38,90.82-234.61s-6-248.54,39.72-347.47,114.82-88,114.82-88c1.07,4.34,5.58,35.56,6.88,39.68C1893.49,2216.51,1906,2216.48,1904.46,2230Z"/><path class="cls-14" d="M2284.88,2567.27s-194.32,65-298.48,22.81c-55.55-22.5-107.6-81.39-143.28-142.56-31.28-53.54-50-108.81-47.62-143,5.11-73.18,92.64-100.25,92.64-100.25,29.7,15.2,106.9,228.52,133.55,255.23,15.72,15.77,102.84,25.05,171.51,30,47.55,3.42,86.26,4.78,86.26,4.78Z"/><path class="cls-13" d="M2284.88,2567.27s-194.32,65-298.48,22.81c-55.55-22.5-107.6-81.39-143.28-142.56,1.33-11.14,2.3-17.94,2.3-17.94s34.7,72.53,118.43,122.82,165,14.81,220.42,6.58c47.95-7.13-1.53-31.1,8.93-69.44,47.55,3.42,86.26,4.78,86.26,4.78Z"/><path class="cls-13" d="M1884.62,2161.18s-2.43,17.05-2.43,17.05c-95.69,20.94-127.51,206.39-121.08,304s-89,181.67-10,256.61c23,21.84,60.82,62.2,53.18,88.71-51.45,27.11-135.06,39.66-173.46-14.87-51.87-73.65,64.7-171.38,90.82-234.61s-6-248.54,39.72-347.47,114.82-88,114.82-88C1877.26,2146.91,1883.33,2157.06,1884.62,2161.18Z"/><path class="cls-13" d="M1852.52,2457.7c-5.43,31.65-10.08,64.59-13.16,97.4-1.33,14.25-2.14,27.57-2.58,40.05,0,0,.24-113.66,6.34-147.63Z"/><path class="cls-1" d="M1960.2,2236.94c-30,4.39,7,37.28,20.33,75.3s17,92.12,35.23,114.05,25.22-22.12,21.57-81.7-52.25-136.35-56.8-132.69S1960.2,2236.94,1960.2,2236.94Z"/><path class="cls-1" d="M1888.24,2553.5c23.15,30.92,138.21,62.51,136.52,77.86s32.31,36.19,9.28,43.86-133.18,30.71-154.32,12.07S1872.29,2532.19,1888.24,2553.5Z"/><path class="cls-19" d="M1972,2134.76c-9.87,1.74-21.69.95-35.66-3.46-52.33-16.5-70.91-72.88-70.91-72.88s17.33-50.93,43.27-76.17a323.87,323.87,0,0,1,32.11-14c36.93-.5,56,10.92,56,10.92a109.77,109.77,0,0,1,6.45,15.62c-11.67,7.28-37.18,1.91-54.48,12.59-22.22,13.71-20.16,24.67-15.71,51s-32.13,30.71-12.74,53.74C1939.11,2134.41,1970,2134.76,1972,2134.76Z"/><path class="cls-17" d="M1947.78,1939.41c6.9,4.16,26.71-23.45,48.22-23s48.67,44,29.76,66.47-36.43-5.71-47.18.06-16.78,18.12-32.37,13.5-18.91,10.41-33.73,9.31.5,28.29,3.84,37-2.45,33.12-8.21,25.22-11.88-27-19.63-10.53,15,24,14.36,35.5,14.21,44.6-10.67,34.51-55.31-45.64-47.86-60.93-49.6-46.05-32.56-72,30.32-3.16,36.44-15.66,6-55,31.25-48,32.48,23.55,38.34,11.51S1934,1933.86,1947.78,1939.41Z"/><path class="cls-3" d="M1743.43,3168.7a449.41,449.41,0,0,0-17.32,54.09l-38.45,7.39c5-32.37,10.33-64.7,14.3-83.23,4.12-19.24,2.92-58.48.92-109C1730.65,3095.93,1761.44,3122.62,1743.43,3168.7Z"/><path class="cls-23" d="M2693.41,2543.5H2265.25a28.89,28.89,0,0,1-28.88-28.88V1921.89a28.88,28.88,0,0,1,28.88-28.88h428.16a28.87,28.87,0,0,1,28.88,28.88v592.73a28.89,28.89,0,0,1-28.88,28.88Z"/><rect class="cls-1" x="2264.31" y="1935.72" width="430.05" height="575.69"/><path class="cls-24" d="M2576.83,1948.24a15,15,0,0,0,15-15v-34.34a15,15,0,0,0-15-15h-45.18a39.67,39.67,0,0,0-77,0h-47.61a15,15,0,0,0-15,15v34.34a15,15,0,0,0,15,15m86.1-35.52a19.24,19.24,0,1,1,19.25-19.24A19.24,19.24,0,0,1,2493.15,1912.72Z"/><path class="cls-25" d="M2576.83,1878h-45.18a39.67,39.67,0,0,0-77,0h-47.61a15,15,0,0,0-15,15v34.34a15,15,0,0,0,15,15h169.78a15,15,0,0,0,15-15V1893A15,15,0,0,0,2576.83,1878Zm-83.68,28.81a19.24,19.24,0,1,1,19.25-19.24A19.24,19.24,0,0,1,2493.15,1906.8Z"/><rect class="cls-26" x="2467.52" y="2442.19" width="148.13" height="11.53"/><rect class="cls-17" x="2317.99" y="2011.38" width="82.08" height="82.08"/><rect class="cls-26" x="2424.36" y="2033.77" width="243.35" height="14.09"/><rect class="cls-26" x="2424.36" y="2062.83" width="117.24" height="8.24"/><rect class="cls-26" x="2304.1" y="2250.72" width="350.82" height="14.09"/><rect class="cls-26" x="2380.13" y="2194.63" width="198.76" height="13.33"/><rect class="cls-26" x="2345.04" y="2139.52" width="268.94" height="34.12"/><rect class="cls-26" x="2304.1" y="2292.79" width="350.82" height="14.09"/><rect class="cls-26" x="2304.1" y="2335.43" width="350.82" height="14.09"/><rect class="cls-26" x="2325.3" y="2380.59" width="308.42" height="14.09"/><path class="cls-19" d="M2731.22,2418.21a74.31,74.31,0,0,0-12-1.13c-13.23-.12-22.21,3.81-23.82,8a3,3,0,0,0-.11.32c-1.59,5.4-9.43,11.29-14.25,9.06-4.25-2-1-4-.19-4.51-1,.45-5.84,2.46-9.29,0s2-5.26,2.86-5.63c-.76.27-5.19,1.72-7.37.44a1.28,1.28,0,0,1-.58-.95c-.55-2.76,3.33-9.65,4.58-10.34,1.43-.79,14.22-4.5,14.22-4.5s-6.91-2.26-13.26.69c-3.26,1.51-7.22,1.21-10.58.1-3.21-1.07-5.86-2.89-6.83-4.64-2-3.57,34.64-23.91,41.17-22.8,4.08.7,13,1.71,20.48,3.39,4.47,1,8.47,2.22,10.67,3.76,2,1.39,5.36,4.89,9,9,7.22,8.13,15.46,18.66,15.79,19.92C2752.2,2420.27,2747.58,2425.68,2731.22,2418.21Z"/><path class="cls-15" d="M2716.26,2385.68c-11.48.77-29.38,15.16-41.75,17.5-6.3,1.19-10.13,4.4-13.07,6.55-3.21-1.07-5.86-2.89-6.83-4.64-2-3.57,34.64-23.91,41.17-22.8C2699.86,2383,2708.74,2384,2716.26,2385.68Z"/><polygon class="cls-23" points="2597.76 2441.39 2605.62 2440.94 2620.69 2440.08 2771.86 2379.92 2768.64 2366.63 2617.47 2426.78 2603.9 2436.85 2597.76 2441.39"/><path class="cls-27" d="M2597.76,2441.4l7.86-.46c-.56-1.36-1.15-2.77-1.72-4.09Z"/><ellipse class="cls-27" cx="2770.25" cy="2373.27" rx="2.42" ry="6.84" transform="translate(-481.23 719.62) rotate(-13.63)"/><path class="cls-15" d="M2731.22,2418.21a74.31,74.31,0,0,0-12-1.13c-7-2.76-11.82-5.66-10-7.21,4.13-3.64,17.19-8.21,26.74-11.43,7.22,8.13,15.46,18.66,15.79,19.92C2752.2,2420.27,2747.58,2425.68,2731.22,2418.21Z"/><path class="cls-15" d="M2751.64,2418.57c-11-3.18-45.27-14.56-75.25-10.57-2.23.3-8.74,13.27,2.94,15.26s18.59-3.68,30.46,4.16,12.92,18.43,28.5,20.44S2751.64,2418.57,2751.64,2418.57Z"/><path class="cls-15" d="M2695.41,2425a3,3,0,0,0-.11.32c-1.59,5.4-9.43,11.29-14.25,9.06-4.25-2-1-4-.19-4.51-1,.45-5.84,2.46-9.29,0s2-5.26,2.86-5.63c-.76.27-5.19,1.72-7.37.44a1.28,1.28,0,0,1-.58-.95c3-.34,5.86.66,6.86.29,1.17-.41,5.44-.41,2.59,1.69s-1,2.33,7.69,1.34A93.46,93.46,0,0,0,2695.41,2425Z"/><path class="cls-17" d="M3312,2320.91S3270.48,2401,3207,2475.7c-13,15.27-26.87,30.32-41.53,44.45a434,434,0,0,1-38.12,32.82c-2.78,2.12-5.59,4.18-8.4,6.17-35.86,25.61-74.61,42.7-114.42,43.07-162.38,1.43-275.16-144.34-275.16-144.34l28.3-60.68c47.18-10.17,214.65,84.26,237.79,62.87,22.61-20.86,206.4-237.76,305.29-283.85,2.5-1.17,4.93-2.23,7.29-3.15Z"/><path class="cls-13" d="M3616.47,2991.66l-236.47-.5c43.71-66.76,77.33-201,71.6-251.85,0,0,51.74-25.71,95.61-59.7a84.49,84.49,0,0,1,16.95-10.4c13.51,10.29,23.91,24.13,30.23,42.2C3634.5,2826.29,3625.77,2935,3616.47,2991.66Z"/><path class="cls-15" d="M2396.85,2540.34c-5.46,13.66-64.83,21.58-112.25,22.28l-1.41-19.14h0c12.19-6.9,36.57-11.19,60.65-15.2C2372.35,2523.52,2402.71,2525.71,2396.85,2540.34Z"/><path class="cls-18" d="M3594.39,2711.41c-38.43,12.81-89.09,21.85-142.79,27.9-17.32-50.91-39.36-133.11-46.78-195.81-10.81-91.16,51.92-238.94,33.74-258.13s-73.39-12.06-145-99.24c0,0,77.46-25.86,155.65-21.71,16.69,37.37,27.7,76.85,33.58,107.79,18.4,96.92-17.2,224.5,8.57,247.82S3594.39,2711.41,3594.39,2711.41Z"/><path class="cls-19" d="M3326,2004.75s-27,26.1-67.64,33.6c28.4-15.46,34.78-43.76,29.65-82.51-4.32-32.77-39.5-33.12-62.61-49.24q.32-5.46.48-11.12c21.95-.15,70.31,2.63,106.66,27.33C3340.89,1953.6,3326,2004.75,3326,2004.75Z"/><path class="cls-13" d="M3397.17,2227.58c-1.36.22-2.7.42-4,.59-135.34,18.47-133.45-135.87-108.85-185.7,24.83-50.29,36.5-111.33,14.41-121.13s-92.92-7.06-100.91-38.34,11.06-42.33,49.39-45.09c36.06-5.33,28,15.83,66.31,18.22,1.44.09,3,.14,4.54.18,43.55.92,116.85,48.76,95.69,105.36s20.7,81,55.2,109.95S3536.57,2205.5,3397.17,2227.58Z"/><path class="cls-19" d="M3295,1973.69c21.11-20.28,43-22.2,36.46,1.37s-39.84,35.37-39.84,35.37Z"/><path class="cls-16" d="M3397.17,2227.58c-1.36.22-2.7.42-4,.59-54.76-28.84-90.58-86.69-69.65-148,26.32-77,64.7-89.84,65.25-122.3s-49.9-39.91-24.68-59.65c22-17.2-14.69-26.89-50.57-42.14,1.44.09,3,.14,4.54.18,43.55.92,116.85,48.76,95.69,105.36s20.7,81,55.2,109.95S3536.57,2205.5,3397.17,2227.58Z"/><path class="cls-21" d="M2110.69,1524.44H1830.06a34.76,34.76,0,0,0-34.76,34.76V1702a34.77,34.77,0,0,0,34.76,34.77h101.88l33.31,57.68a14.51,14.51,0,0,0,25.15,0l33.31-57.68h87a34.77,34.77,0,0,0,34.77-34.77V1559.2A34.77,34.77,0,0,0,2110.69,1524.44Z"/><rect class="cls-1" x="1846.1" y="1585.15" width="252.36" height="11.7" rx="0.91"/><rect class="cls-1" x="1846.1" y="1623.18" width="252.36" height="11.7" rx="0.91"/><rect class="cls-1" x="1846.1" y="1664.15" width="252.36" height="11.7" rx="0.91"/><path class="cls-1" d="M1002.31,1641.47h550c28.4,0,51.42,20.1,51.42,44.89v202.41l42.62,34.31,57.06,45.94c11.87,9.55,7.44,26.74-8,30.94l-74.1,20.17-17.61,4.8v63.83c0,24.79-23,44.89-51.42,44.89h-550c-28.4,0-51.43-20.1-51.43-44.89v-402.4C950.88,1661.57,973.91,1641.47,1002.31,1641.47Z"/><polygon class="cls-28" points="1442.9 1763.89 1442.9 1902.69 1330.54 2043.67 1023.63 2066.48 1101.26 1902.69 1200.72 1882.95 1315.4 1828.79 1442.9 1763.89"/><polygon class="cls-29" points="1509.39 2066.48 1023.63 2066.48 1023.63 1765.8 1028.9 1765.8 1028.9 2061.22 1509.39 2061.22 1509.39 2066.48"/><path class="cls-29" d="M1026.26,1734c-5.54,15-15,33.49-25,45l25-9,25,9C1041.27,1767.52,1031.8,1749,1026.26,1734Z"/><path class="cls-29" d="M1541.16,2063.85c-15,5.54-33.49,15-45,25l9.06-25-9.06-25C1507.67,2048.85,1526.21,2058.31,1541.16,2063.85Z"/><circle class="cls-29" cx="1101.26" cy="1902.69" r="15.13"/><polygon class="cls-26" points="1028.9 2061.22 1101.26 1981.63 1200.72 1932.95 1315.4 1981.63 1442.9 1902.69 1442.9 2061.22 1028.9 2061.22"/><circle class="cls-29" cx="1101.26" cy="1981.63" r="15.13"/><circle class="cls-29" cx="1200.72" cy="1882.95" r="15.13"/><circle class="cls-29" cx="1200.72" cy="1932.95" r="15.13"/><circle class="cls-29" cx="1315.41" cy="1828.79" r="15.13"/><circle class="cls-29" cx="1315.41" cy="1981.63" r="15.13"/><circle class="cls-29" cx="1442.9" cy="1763.89" r="15.13"/><circle class="cls-29" cx="1442.9" cy="1902.69" r="15.13"/><rect class="cls-17" x="564.11" y="2019.37" width="314.37" height="232.48" rx="17.33"/><path class="cls-21" d="M2315.33,1593.56h-13.16a3.29,3.29,0,1,0,0,6.58h13.16a3.29,3.29,0,1,0,0-6.58Z"/><path class="cls-21" d="M2746.9,1593.56h-27a3.29,3.29,0,1,0,0,6.58h27a3.29,3.29,0,0,0,0-6.58Z"/><path class="cls-21" d="M2585.06,1593.56h-27a3.29,3.29,0,1,0,0,6.58h27a3.29,3.29,0,1,0,0-6.58Z"/><path class="cls-21" d="M2639,1593.56h-27a3.29,3.29,0,1,0,0,6.58h27a3.29,3.29,0,0,0,0-6.58Z"/><path class="cls-21" d="M2696.25,1596.85a3.29,3.29,0,0,0-3.29-3.29h-27a3.29,3.29,0,1,0,0,6.58h27A3.29,3.29,0,0,0,2696.25,1596.85Z"/><path class="cls-21" d="M2804.14,1596.85a3.29,3.29,0,0,0-3.29-3.29h-27a3.29,3.29,0,1,0,0,6.58h27A3.29,3.29,0,0,0,2804.14,1596.85Z"/><path class="cls-21" d="M2423.22,1593.56h-27a3.29,3.29,0,1,0,0,6.58h27a3.29,3.29,0,1,0,0-6.58Z"/><path class="cls-21" d="M2369.28,1593.56h-27a3.29,3.29,0,1,0,0,6.58h27a3.29,3.29,0,1,0,0-6.58Z"/><path class="cls-21" d="M2531.12,1593.56h-27a3.29,3.29,0,1,0,0,6.58h27a3.29,3.29,0,1,0,0-6.58Z"/><path class="cls-21" d="M2477.17,1593.56h-27a3.29,3.29,0,1,0,0,6.58h27a3.29,3.29,0,1,0,0-6.58Z"/><path class="cls-21" d="M2841,1593.56h-13.16a3.29,3.29,0,1,0,0,6.58h9.87V1610a3.29,3.29,0,0,0,6.58,0v-13.16A3.29,3.29,0,0,0,2841,1593.56Z"/><path class="cls-21" d="M2841,1962.58a3.29,3.29,0,0,0-3.29,3.29v27.37a3.29,3.29,0,1,0,6.58,0v-27.37A3.29,3.29,0,0,0,2841,1962.58Z"/><path class="cls-21" d="M2841,1688.84a3.3,3.3,0,0,0-3.29,3.29v27.38a3.29,3.29,0,0,0,6.58,0v-27.38A3.29,3.29,0,0,0,2841,1688.84Z"/><path class="cls-21" d="M2841,1743.59a3.29,3.29,0,0,0-3.29,3.29v27.37a3.29,3.29,0,0,0,6.58,0v-27.37A3.29,3.29,0,0,0,2841,1743.59Z"/><path class="cls-21" d="M2841,1634.1a3.29,3.29,0,0,0-3.29,3.29v27.37a3.29,3.29,0,0,0,6.58,0v-27.37A3.29,3.29,0,0,0,2841,1634.1Z"/><path class="cls-21" d="M2841,1853.08a3.3,3.3,0,0,0-3.29,3.29v27.38a3.29,3.29,0,0,0,6.58,0v-27.38A3.29,3.29,0,0,0,2841,1853.08Z"/><path class="cls-21" d="M2841,1798.34a3.29,3.29,0,0,0-3.29,3.29V1829a3.29,3.29,0,0,0,6.58,0v-27.37A3.29,3.29,0,0,0,2841,1798.34Z"/><path class="cls-21" d="M2841,1907.83a3.29,3.29,0,0,0-3.29,3.29v27.37a3.29,3.29,0,1,0,6.58,0v-27.37A3.29,3.29,0,0,0,2841,1907.83Z"/><path class="cls-21" d="M2841,2017.32a3.3,3.3,0,0,0-3.29,3.29v9.87h-9.87a3.29,3.29,0,0,0,0,6.58H2841a3.29,3.29,0,0,0,3.29-3.29v-13.16A3.29,3.29,0,0,0,2841,2017.32Z"/><path class="cls-21" d="M2807.84,2030.48h-20a3.29,3.29,0,0,0,0,6.58h20a3.29,3.29,0,0,0,0-6.58Z"/><path class="cls-21" d="M2767.88,2030.48h-13.16a3.29,3.29,0,0,0,0,6.58h13.16a3.29,3.29,0,0,0,0-6.58Z"/><path class="cls-21" d="M2716.75,2011.38a22.39,22.39,0,1,0,22.39,22.39A22.39,22.39,0,0,0,2716.75,2011.38Z"/><path class="cls-21" d="M2258.76,1571.17a22.39,22.39,0,1,0,22.39,22.39A22.4,22.4,0,0,0,2258.76,1571.17Z"/><rect class="cls-30" x="3678.24" y="1521.88" width="78.32" height="138.88" rx="25.11"/><rect class="cls-26" x="3770.53" y="1436.76" width="78.32" height="224" rx="25.36"/><rect class="cls-31" x="3493.65" y="1561.2" width="78.32" height="98.66" rx="26.47"/><rect class="cls-26" x="3585.95" y="1486.32" width="78.32" height="174.44" rx="33.66"/><path class="cls-17" d="M3727.67,1459.82l73-73.49a13.13,13.13,0,0,1,18.57-.07h0a13.13,13.13,0,0,0,22-6l13.91-52.64a13.13,13.13,0,0,0-16.14-16l-52.54,14.27a13.13,13.13,0,0,0-5.82,22h0a13.13,13.13,0,0,1,.07,18.57l-59.82,60.22a13.13,13.13,0,0,1-14.22,2.93l-91.94-37a13.15,13.15,0,0,0-14.19,2.9L3464,1532a13.13,13.13,0,0,0,0,18.57l1.37,1.36a13.12,13.12,0,0,0,18.56,0l123.3-123.29a13.15,13.15,0,0,1,14.19-2.9l92,37A13.13,13.13,0,0,0,3727.67,1459.82Z"/><ellipse class="cls-26" cx="4146.74" cy="2055.49" rx="148.47" ry="148.33"/><ellipse class="cls-5" cx="4146.74" cy="2055.49" rx="141.21" ry="141.07"/><ellipse class="cls-1" cx="4146.74" cy="2055.49" rx="112.1" ry="111.99"/><path class="cls-26" d="M4194.4,2068.14q0,12.43-10.61,20.61-8.7,6.7-23.33,9.74V2115q0,7-7.58,7a6,6,0,0,1-5.14-2.5,7.66,7.66,0,0,1-1.46-4.54V2100.4c-1.71.09-3.38.13-5,.13q-13.25,0-20.63-3.55-6.66-3.17-6.65-8.1,0-9.42,10.41-9.42,2.7,0,9.16,1.94t8.37,1.95a35,35,0,0,0,4.35-.33v-29q-11.53-.74-19.64-4.88-10.61-5.4-10.61-14.94,0-10.87,9.49-20a51.64,51.64,0,0,1,20.76-12.05v-10.87q0-7.71,7.26-7.71,6.91,0,6.92,7.71v8.69a63.54,63.54,0,0,1,15.95,3.29q10.88,3.57,10.88,8.17a8.62,8.62,0,0,1-2.71,6.39,8.94,8.94,0,0,1-6.46,2.63,43.49,43.49,0,0,1-8.83-1.25,63.53,63.53,0,0,0-8.83-1.38V2038a13.74,13.74,0,0,1,1.45.06q14.57,1.13,23,8.17Q4194.41,2054.1,4194.4,2068.14Zm-48.12-47.55q-10.8,4.08-10.81,10.14,0,5.2,10.81,6.59Zm14.18,59.14q14.43-5,14.43-12.45,0-11.19-14.43-12.71Z"/><ellipse class="cls-26" cx="3959.32" cy="2314.1" rx="92.95" ry="92.85"/><ellipse class="cls-5" cx="3959.32" cy="2314.1" rx="88.4" ry="88.31"/><ellipse class="cls-1" cx="3959.32" cy="2314.1" rx="70.18" ry="70.11"/><path class="cls-26" d="M3989.16,2322q0,7.8-6.65,12.91-5.45,4.2-14.6,6.1v10.3c0,2.94-1.59,4.42-4.75,4.42a3.78,3.78,0,0,1-3.22-1.57,4.84,4.84,0,0,1-.91-2.85v-9.11c-1.07.06-2.12.09-3.13.09q-8.3,0-12.92-2.23-4.17-2-4.17-5.07,0-5.89,6.52-5.9a23.56,23.56,0,0,1,5.74,1.22,24.86,24.86,0,0,0,5.24,1.22,21.56,21.56,0,0,0,2.72-.21v-18.18a31.06,31.06,0,0,1-12.29-3.05q-6.64-3.37-6.65-9.36,0-6.79,5.95-12.53a32.27,32.27,0,0,1,13-7.54v-6.81c0-3.21,1.52-4.82,4.54-4.82s4.34,1.61,4.34,4.82v5.45a39.48,39.48,0,0,1,10,2.06q6.81,2.22,6.81,5.11a5.38,5.38,0,0,1-1.69,4,5.6,5.6,0,0,1-4,1.65,27.82,27.82,0,0,1-5.54-.79,38.52,38.52,0,0,0-5.52-.86v12.65c.38,0,.68,0,.9,0q9.12.7,14.41,5.12Q3989.16,2313.23,3989.16,2322ZM3959,2292.25q-6.77,2.55-6.76,6.35,0,3.26,6.76,4.12Zm8.88,37q9-3.14,9-7.79,0-7-9-8Z"/><ellipse class="cls-26" cx="3825.28" cy="1909.08" rx="72.08" ry="72.01"/><ellipse class="cls-5" cx="3825.28" cy="1909.08" rx="68.56" ry="68.49"/><ellipse class="cls-1" cx="3825.28" cy="1909.08" rx="54.42" ry="54.37"/><path class="cls-26" d="M3848.42,1915.22a12.16,12.16,0,0,1-5.15,10,27.51,27.51,0,0,1-11.33,4.73v8q0,3.42-3.68,3.42a2.93,2.93,0,0,1-2.5-1.21,3.75,3.75,0,0,1-.7-2.21v-7.07c-.83,0-1.64.07-2.43.07q-6.43,0-10-1.73c-2.16-1-3.23-2.33-3.23-3.93q0-4.57,5-4.57a18,18,0,0,1,4.45.94,19,19,0,0,0,4.07.94,16.45,16.45,0,0,0,2.11-.16v-14.1a24.11,24.11,0,0,1-9.54-2.36q-5.14-2.62-5.15-7.26,0-5.28,4.61-9.72a25.12,25.12,0,0,1,10.08-5.85v-5.27c0-2.5,1.17-3.74,3.52-3.74s3.36,1.24,3.36,3.74v4.22a30.85,30.85,0,0,1,7.74,1.59q5.28,1.74,5.28,4a4.15,4.15,0,0,1-1.31,3.1,4.34,4.34,0,0,1-3.13,1.28,20.94,20.94,0,0,1-4.29-.61,30.66,30.66,0,0,0-4.29-.67v9.82a6.29,6.29,0,0,1,.7,0q7.08.54,11.17,4Q3848.42,1908.41,3848.42,1915.22Zm-23.36-23.08q-5.25,2-5.25,4.92,0,2.52,5.25,3.2Zm6.88,28.7q7-2.41,7-6,0-5.43-7-6.17Z"/><path class="cls-32" d="M4338.73,3206.92c-.3,4.85,75.81-9.18,140.2,45.65s-26.05,113.8-172.77,102.81-552.57-7.08-575.35-41.81,78.45-96.62,104.49-98.71-53.12-26.08-50.39-43.54,53.66-53.26,79.94-43.64-35-41.33.54-62.11,57.67,14,58.38,5.67-99.74-65.79-53.33-123.3,148.34-100.15,252.3-22.64,58.41,128.75,75.7,118.58,12.43-45,52.72-32.67,36.46,78.44,41.18,81.51,34.27-15.5,65.38,2.69,21.12,65.54,13.45,81.67S4330.64,3204.81,4338.73,3206.92Z"/></g></g></g></svg>