<svg xmlns="http://www.w3.org/2000/svg" viewBox="0 0 5000 5000"><defs><style>.cls-1{fill:#fff;}.cls-2{fill:#eaf2f9;}.cls-3{fill:#c1d5e0;}.cls-4{fill:#cee1ed;}.cls-5{fill:#7badc9;}.cls-6{opacity:0.57;}.cls-7{fill:#fac2ae;}.cls-8{fill:#6fa4bc;}.cls-9{fill:#669eb2;}.cls-10{fill:#5b95aa;}.cls-11{fill:#71a5bc;}.cls-12{fill:#0c1947;}.cls-13{fill:#f1a080;}.cls-14{fill:#e6515b;}.cls-15{fill:#fc9fa8;}.cls-16{fill:#232f63;}.cls-17{fill:#84b4fe;}.cls-18{fill:#cce1ff;}.cls-19{fill:#214a81;}.cls-20{fill:#e9f3ff;opacity:0.17;}.cls-21,.cls-22{fill:#c1dee8;}.cls-21{opacity:0.43;}.cls-23{fill:#111d49;opacity:0.49;}.cls-24{fill:#231f20;}.cls-25{fill:#f9bcaa;}.cls-26{fill:#091644;}.cls-27{fill:#080f28;}.cls-28{fill:#0a1a49;}.cls-29{fill:#1f2c59;}.cls-30{fill:#131f3f;opacity:0.48;}.cls-31{fill:#ebf5ff;}.cls-32{fill:#0f1a42;}.cls-33{fill:#06102d;}.cls-34{fill:#9e2632;}.cls-35{fill:#660e17;}.cls-36{fill:#bad4e8;}.cls-37{fill:#abced6;}.cls-38{fill:#9dcce0;}.cls-39{fill:#232020;}</style></defs><title>Asset 2</title><g id="Layer_2" data-name="Layer 2"><g id="Layer_1-2" data-name="Layer 1"><rect class="cls-1" width="5000" height="5000"/><ellipse class="cls-2" cx="1177.01" cy="3964.7" rx="501.59" ry="115.56"/><ellipse class="cls-2" cx="3998.41" cy="3973.62" rx="501.59" ry="115.56"/><ellipse class="cls-2" cx="2780.16" cy="3882.04" rx="171.9" ry="60.76"/><path class="cls-2" d="M1219.53,3742.63H3770.78s374.68-1165.11-32-1409.25c-363.57-218.24-230.44-864.89-741.94-790.16S2454,1836.65,1939.55,1791c-764.83-67.86-1234.88,533.13-788.31,1363.42C1264.05,3364.19,1272.93,3576.89,1219.53,3742.63Z"/><rect class="cls-3" x="1917.78" y="3137.14" width="48.36" height="600.42"/><rect class="cls-3" x="3405.25" y="3137.66" width="48.36" height="600.42"/><rect class="cls-4" x="1842.51" y="3095.26" width="1696.34" height="81.82"/><rect class="cls-5" x="820.54" y="3738.08" width="3264.85" height="15.24"/><path class="cls-4" d="M3407.17,1563.38c5.38-24.58,5.31-24.6-18.87-30.55-3.23-1.21-6.46-1.92-9.76-.21a49.31,49.31,0,0,0-16.89-4.16l-12-2.71c-7.28-.28-10.85-3.36-10-11.32.42-3.77-1.16-7.76-1.84-11.65-.32-16.68-5.13-32.45-10.44-48-2.38-7-1.1-10.91,5.08-14.86,15.22-9.73,29.86-20.35,45.06-30.1,5.88-3.76,6.12-6.72,2.26-12.32q-30.8-44.58-60.8-89.71c-4.41-6.67-7.84-5.87-13.36-2-14.43,10.18-29.35,19.68-43.67,30-5.81,4.19-9.75,4.6-15.45-.46a206.93,206.93,0,0,0-51.16-33.58c-6.41-2.94-7.91-6.5-6.51-13.1,3.66-17.26,6.44-34.72,10.21-52,1.6-7.33.44-11-7.62-12.48-35.13-6.4-70.23-13-105.23-20.09-7.51-1.52-9.95.88-11.13,7.74-3,17.81-6.82,35.49-9.74,53.31-1.12,6.81-4,9.08-10.92,9.51-20.1,1.23-39.92,4.83-58.81,11.91-8,3-12.2,1.07-16.54-5.84-9-14.27-19.09-27.81-28.08-42.07-4.32-6.85-7.66-8.28-14.86-3.24q-43.41,30.36-87.64,59.56c-6.23,4.13-6.92,7.28-2.68,13.28,10.2,14.41,19.57,29.41,29.83,43.78,4.09,5.72,5,9.64-.17,15.49a214.63,214.63,0,0,0-34.18,52.24c-2.78,5.94-6.38,7.14-12.38,5.93-9.78-2-19.39-5.12-29.54-4.92-2.62-.84-5.2-1.9-7.88-2.49-27.64-6.14-27.68-6.09-29.89,22.44-.18,1.29-.35,2.57-.52,3.86-6.7,25.58-10.77,51.69-15.5,77.67-2.71,15-1.59,16.23,13.86,18.89,18.09,3.12,36.13,6.56,54.19,9.86,1.84,4.91-1.11,10.71,2.86,15.22.11,1.57.21,3.15.32,4.73a14.91,14.91,0,0,0,1.29,12.38c.55,1.51,1.09,3,1.64,4.52-.82,10.29,2.52,19.92,6.32,29,3.93,9.4,1.47,14.32-6.74,19.37-14,8.59-27,18.71-41,27.36-7.35,4.56-7.4,8.27-2.74,15,19.67,28.3,39.19,56.71,58,85.58,5.81,8.92,10.38,9.4,17,1.92h0c14.86-7.23,27.24-18.27,41.24-26.82,3.61-2.21,6.7-6.13,11.81-4.3a59.07,59.07,0,0,0,17.05,13.92l4.32,3a54.67,54.67,0,0,0,17.28,11.21,1.75,1.75,0,0,0,1.71.91l3,1.92c2.36,1.47,4.55,3.54,7.12,4.33,11.74,3.57,13.33,10.83,10.4,22-4.05,15.46-6.2,31.41-9.56,47.07-1.4,6.56.71,9.54,7.21,10.74,35.45,6.56,70.9,13.11,106.24,20.22,7.87,1.58,9.75-1.7,10.91-8.18,3.11-17.34,6.88-34.58,9.71-52,1.07-6.62,3.27-9.8,10.41-10.24a222.81,222.81,0,0,0,61-12.59c7.55-2.69,10.67-.14,14.4,5.64,9.77,15.15,20.28,29.82,30.08,44.94,3.42,5.27,6.46,6,11.54,2.38,17-12,34.14-23.8,51.24-35.68l2.7-2,0,.12a44.48,44.48,0,0,0,14.35-9.86,66.18,66.18,0,0,0,17.67-11.84l3.9-2.75c3.12-1.78,9.47-2,3.89-8a1.31,1.31,0,0,0-1-1.5c0-2-.81-3.58-2.87-4.26l-.31-.78h0c-5.55-11.59-13.34-21.68-21.21-31.72l-2.89-4.32c-.66-.9-1.31-1.81-2-2.71h.08l-6.33-11.83,1.28-2.53,2.07-2.34.23-.27,1.87-1.95c14-14.64,24.32-31.84,33.25-49.81,3.49-7,7.12-8.95,14.87-7.15,17.18,4,34.61,6.87,51.95,10.16,4.3.81,9.11,2.47,10.24-4.27,4.3-25.63,11.34-50.79,13.31-76.83-1.12.19-2.21.33-3.27.41,1.06-.08,2.15-.22,3.27-.41C3404.23,1573.3,3406.07,1568.42,3407.17,1563.38ZM3055,1689.32a10.36,10.36,0,0,0,3,.74A10.36,10.36,0,0,1,3055,1689.32Zm174-145.1c-1.5,13.08-3.22,26.13-6.72,38.87a2.27,2.27,0,0,0-.48,2.2h0L3210,1612.06l-.06.11-7.47,11.79h0l-1.8,2.45-3.06,4.39-2.39,2.94-2.34,2.67-1.88,2.13-2.71,3a16.15,16.15,0,0,0-6.94,6.8l-.34.34-2.13,2-.38.31-2.15,2-2.91,2.33-2.7,2.37-4.26,3.08q-7.14,4.63-14.29,9.26l-.15.09-43.48,16.48-4.87.64c-3.59-.37-7.07-.16-10.27,1.74l-30.61.09a23,23,0,0,0-12-1.91l-4.76-.68c-16.49-5.28-32.79-11.06-48.13-19.21,0,0,0,.06.05.09l-2.73-1.81-4.56-2.94a12.78,12.78,0,0,0-7-5.26c0,.1.07.18.1.28l-2.8-2.34-2.52-2.15-2.74-2.42-16.44-17.12-3.95-5h0c-2.91-5.85-6.1-11.51-10.7-16.26l-.09-.21a17.65,17.65,0,0,0-4.73-9.43l-.1-.24-2.07-3.94-.22-.9c-7.45-22.6-13.31-45.35-12.26-69.58.51-11.62,7.19-22.09,5.1-33.93,7.14-12,10.63-25.76,18.59-37.36,37.79-55.07,89.81-78.4,155.79-68.4,58.27,8.83,106,55.48,120.43,115.74.75,3.12,1.61,6.21,2.42,9.31a6.33,6.33,0,0,0,3,7.11C3227.74,1528.23,3228.19,1536.21,3229,1544.22Z"/><g class="cls-6"><path class="cls-4" d="M3535.33,1187.81c7.89-12.64,7.85-12.67-4.46-20.79-1.56-1.32-3.23-2.36-5.4-2.06a29.21,29.21,0,0,0-8.6-5.67l-6.14-3.89c-4-1.61-5.39-4-3.31-8.3,1-2,.89-4.56,1.28-6.86,3.14-9.37,3.58-19.13,3.71-28.85.05-4.36,1.55-6.3,5.78-7.28,10.43-2.41,20.71-5.43,31.12-7.85,4-.93,4.75-2.53,3.71-6.42-5.55-20.67-11-41.37-16.11-62.14-1.14-4.6-3.21-4.83-7.06-3.76-10.08,2.82-20.29,5.16-30.33,8.08-4.07,1.18-6.35.63-8.53-3.33a122.4,122.4,0,0,0-21.88-28.9c-3-2.91-3.12-5.19-1-8.6,5.47-8.9,10.49-18.09,16-27,2.34-3.77,2.43-6.06-1.78-8.48q-27.5-15.81-54.73-32.11c-3.89-2.33-5.73-1.48-7.74,2.12-5.24,9.33-10.86,18.44-16,27.8-2,3.58-4,4.29-8,3.14a119.83,119.83,0,0,0-35.18-5c-5.08.09-7-1.82-8.07-6.54-2.17-9.75-5.13-19.31-7.32-29-1.05-4.68-2.63-6.14-7.64-4.76q-30.26,8.31-60.73,15.83c-4.3,1.06-5.31,2.69-4.14,6.87,2.83,10.07,5.08,20.3,7.95,30.36,1.15,4,.89,6.38-3.17,8.61a127.28,127.28,0,0,0-29.45,22.36c-2.72,2.77-5,2.72-8.08.85-5.07-3-9.8-6.71-15.5-8.61-1.3-1-2.53-2.09-3.91-3-14.2-8.91-14.24-8.89-21.14,6.59l-1.05,2c-8.82,13-16.28,26.71-24.07,40.27-4.49,7.8-4.11,8.74,4,13.29,9.47,5.33,18.85,10.83,28.28,16.26.05,3.1-2.75,5.76-1.43,9.06-.25.9-.51,1.8-.76,2.7a8.85,8.85,0,0,0-1.74,7.17c0,1,0,1.9,0,2.85-2.5,5.58-2.55,11.61-2.23,17.43.33,6-2,8.28-7.61,9.47-9.51,2-18.8,5.07-28.3,7.13-5,1.08-5.77,3.14-4.5,7.81,5.35,19.7,10.6,39.43,15.36,59.28,1.47,6.12,3.92,7.3,9.08,4.43h0c9.73-1.08,18.83-4.78,28.34-6.77,2.46-.52,5-2.09,7.44-.06a35.22,35.22,0,0,0,6.75,11.16l1.81,2.55a32.49,32.49,0,0,0,7.42,9.69,1,1,0,0,0,.77.85l1.29,1.66c1,1.29,1.84,2.88,3.12,3.83,5.84,4.33,5.28,8.69,1.44,14.33-5.34,7.82-9.71,16.3-14.69,24.37-2.08,3.38-1.49,5.46,1.89,7.42,18.48,10.7,37,21.4,55.27,32.38,4.08,2.45,5.78,1,7.71-2.39,5.18-9.06,10.71-17.93,15.74-27.07,1.91-3.48,3.77-4.82,7.84-3.65a131.73,131.73,0,0,0,36.53,5.09c4.74,0,6,2,6.91,6,2.44,10.39,5.4,20.66,7.87,31,.86,3.62,2.41,4.62,6,3.62,11.86-3.34,23.78-6.51,35.68-9.74l1.9-.57,0,.06a26.28,26.28,0,0,0,10-2.65,39.35,39.35,0,0,0,12.2-3.1l2.73-.76c2.09-.37,5.68.76,3.76-3.69a.78.78,0,0,0-.27-1,2.4,2.4,0,0,0-.75-3l0-.49h0c-.8-7.57-3.14-14.75-5.54-21.91l-.75-3c-.19-.63-.37-1.27-.56-1.9l.05,0c-.4-2.62-.79-5.24-1.19-7.86l1.22-1.16,1.62-.89.18-.11,1.43-.71c10.73-5.38,19.9-12.94,28.45-21.19,3.34-3.23,5.75-3.59,9.71-1,8.8,5.64,18,10.71,27,16,2.23,1.31,4.59,3.19,6.56-.34,7.49-13.45,16.41-26.09,22.68-40.23-.66-.12-1.3-.26-1.9-.42.6.16,1.24.3,1.9.42C3531.72,1192.76,3533.72,1190.41,3535.33,1187.81Zm-221.5.35a6.19,6.19,0,0,0,1.51,1A6.19,6.19,0,0,1,3313.83,1188.16Zm125.89-46.42a152.35,152.35,0,0,1-11.47,20.35,1.4,1.4,0,0,0-.71,1.14h0l-11.91,12.59-.05,0-6.51,5.09h0l-1.49,1-2.58,1.85-1.91,1.16-1.84,1-1.47.81-2.1,1.11a9.5,9.5,0,0,0-5.22,2.42l-.26.12-1.58.68-.28.1-1.59.68-2.09.72-2,.78-3,.88-9.81,2.33-.1,0-27.54.56-2.85-.61a9.49,9.49,0,0,0-6.07-1.07l-17.1-6a13.59,13.59,0,0,0-6.33-3.45l-2.52-1.33c-8.15-6.22-16.1-12.68-23-20.28,0,0,0,0,0,.06-.39-.51-.78-1-1.16-1.55-.66-.84-1.31-1.69-2-2.54a7.51,7.51,0,0,0-2.88-4.34v.18c-.36-.62-.73-1.24-1.1-1.86s-.65-1.14-1-1.7l-1.05-1.9q-2.88-6.4-5.77-12.81l-1.21-3.57h0a37.29,37.29,0,0,0-2.74-11.2v-.14a10.49,10.49,0,0,0-.77-6.2v-.15c-.12-.87-.25-1.74-.37-2.61l.05-.55c.34-14.09,1.59-28,7-41.26,2.58-6.38,8.39-10.9,9.58-17.92,6.36-5.27,11.05-12.26,17.79-17.16,32-23.22,65.68-25.9,100.51-7.22,30.77,16.5,48.14,52,44.22,88.5-.2,1.89-.33,3.78-.5,5.68a3.74,3.74,0,0,0,.27,4.56C3442.19,1132.56,3440.86,1137.11,3439.72,1141.74Z"/></g><path class="cls-7" d="M3818,3830.57s8.84,71.68-25.43,82.18,78.5,25.61,78.5,25.61l22.11-96.18Z"/><path class="cls-7" d="M4149.68,3654.42c3.34,0,94.73,64.12,94.73,64.12s26.81-39.63-8.84-80.71C4201.66,3598.77,4160,3557,4160,3557Z"/><path class="cls-8" d="M3830.74,3099.23l-94.52,349.92s-28.2,36.48,39.8,68,349.91,152.57,349.91,152.57l58-107.79s-163.07-139.31-256.49-141,75.73-321.72,75.73-321.72Z"/><path class="cls-9" d="M4099.51,3651.27c1.24-.93,69.6-91,14.21-143.4L4178,3557l-77.8,101.7Z"/><polygon class="cls-10" points="3994.58 3438.52 4027.73 3454.05 4000.32 3615.56 3931.93 3585.2 3994.58 3438.52"/><path class="cls-5" d="M3845.67,3105.87s-44.78,340-36.49,359.86-1,333.33-1,333.33l109.61,24.88s73.83-316.75,80.47-359,84.57-359,84.57-359Z"/><path class="cls-9" d="M3846.18,3143.74s119,71,214.22,53.9l16.73-60.2Z"/><path class="cls-11" d="M3816.22,3789.91s110.43-21,131.22-94.36l-36.14,158.3Z"/><path class="cls-12" d="M1219.93,2082.11s6.76-68.49,57.49,8.41S1219.93,2082.11,1219.93,2082.11Z"/><path class="cls-7" d="M913.69,3443.62S897.47,3535,928.43,3776c0,0,21.37,118.34,17,143.77s66.7-29.53,66.7-29.53-26.53-312.88,31-429S913.69,3443.62,913.69,3443.62Z"/><path class="cls-13" d="M911.48,3464.07s-1.87,32.06-2,45.88,115.23,5,115.23,5l14.41-48.08Z"/><path class="cls-7" d="M1122,3425.91s-22.25,97.68.2,307.51c2.68,25,6.62,49.86,11.66,74.48,6.36,31,14.83,77.74,12,94.16-4.42,25.43,68.54-10.32,68.54-10.32s-20.52-332,37-448.14S1122,3425.91,1122,3425.91Z"/><path class="cls-13" d="M1114.14,3479.55s-1.87,32.06-2,45.88,115.24,5,115.24,5l14.41-48.09Z"/><rect class="cls-14" x="3544.95" y="2557.84" width="264.23" height="133.77" rx="11"/><rect class="cls-15" x="3544.95" y="2690.2" width="264.23" height="133.77" rx="11"/><rect class="cls-16" x="1608.92" y="1032.23" width="1298.2" height="2410.94" rx="165.03"/><path class="cls-1" d="M2227.31,3350.6a100.12,100.12,0,1,1,100.12-100.12A100.23,100.23,0,0,1,2227.31,3350.6Z"/><path class="cls-17" d="M2377.05,1128.19H2146.66a10.82,10.82,0,1,0,0,21.64h230.39a10.82,10.82,0,0,0,0-21.64Z"/><path class="cls-17" d="M2093.84,1153.47a14.31,14.31,0,0,1-10.17-4.25,17.15,17.15,0,0,1-1.8-2.24,12.67,12.67,0,0,1-1.37-2.45,16.51,16.51,0,0,1-.8-2.67,14.1,14.1,0,0,1,0-5.69,19.32,19.32,0,0,1,.87-2.67,15.9,15.9,0,0,1,1.3-2.53,13,13,0,0,1,1.8-2.17,13.94,13.94,0,0,1,2.16-1.8,15.85,15.85,0,0,1,2.53-1.29,16.68,16.68,0,0,1,2.67-.87,14.76,14.76,0,0,1,5.62,0,17.5,17.5,0,0,1,2.74.87,15.06,15.06,0,0,1,2.45,1.29,18.2,18.2,0,0,1,2.24,1.8,17.58,17.58,0,0,1,1.8,2.17,15.9,15.9,0,0,1,1.3,2.53,12.13,12.13,0,0,1,.79,2.67,12.35,12.35,0,0,1,.29,2.88,19,19,0,0,1-.21,2.81,16.68,16.68,0,0,1-.87,2.67,13,13,0,0,1-1.3,2.45,13.27,13.27,0,0,1-4,4,15.12,15.12,0,0,1-2.45,1.3,16.48,16.48,0,0,1-2.74.86A17,17,0,0,1,2093.84,1153.47Z"/><rect class="cls-1" x="1704.74" y="1243.71" width="1092.6" height="1815.46"/><rect class="cls-18" x="1704.74" y="1243.71" width="1092.6" height="184.51"/><path class="cls-19" d="M1844.93,1337.15a32.3,32.3,0,1,1-32.29-32.3A32.3,32.3,0,0,1,1844.93,1337.15Z"/><path class="cls-5" d="M1947.93,1337.15a32.3,32.3,0,1,1-32.29-32.3A32.3,32.3,0,0,1,1947.93,1337.15Z"/><path class="cls-19" d="M2050.94,1337.15a32.3,32.3,0,1,1-32.3-32.3A32.3,32.3,0,0,1,2050.94,1337.15Z"/><path class="cls-20" d="M2648.41,1032.23l-574.82,2411H1776.28a167.36,167.36,0,0,1-167.36-167.36V1195.64a163.41,163.41,0,0,1,163.41-163.41Z"/><rect class="cls-21" x="1731.67" y="1656.09" width="962.95" height="446.1" transform="translate(-528.54 923.97) rotate(-21.13)"/><rect class="cls-22" x="1681.04" y="1619.93" width="962.95" height="446.1" transform="translate(-518.91 903.29) rotate(-21.13)"/><rect class="cls-1" x="1742.44" y="1660.53" width="848.03" height="361.87" transform="translate(-518.1 904.61) rotate(-21.13)"/><polygon class="cls-14" points="2056.3 1760.94 2134.24 1954.96 2222.13 1805.71 2056.3 1760.94"/><path class="cls-16" d="M1008.53,3870.18S974,3888.94,937,3865.53c0,0-27-10.52-10.37,129.66,0,0,219.4,7.89,281-.41,0,0,22.8-56.34-54.07-69.73S1008.53,3870.18,1008.53,3870.18Z"/><path class="cls-23" d="M1206.78,3958.59s-281-9-285.72-32.45l5.37,49.42,284.45,2.15S1209.6,3963.87,1206.78,3958.59Z"/><path class="cls-1" d="M1207.58,3994.78s5.35-14.81,2.71-25l-286.85-5.05,4.07,34.14S1192.19,4000.67,1207.58,3994.78Z"/><path class="cls-24" d="M1016.32,4000.32c-46.81,0-84.78-.25-88.82-.28h-1.06l-4.36-36.56,1.38,0,287.76,5.06.23.88c2.71,10.47-2.51,25.13-2.73,25.75l-.19.52-.51.2C1198.35,3999.61,1094.89,4000.32,1016.32,4000.32Zm-87.74-2.68c18.17.11,259.06,1.54,278.06-3.81.88-2.65,4.47-14.3,2.69-22.89l-284.53-5Z"/><path class="cls-25" d="M1298.94,2125.78s231.66-302.93,275.88-328.36,84.88-21.6,123.09-34.09c13.45-4.4,49.36,3.17,35.28,7.28a99.76,99.76,0,0,0-20.45,8.29s-7.69,4.34-18.73,9.41a117.51,117.51,0,0,1-25,8.14c-15.25,3.21-42.79,14.33-14.31,51.83,27,35.5,13.51,35.42-.45,26.39-13.71-8.87-38.53-14.87-54.82-13.84l-11.34.71S1409,2196.53,1357,2181.05,1298.94,2125.78,1298.94,2125.78Z"/><path class="cls-13" d="M1305.61,2115.27l18.18-21.73s40.68,19.6,75.61,10.86c32.43-8.11,54.66-19.22,54.66-19.22s-59.39,86.48-80.15,94.22S1305.61,2115.27,1305.61,2115.27Z"/><path class="cls-26" d="M3825,2132.68s-26.79-46.71-51.46,18.87,54.15,81.29,54.15,81.29Z"/><path class="cls-7" d="M3902,2137.92s-110.51,1.36-119.84,60.64,4.36,59.91-32.49,81.93c0,0-12.61,4.57,8.36,21.5s23.29,28.07,15.87,48.21,10.62,43.5,64.33,35.39,48.65,10.38,48.65,10.38,8,46-26.09,92.22,97.47-13.75,97.47-13.75-9.58-70.05,37.38-103.09,35.3-137.14,35.3-137.14l-96.31-81Z"/><path class="cls-13" d="M3949.58,2395.05s4.7,56.33-20.1,66S3871,2480.9,3871,2480.9s74,3.33,87.4-11.05c0,0,2.07-2.82-1.64-44.76S3949.58,2395.05,3949.58,2395.05Z"/><path class="cls-13" d="M3998.41,2317.2s-55.88,31.26-51.68,58.79,10.79,88.89,10.79,88.89,5.24-66.15,16.16-79.79S3998.41,2317.2,3998.41,2317.2Z"/><path class="cls-27" d="M3834.64,2153.83s-21.9-92.61,52.61-64.63,22.78,96.63,22.78,96.63l-22.35-17.54a70.54,70.54,0,0,0-50.1-14.74Z"/><path class="cls-13" d="M3834.64,2153.83s57.66-4.08,81.82,40,20,56.27,26.32,66.82-62.15-23.19-69.69-59.32S3834.64,2153.83,3834.64,2153.83Z"/><path class="cls-27" d="M3933.38,2237.71s21.78,42.53,14.41,69.11c0,0,7-48.21,42.76-40.17S3933.38,2237.71,3933.38,2237.71Z"/><path class="cls-16" d="M3834.64,2153.83s-9.26-44.35,8.23-38.84c29.74,9.38,35.49,34,42.64,64.36a49.92,49.92,0,0,1,1.55,14c-1.31,21.58,14.26,45.45,66.22,60.56s69,55.73,23,91.66-7.73,73.93-7.73,73.93,16.1-40,49.2-45.39S4146,2299,4117.64,2209.82c-11.29-35.51-26.14-35.57-33.33-50.94-24.78-53.06-131.09-139-239.9-85.66,0,0-48.16,22.19-19.23,79.17Z"/><path class="cls-28" d="M3993.11,2277s51,28.54,1.18,81.81c0,0-21.44,28.09-13.78,40.25l-12,20.39s-39.64-39.77,7.73-73.93C3976.28,2345.55,4017,2320.16,3993.11,2277Z"/><path class="cls-16" d="M4088.62,2165.68s35.71,49,39.56,67.45C4128.18,2233.13,4129.85,2180.91,4088.62,2165.68Z"/><path class="cls-7" d="M1177.37,2124.12s54.72-61.36,139.3-18.25c0,0,33.17,26.54,81.26,8.3l-8.45,29.57s84.73,65,53.22,134.6-154.22,59.71-144.27,185.74-121.06,19.9-121.06,19.9,44.77-19.9,6.63-87.89S1130.93,2140.7,1177.37,2124.12Z"/><path class="cls-13" d="M1246.3,2091.06s52.88,47.13,36.31,86.12-18,90.11,16.33,96.74c0,0-51.92,18.8-71.27,7.19S1187.54,2089.52,1246.3,2091.06Z"/><path class="cls-13" d="M1247.15,2294.83s-16.26,25.53,8.29,41c16.67,10.51,22.12,20.21,25.22,37.65a135.38,135.38,0,0,1-1.1,51.41c-2.36,11.33-4.51,24.45-3.51,31.28,0,0-65.36,26.49-85.2,16.23,0,0,25.49-31.26-4.09-86.26S1243.68,2284.23,1247.15,2294.83Z"/><path class="cls-29" d="M923.09,2909.75s-32.62,144.71-37.6,557.64c0,0,94.53,34,165.84,19.1l87-516.37Z"/><path class="cls-16" d="M1007.32,2948.18s75.52,471.12,67.23,545.74l5,.88a555.52,555.52,0,0,0,197.32-.88h0s33.69-454.47,27.05-495.93S1007.32,2948.18,1007.32,2948.18Z"/><path class="cls-30" d="M910,2941.55s76.07,151.72,391.69,168.66l2.25-102.93S911.08,2889.53,910,2941.55Z"/><path class="cls-16" d="M1215.27,3876.28s-34.57,18.76-71.56-4.66c0,0-27-10.52-10.37,129.66,0,0,219.4,7.9,281-.4,0,0,22.79-56.35-54.07-69.73S1215.27,3876.28,1215.27,3876.28Z"/><path class="cls-1" d="M1335.68,3925.9s-6.42,34.25,0,48.51l81.35,1.43S1419.92,3933.88,1335.68,3925.9Z"/><path class="cls-23" d="M1413.52,3964.68s-281-9-285.72-32.45l5.37,49.42,284.46,2.15S1416.35,3970,1413.52,3964.68Z"/><path class="cls-1" d="M1414.33,4000.88s5.34-14.81,2.7-25l-286.85-5,4.07,34.13S1398.94,4006.77,1414.33,4000.88Z"/><path class="cls-24" d="M1223,4006.42c-46.77,0-84.67-.26-88.71-.28h-1.06l-4.36-36.56,1.38,0,287.77,5.06.23.89c2.7,10.46-2.52,25.13-2.74,25.75l-.19.51-.51.2C1405.09,4005.7,1301.53,4006.42,1223,4006.42Zm-87.63-2.69c18.18.12,259.06,1.54,278.06-3.81.88-2.65,4.47-14.29,2.69-22.89l-284.53-5Z"/><path class="cls-16" d="M3808.49,3895.34s33.48,15.37,69.31-3.82c0,0,26.15-8.62,10,106.26,0,0-212.48,6.47-272.12-.33,0,0-22.08-46.18,52.36-57.15S3808.49,3895.34,3808.49,3895.34Z"/><path class="cls-23" d="M3616.5,3967.79s272.15-7.37,276.71-26.6l-5.2,40.51-275.49,1.76S3613.77,3972.12,3616.5,3967.79Z"/><path class="cls-24" d="M3615.72,3997.45s-5.18-12.14-2.62-20.52l277.8-4.13-3.94,28S3630.63,4002.28,3615.72,3997.45Z"/><path class="cls-16" d="M4214.13,3703.72s27.36-24.68,23.91-65.17c0,0,2.42-27.42,101.56,32.8,0,0-78.09,197.72-107.92,249.81,0,0-51.15,2-31.78-70.7S4214.13,3703.72,4214.13,3703.72Z"/><path class="cls-23" d="M4204.74,3908.71s100.86-252.88,85-264.67l35.14,20.8-107.33,253.72S4207.64,3912.93,4204.74,3908.71Z"/><path class="cls-24" d="M4231.68,3921.16s-13.2,0-19.88-5.72l106.07-256.78,24.13,14.68S4242,3909.37,4231.68,3921.16Z"/><path class="cls-7" d="M1398.48,2421.52s66.53-27.72,132.67-62.8c0,0,56.18-42.35,89.7-60.77s165.8-107.86,165.8-107.86,8.82-22.8,38.36-37.27c0,0,26.94-25.94,28-11.57.46,6-19.26,21.62-21.24,27a11.73,11.73,0,0,0,10.7,15.76c14.77.46,64-9.49,86.08-13.65,4.05-.76,9.08,5.86,5.9,8.47-8.2,6.72-36.31,25.69-46.43,29.85-13.61,5.61-41.28,21.38-79.42,21l-45.33,43.12s-142.47,140.88-185.69,156.67-176.39,96.28-176.39,96.28Z"/><path class="cls-13" d="M1430,2406.54s10.91,34.92,29.53,51.18c21.83,19.07,58.24-.11,58.24-.11l-116.49,68.16,21.83-115.42Z"/><rect class="cls-17" x="1844.93" y="2331.16" width="874.85" height="286.35" rx="3.75"/><rect class="cls-31" x="2162.36" y="2404.43" width="530.5" height="29.77" rx="1"/><rect class="cls-31" x="2162.36" y="2474.34" width="314.6" height="29.77" rx="1"/><circle class="cls-31" cx="1999.67" cy="2461.14" r="94.51"/><path class="cls-32" d="M3873.18,2464.88s19.46,37.94,85.53-12.39c0,0,6.4-5.35,13.75,8.65s22.51,51.59,43.67,66.33,70.44,367.78,106.71,455.68,16.36,167.21,16.36,167.21-245.66,39.92-340.19-29.73l-4.94-288.76-103.18-109.82L3825,2505.7S3851.3,2463.47,3873.18,2464.88Z"/><path class="cls-33" d="M3796.49,2816.9s30.75,5.62,41.81-2.24l79.47-124.46s-44.09,82.7-56.62,194c-5.12,45.44-5.5,191.79-64.66,200.55Z"/><rect class="cls-34" x="3544.95" y="2822.57" width="264.23" height="133.77" rx="11"/><rect class="cls-35" x="3544.95" y="2954.93" width="264.23" height="133.77" rx="11"/><rect class="cls-4" x="3009.3" y="3340.14" width="264.23" height="133.77" rx="11"/><rect class="cls-36" x="2964.53" y="3472.5" width="264.23" height="133.77" rx="11"/><rect class="cls-5" x="2964.53" y="3604.87" width="264.23" height="133.77" rx="11"/><rect class="cls-15" x="2648.77" y="3764.11" width="264.23" height="133.77" rx="11" transform="translate(5572.33 7654.32) rotate(179.84)"/><rect class="cls-34" x="2648.41" y="3631.75" width="264.23" height="133.77" rx="11" transform="translate(5571.24 7389.59) rotate(179.84)"/><rect class="cls-35" x="2648.04" y="3499.39" width="264.23" height="133.77" rx="11" transform="translate(5570.14 7124.87) rotate(179.84)"/><path class="cls-7" d="M3730.69,2733.1s-84.76,255-103.19,291.88-38.32,63.38-36.11,73.7,46.43,18.43,82.55,15.48c0,0,16.95-12.53,8.1-53.07,0,0-6.69-24.73,19.17-60.44,46.43-64.12,73.7-137.83,73.7-137.83s32.43-67.07,45-100.23S3730.69,2733.1,3730.69,2733.1Z"/><path class="cls-13" d="M3725.88,2757.09s1.49,35.9,24.16,63.54,11.59,73.81,11.59,73.81l44.79-99.24Z"/><path class="cls-32" d="M3690.89,2725s42.75,34.38,66.33,69.55,81.08,20.12,81.08,20.12,65.6-129.53,89.18-141.26Z"/><path class="cls-22" d="M1190.85,2472.4s13.2,12.88,108.09-24.9c8.33-3.32,108.94-50.86,108.94-50.86s34.27,2.21,28.74,121.61c0,0,1.28,24.17,12.8,37.52l-78,49.82s-4.93,276.89-55.79,430.56c0,0-281.61,2.79-411-96.71,0,0,168.25-493.05,225.74-567.12s53.62,23.77,53.62,23.77S1212.26,2435.76,1190.85,2472.4Z"/><path class="cls-37" d="M1116,2395.61s67.52,19.52,74.86,76.79c0,0,23.55-33.19-3.53-87.92S1125.84,2376.29,1116,2395.61Z"/><path class="cls-16" d="M1254.2,2404.38s-223.32,1.11-187.94-128.25c0,0-79.61-79.6,33.16-179.1s175.79-30.72,178-6.51c0,0-45.33-53.19-45.33-18.92s58.6,64.13,39.8,121.62-.07,86.23,27,80.7c0,0-20.41,19.9-42.53,19.9s-49.75,17.69-11.05,47.54,31,63,31,63Z"/><path class="cls-37" d="M1371.39,2605.59s-39.06,14-45,30.22,26.44,212.34,26.44,212.34S1377.29,2626.23,1371.39,2605.59Z"/><path class="cls-13" d="M1605.81,1860.76s-18-5.3-48.47,56.34C1557.34,1917.1,1570.09,1839,1605.81,1860.76Z"/><path class="cls-13" d="M1647.93,1838.08s-20-28.22,21.08-41.63,50-20.66,50-20.66-93,14.26-83,43C1636,1818.79,1638.49,1831.21,1647.93,1838.08Z"/><path class="cls-13" d="M1837.49,2161.05s-44.87,35.42,27.36,20.52C1864.85,2181.57,1815.66,2190.06,1837.49,2161.05Z"/><rect class="cls-34" x="1844.28" y="2711.73" width="199" height="199" rx="11"/><rect class="cls-15" x="2113.64" y="2711.73" width="199" height="199" rx="11"/><rect class="cls-14" x="2377.45" y="2757.09" width="199" height="199" rx="11" transform="translate(1333.18 -747.18) rotate(23.32)"/><path class="cls-38" d="M3808.48,3787.81l112.37,22.89s9.58-3,5.89,16.55-9.58,51.6-9.58,51.6l-128.24-20.27S3788.92,3777.5,3808.48,3787.81Z"/><path class="cls-38" d="M4164.53,3546s-35.63,91.94-71.85,109.37c0,0-25.9,8.59,54.44,43.23,0,0,67.07-93.61,63.39-131.93C4210.51,3566.71,4159.84,3523.15,4164.53,3546Z"/><rect class="cls-1" x="1229.73" y="3882.04" width="12.71" height="41.63" rx="2.31"/><rect class="cls-1" x="1261.53" y="3896.41" width="12.71" height="38.03" rx="2.31"/><rect class="cls-1" x="1292.21" y="3906.97" width="12.71" height="33.4" rx="2.31"/><rect class="cls-1" x="1029.63" y="3877.8" width="12.71" height="41.63" rx="2.31"/><rect class="cls-1" x="1061.43" y="3892.18" width="12.71" height="38.03" rx="2.31"/><rect class="cls-1" x="1092.11" y="3902.73" width="12.71" height="33.4" rx="2.31"/><polygon class="cls-21" points="1705.73 1825.51 2523.3 1588.55 2496.76 1519.86 1705.73 1825.51"/><path class="cls-3" d="M3505,2798.76c-1.32-6.19-7.43-7-12.49-6.15-14.75,2.34-24.06-5.62-33.94-15q-79.3-75.08-159.46-149.25c-6.75-6.29-11.34-12.3-12.28-22.67-2.21-24.44-23.71-33.83-45.06-21.25-5.28,3.11-9.45,7.54-16.14,8.95-25.83,5.41-44.24,21.59-59.94,42.08-9.66,12.62-8.52,20.24,7,25.41,5.87,2,11.21,5.48,16.79,8.3-.85,17.2,6.59,30,22,37,14.07,6.41,27.7,4.43,39.37-6.54,4.09,2,8.22,3.86,12.28,5.89,24.51,12.24,24,12.12,31.34-14.47,4.44-16.18,2.48-32.77,3.46-51.67l162.39,152c-7.74.65-11.77.5-15.55,1.4-8.17,2-11.5,8.09-4.14,12.86,9.59,6.21,2.58,10.28-.11,14.43q-59.28,91.56-119,182.84c-2.72,4.18-4.65,9.31-11,9.46-6,.15-12.67,1.06-11.1,9,1.46,7.38,8.77,5.5,14.21,5.74,6,.26,12.58-1.6,12.77,8.64.16,8.68-3.23,11.17-11.21,13-25,5.86-44.18,20-55.88,43.41,25.68,5.6,51.68,2.1,77.49,2.2,23.55.08,47.32,3.34,70.74-2.07-12.2-23.79-31.68-38.4-57.54-44-7.69-1.66-10.25-4.51-10.19-12.24.07-9.85,6.24-9,12.64-9,10.89-.05,21.55.06,10-15.36-3-4,2.61-8,4.89-11.52q58.91-90.87,118.15-181.51c2.67-4.09,4.08-9.73,10.2-10.62C3501.21,2807.34,3506.42,2805.36,3505,2798.76Zm-32.86,23.64c-38.23,59.07-77,117.8-114.74,177.15-7.28,11.44-15.17,15.55-30.12,11l93.62-143.92c9.59-14.75,20-29.05,28.5-44.39,6.8-12.27,15.3-17.31,28.92-13.13C3479.55,2815,3474.75,2818.37,3472.15,2822.4Z"/><path class="cls-22" d="M1069.78,1799.31H528.93A29,29,0,0,0,500,1828.24v139.42a29,29,0,0,0,28.93,28.93H972.61l22.95,38.29,9.11-38.29h65.11a29,29,0,0,0,28.93-28.93V1828.24A29,29,0,0,0,1069.78,1799.31Z"/><rect class="cls-1" x="543.03" y="1835.23" width="512.65" height="16.58" rx="3.01"/><rect class="cls-1" x="543.03" y="1866.92" width="512.65" height="16.58" rx="3.01"/><rect class="cls-1" x="543.03" y="1898.62" width="314.93" height="16.58" rx="3.01"/><path class="cls-22" d="M3878,1777.58H3466.07c-12.12,0-22,15.71-22,34.91v168.24c0,19.2,9.91,34.91,22,34.91H3804l17.48,46.22,6.93-46.22H3878c12.12,0,22-15.71,22-34.91V1812.49C3900,1793.29,3890.1,1777.58,3878,1777.58Z"/><rect class="cls-1" x="3469.3" y="1821.17" width="358.38" height="14.5" rx="2.64"/><rect class="cls-1" x="3469.3" y="1848.89" width="358.38" height="14.5" rx="2.64"/><rect class="cls-1" x="3469.3" y="1876.61" width="220.15" height="14.5" rx="2.64"/><path class="cls-15" d="M4041.8,1967c-1.73-9-3.46-18-7.35-26.45a162.67,162.67,0,0,0-13.68-23.86c-11.36-16.52-14.24-34.49-7.52-53.51,6.14-17.38,18.21-29.18,35.44-35.74,30.51-11.63,66.21,5.86,76,37.21,6.08,19.59,2.45,37.42-9.29,54-9.54,13.46-16.79,28-18.83,44.65a25.86,25.86,0,0,1-1,3.69c-3.81-.09-7.61-.25-11.42-.24C4070,1966.78,4055.9,1966.89,4041.8,1967Zm64.55-81.18c0-2.68,0-5.49-2.7-6.77s-5-.45-7.48,1.2c-6.25,4.1-7.43,11-9.6,17.16-1.66,4.69-5.39,7.37-10,4.92-2.48-1.31-3.35-3.1-1.25-5.53a13.55,13.55,0,0,0,2-2.77c2.29-4.58,1.17-12.11-2.71-15.12-1.64-1.27-3.66-3.32-6.16-2.33-3.76,1.5-6.36,4.17-6.65,8.48-.27,4-.08,7.93,2.71,11.24,1.1,1.31,1.64,2.93-.07,4-2.27,1.38-4.53,3.13-7.26,3.29-3,.18-5.65-.19-6.62-4.11s-2.78-7.34-4.29-11-4.48-6.09-8.07-7.77a2.77,2.77,0,0,0-3.16.37c-4.61,3.35-5.34,8.26-2.12,13,2.61,3.82,6.38,6.2,10,8.76,2,1.42,4.2,2.87,4.64,5.38.75,4.26,2.49,8.2,3.18,12.52,1.26,7.9,2.68,15.8,4.34,23.65,1.24,5.87,1.11,12.14,2,18.19.21,1.37.37,2.69,2.14,2.49s1.12-1.64,1-2.69c-.61-8.7-.88-17.36-2.8-26-1.83-8.22-1.82-16.84-4.7-25-.75-2.12.33-3.43,2.77-3.3a14.71,14.71,0,0,0,9-2.47c1.63-1.06,3.65-2.36,5.7-1.08a16.58,16.58,0,0,0,9.89,2.39c3.1-.15,3.62,1.23,3.42,4.29-.38,5.86-1.3,11.69-2.2,17.42-1.07,6.75-.26,13.79-3.08,20.3-1.82,4.21-.71,9.09-2.65,13.38a1.93,1.93,0,0,0,1.74,2.79c1.24.13,2.72-.19,2.53-1.58-.53-4,2.28-6.94,2.63-10.64.9-9.58,1.91-19.16,3.62-28.65.51-2.87,1.84-5.58,1.63-8.61-.42-6.16,2.45-10,7.79-13.19C4101.74,1898.81,4105.8,1893.25,4106.35,1885.8Z"/><path class="cls-39" d="M4041.8,1967c14.1-.09,28.2-.2,42.3-.25,3.81,0,7.61.15,11.42.24,5.5,3.51,5.73,7.21.79,12.37,4.64,4.38,4.66,7.25,0,12.3,2.89,2,4.32,4.69,3,8.17s-4.38,4.38-7.8,4.1a3.91,3.91,0,0,0-4.06,2.18c-.06.11-.17.19-.23.31-5,10.53-14.06,11.79-24.18,10.66a11.54,11.54,0,0,1-8.23-4.33c-1.56-2-3.14-4-4.54-6.16-1.22-1.86-2.61-2.91-5-2.68-3.36.33-6.09-.83-7.33-4.22s.27-5.91,3.17-8.06c-1.73-1.79-3.7-3.53-3.62-6.29a7.31,7.31,0,0,1,3.61-5.93C4036,1974.16,4036.25,1970.57,4041.8,1967Z"/><path class="cls-15" d="M4065.08,1791.69c.52-4.94-.7-10,.78-14.85.47-1.54.6-3.58,2.77-3.62s2.55,1.89,3,3.44a11.94,11.94,0,0,1,.65,3.73c-.08,7-.24,14-.4,21a17.12,17.12,0,0,1-.41,3c-.37,1.72-1.07,3.26-3.2,3.11s-3.14-1.72-3.2-3.65C4065,1799.86,4065.08,1795.77,4065.08,1791.69Z"/><path class="cls-15" d="M3989.44,1969.13c-1.74-.35-2.61-1.4-2.16-3.24a9.24,9.24,0,0,1,2.6-4.6c5.61-5.38,11.17-10.8,16.85-16.11,1.44-1.34,3.2-3.12,5.29-1.1s1.06,4.07-.6,5.7q-8.68,8.61-17.56,17A8,8,0,0,1,3989.44,1969.13Z"/><path class="cls-15" d="M4150.58,1808.83a4.71,4.71,0,0,1-1.68,3.35c-6,5.93-12,11.8-18,17.67a5.21,5.21,0,0,1-1.24.89c-1.52.76-3.16,1.56-4.56,0-1.26-1.39-.43-2.82.35-4.21,2.13-3.78,5.63-6.23,8.7-9.1,3.63-3.4,6.74-7.37,10.84-10.26C4147.56,1805.33,4150.43,1806.26,4150.58,1808.83Z"/><path class="cls-15" d="M4147,1969.25c-1.71,0-2.85-1.22-3.87-2.24-5.4-5.39-10.77-10.81-15.92-16.43-1.57-1.71-4.33-4.06-1.75-6.49,2.38-2.23,4.81.11,6.54,1.85,5.66,5.67,11.19,11.48,16.68,17.31,1.1,1.18,2.18,2.59,1.16,4.45A2.9,2.9,0,0,1,4147,1969.25Z"/><path class="cls-15" d="M3989.44,1806.18a7.26,7.26,0,0,1,5.25,2.39c5.72,5.82,11.29,11.78,16.87,17.73,1.32,1.42,2,3,.34,4.71-1.82,1.89-3.48,1.07-5-.41q-8.65-8.65-17.2-17.42a11.69,11.69,0,0,1-2.18-3.56C3986.57,1807.3,3987.76,1806.32,3989.44,1806.18Z"/><path class="cls-15" d="M3971.69,1890.75c-3.7,0-7.4.06-11.09,0a12.44,12.44,0,0,1-3.73-.65c-1.19-.42-2.38-1.15-2.34-2.69s1.22-2.24,2.46-2.58a16.9,16.9,0,0,1,4.51-.7c7.52.08,15,.24,22.56.44,2.08,0,4.37.26,4.43,3.07.08,3.06-2.33,3.28-4.56,3.32-4.08.08-8.16,0-12.24,0Z"/><path class="cls-15" d="M4166.2,1890.78c-4.08,0-8.18.11-12.26,0-2.11-.09-4.81-.22-5-3.06-.17-3,2.62-3.35,4.68-3.36,8.67,0,17.35.2,26,.41,1.87,0,3.2,1,3.17,3.08s-1.35,2.81-3.25,3C4175.13,1891.25,4170.67,1890.88,4166.2,1890.78Z"/><path class="cls-1" d="M4106.35,1885.8c-.55,7.45-4.61,13-10.69,16.61-5.34,3.15-8.21,7-7.79,13.19.21,3-1.12,5.74-1.63,8.61-1.71,9.49-2.72,19.07-3.62,28.65-.35,3.7-3.16,6.69-2.63,10.64.19,1.39-1.29,1.71-2.53,1.58a1.93,1.93,0,0,1-1.74-2.79c1.94-4.29.83-9.17,2.65-13.38,2.82-6.51,2-13.55,3.08-20.3.9-5.73,1.82-11.56,2.2-17.42.2-3.06-.32-4.44-3.42-4.29a16.58,16.58,0,0,1-9.89-2.39c-2.05-1.28-4.07,0-5.7,1.08a14.71,14.71,0,0,1-9,2.47c-2.44-.13-3.52,1.18-2.77,3.3,2.88,8.11,2.87,16.73,4.7,25,1.92,8.66,2.19,17.32,2.8,26,.08,1.05.83,2.48-1,2.69s-1.93-1.12-2.14-2.49c-.91-6-.78-12.32-2-18.19-1.66-7.85-3.08-15.75-4.34-23.65-.69-4.32-2.43-8.26-3.18-12.52-.44-2.51-2.62-4-4.64-5.38-3.65-2.56-7.42-4.94-10-8.76-3.22-4.72-2.49-9.63,2.12-13a2.77,2.77,0,0,1,3.16-.37c3.59,1.68,6.5,4,8.07,7.77s3.35,7.19,4.29,11,3.63,4.29,6.62,4.11c2.73-.16,5-1.91,7.26-3.29,1.71-1,1.17-2.65.07-4-2.79-3.31-3-7.23-2.71-11.24.29-4.31,2.89-7,6.65-8.48,2.5-1,4.52,1.06,6.16,2.33,3.88,3,5,10.54,2.71,15.12a13.55,13.55,0,0,1-2,2.77c-2.1,2.43-1.23,4.22,1.25,5.53,4.61,2.45,8.34-.23,10-4.92,2.17-6.13,3.35-13.06,9.6-17.16,2.51-1.65,4.94-2.42,7.48-1.2S4106.37,1883.12,4106.35,1885.8Zm-4.69.56c-.08-1.08,0-2.22-1.14-2.7s-1.7.34-2.29,1c-3.17,3.56-4.89,8-7.14,12.09a2.15,2.15,0,0,0,.65,2.77,2,2,0,0,0,2.48-.3C4098.52,1896,4100.75,1891.52,4101.66,1886.36Zm-35.31,2.56c-.16,2.11-.12,5.38,2.43,6.41,1.8.73,3.59-2.1,4.58-3.86,1.56-2.8.76-5.63-1.2-8.12-.93-1.18-2.08-2.19-3.55-1.44C4066,1883.26,4066.45,1885.93,4066.35,1888.92Zm-29.08-3.9a4.46,4.46,0,0,0-2.87,2.39c-.56.85-1.1,1.86-.15,2.76q3.33,3.11,6.78,6.08a1.78,1.78,0,0,0,2.44.09,1.3,1.3,0,0,0,.35-1.72c-1.56-1.93-1.65-4.5-2.92-6.48A6.62,6.62,0,0,0,4037.27,1885Z"/><path class="cls-15" d="M4101.66,1886.36c-.91,5.16-3.14,9.6-7.44,12.85a2,2,0,0,1-2.48.3,2.15,2.15,0,0,1-.65-2.77c2.25-4.1,4-8.53,7.14-12.09.59-.65,1.3-1.42,2.29-1S4101.58,1885.28,4101.66,1886.36Z"/><path class="cls-15" d="M4066.35,1888.92c.1-3-.39-5.66,2.26-7,1.47-.75,2.62.26,3.55,1.44,2,2.49,2.76,5.32,1.2,8.12-1,1.76-2.78,4.59-4.58,3.86C4066.23,1894.3,4066.19,1891,4066.35,1888.92Z"/><path class="cls-15" d="M4037.27,1885a6.62,6.62,0,0,1,3.63,3.12c1.27,2,1.36,4.55,2.92,6.48a1.3,1.3,0,0,1-.35,1.72,1.78,1.78,0,0,1-2.44-.09q-3.45-3-6.78-6.08c-.95-.9-.41-1.91.15-2.76A4.46,4.46,0,0,1,4037.27,1885Z"/></g></g></svg>