<svg xmlns="http://www.w3.org/2000/svg" xmlns:xlink="http://www.w3.org/1999/xlink" viewBox="0 0 5000 5000"><defs><style>.cls-1{fill:#ffc1c2;}.cls-2{fill:#f4aeb5;}.cls-3{fill:#155c8f;}.cls-4{fill:#71ccc2;}.cls-5{fill:#3b58a8;}.cls-6{fill:#f05831;}.cls-7{fill:#dd442f;}.cls-8{isolation:isolate;}.cls-9{fill:#fff;}.cls-10{fill:#9cafe5;}.cls-11{fill:url(#linear-gradient);}.cls-12{opacity:0.2;}.cls-13,.cls-62{fill:#d7e0ff;}.cls-14{fill:#b2c3fb;}.cls-15{fill:#000d3a;}.cls-16{fill:#cdd9fc;}.cls-17{fill:#152d54;}.cls-18{clip-path:url(#clip-path);}.cls-19{clip-path:url(#clip-path-2);}.cls-20{clip-path:url(#clip-path-3);}.cls-21,.cls-23{fill:#7799f2;}.cls-21,.cls-22{opacity:0.5;}.cls-21,.cls-22,.cls-26,.cls-32,.cls-34,.cls-39{mix-blend-mode:multiply;}.cls-24{fill:#384c94;}.cls-25{clip-path:url(#clip-path-4);}.cls-26{fill:#cc8b77;}.cls-26,.cls-52{opacity:0.35;}.cls-27{clip-path:url(#clip-path-5);}.cls-28{fill:#d69644;}.cls-29{clip-path:url(#clip-path-6);}.cls-30{fill:#6b2828;}.cls-31{clip-path:url(#clip-path-7);}.cls-32,.cls-33{fill:#d64170;}.cls-32{opacity:0.3;}.cls-35{clip-path:url(#clip-path-8);}.cls-36{clip-path:url(#clip-path-9);}.cls-37{fill:#c23360;}.cls-38{clip-path:url(#clip-path-10);}.cls-39{fill:#fdb483;opacity:0.39;}.cls-40{fill:#4d5ba3;}.cls-41{fill:#804d4c;}.cls-42{fill:#557ed6;}.cls-43{fill:#07ae7b;}.cls-44{fill:#0dcc8c;}.cls-45{clip-path:url(#clip-path-11);}.cls-46{clip-path:url(#clip-path-12);}.cls-47{clip-path:url(#clip-path-13);}.cls-48{fill:#2e77a3;}.cls-49{fill:#0f4c72;}.cls-50{clip-path:url(#clip-path-14);}.cls-51,.cls-52{fill:#4ea89b;}.cls-53{fill:#e44771;}.cls-54{fill:#9dafd6;}.cls-55{fill:#bcc6dd;}.cls-56{fill:#a3b5e5;}.cls-57{fill:#89a6e5;}.cls-58{fill:#079968;}.cls-59{fill:none;stroke:#000;stroke-miterlimit:10;}.cls-60{fill:#ebeef7;}.cls-61{opacity:0.3;}.cls-62{opacity:0.4;}</style><linearGradient id="linear-gradient" x1="2388.08" y1="2358.42" x2="2474.88" y2="3231.84" gradientUnits="userSpaceOnUse"><stop offset="0" stop-color="#fff"/><stop offset="1" stop-color="#eaf0ff"/></linearGradient><clipPath id="clip-path"><path class="cls-1" d="M3433.16,3240.89s-29.62-9.08-43.15,23.67l66.87,74.68s36.72,55.19,31.51,66.34-24.26,40.29,1.63,19.78,34.51-27.35,28.57-43.72-15.31-37-15.31-37l38.51,39.72s-34-78.39-71.07-63.08"/></clipPath><clipPath id="clip-path-2"><path class="cls-1" d="M3431.07,3276.27s-19-24.46-48.92-5.44l11.8,99.55s-1.68,66.27-12.35,72.4-43,19-10,17.12,44-2.54,48.51-19.35,8.76-39.1,8.76-39.1l8.68,54.63s17.21-83.7-21.9-92.47"/></clipPath><clipPath id="clip-path-3"><path class="cls-5" d="M3470.49,2498.64s67.29,55.6,61.17,220.77-67.29,526.08-97.87,599.49c0,0-55.06,6.12-61.18-6.12,0,0-6.11-593.37,6.12-630.07,0,0-116.23-79.53-110.11-152.93S3470.49,2498.64,3470.49,2498.64Z"/></clipPath><clipPath id="clip-path-4"><path class="cls-1" d="M3433.79,2175s-35.33-48.27-16.31-94.47L3352.26,2105s10.87,59.79-34.7,70c-21.52,4.82,12.23,42.82,12.23,42.82h79.53Z"/></clipPath><clipPath id="clip-path-5"><path class="cls-6" d="M3433.79,2175s-61.18,42.82-116.23,0c0,0-16.94-2.07-36,11.52-22.64,16.17-24.46,76.63-24.46,122.29,0,85.64,11.48,221,11.48,221S3336,2618.6,3471.83,2499c0,0-31.93-61-25.81-79.36s42.82-85.65,42.82-85.65,18.35-97.87,61.17-97.87C3550,2236.15,3452.14,2193.33,3433.79,2175Z"/></clipPath><clipPath id="clip-path-6"><path class="cls-1" d="M2224.15,3441.76l-58.69,57.14s10.05,25.39-45.47,67.72c0,0-132.56-194.87-123.57-200.69s80.94,56,80.94,56l53.17,23,55.78-61.64Z"/></clipPath><clipPath id="clip-path-7"><path class="cls-7" d="M2753.42,3033.55s-203.49,123.17-251.68,133.88c0,0-123.17,171.36-283.82,283.82L2159,3392.34s246.33-380.21,321.31-396.28S2742.71,3006.78,2753.42,3033.55Z"/></clipPath><clipPath id="clip-path-8"><path class="cls-1" d="M2582.06,3408.41l16.07,80.32s26.77,5.36,32.13,75c0,0-235.63,5.36-235.63-5.35s91-37.49,91-37.49l48.2-32.13-21.42-80.32Z"/></clipPath><clipPath id="clip-path-9"><path class="cls-6" d="M3021.65,2959.16s-.47,144-530.62,90.46c0,0,80.32,128.52,107.1,369.5l-96.39,21.42s-180.17-365.48-151.89-521.1a13.65,13.65,0,0,1,10.81-10.86c43.59-8.69,238.24-45.77,366-41C2871.24,2872.9,3021.65,2959.16,3021.65,2959.16Z"/></clipPath><clipPath id="clip-path-10"><path class="cls-1" d="M2946.52,2380.74l5,79.82s-48.19,42.84-85.68,0l5.36-69.62Z"/></clipPath><clipPath id="clip-path-11"><path class="cls-2" d="M1166.55,2993.24s-25.51-60.71,48-55.87l189,534.85s36.68,70.3,51.38,71.27,56.22-2.19,19.79,13.11-48.57,20.41-62.29,4.74-30-37.39-30-37.39l19.44,63.26s-62.54-80.86-25.15-110.86c0,0-207.43-255.69-197.13-367.15a49.37,49.37,0,0,0,2.91-44.08c-10.2-24.29-15.91-71.88-15.91-71.88"/></clipPath><clipPath id="clip-path-12"><path class="cls-1" d="M1056.89,2937.07s98.77-32.93,164.62,0l-32.92,566.3s6.58,79,19.75,85.61,52.68,19.75,13.17,19.75-52.68,0-59.26-19.75-13.17-46.1-13.17-46.1l-6.59,65.85s-26.34-98.77,19.76-111.94c0,0-92.19-316.08-39.51-414.85,0,0-171.21,6.58-171.21-19.76s98.77-125.11,98.77-125.11"/></clipPath><clipPath id="clip-path-13"><path class="cls-3" d="M734.23,2884.39s-65.85,85.6-26.34,151.45,329.24,46.1,329.24,46.1,32.93-138.29,138.29-158c0,0-223.89-39.51-302.91-19.76S734.23,2884.39,734.23,2884.39Z"/></clipPath><clipPath id="clip-path-14"><path class="cls-4" d="M882.82,2445.7s-61.82,15.45-77.28,123.64,7.73,208.65-85,332.29c0,0-18.71,115.32,213.12-.59,0,0,126.89-266,3.25-430.23C936.91,2470.81,906,2476.61,882.82,2445.7Z"/></clipPath></defs><title>Asset 5</title><g class="cls-8"><g id="Layer_2" data-name="Layer 2"><g id="Layer_1-2" data-name="Layer 1"><rect class="cls-9" width="5000" height="5000"/><g id="_5" data-name="5"><path class="cls-10" d="M4500,2662.17a.07.07,0,0,1-.06,0l-.18-.18Z"/><path class="cls-11" d="M4139.54,3593.8c-153.8,240.45-1598.32,18.16-2572.89,104.35S397.09,3591.94,543.46,3446.22s445.2-253.7,602.69-650.78c12.8-246.9,53.88-501.42,115.34-708.86,26.52-89.65,56.88-170.51,90.39-238.17,1.89-3.84,3.79-7.61,5.73-11.36q16.46-32.25,34-60.06,5.76-9.2,11.65-17.87c45.07-66.41,94.49-109.37,147-120.47q10.74-2.28,20.84-4.58c15.52-3.54,30-7.18,43.63-11,57.27-15.85,99.32-34.26,138-59.27q6-3.9,12-8c9.71-6.74,19.27-13.94,28.89-21.66h0c52.85-42.44,107.29-100.74,195.78-186,195.86-188.85,344.83,77.11,766.15,81.65,151.12,1.63,269.56,43.52,364.9,111.31,70.59,50.14,128.45,114.4,177.68,187l0,.08c69.64,102.83,121.71,222.34,167.27,341.93,121.26,318.24,568.7,598.21,899.05,856.79s-250.9,190.56-698.47,299.45S4293.34,3353.36,4139.54,3593.8Z"/><g class="cls-12"><rect class="cls-13" x="1373.01" y="2055.73" width="171.73" height="289.05" transform="translate(-68.47 46.97) rotate(-1.8)"/><rect class="cls-13" x="1221.13" y="2061.02" width="139.75" height="289.05" transform="translate(-68.72 41.69) rotate(-1.8)"/><rect class="cls-13" x="1230.12" y="2361.09" width="139.75" height="260.46" transform="translate(-77.7 42.12) rotate(-1.8)"/><rect class="cls-13" x="1382" y="2355.81" width="171.73" height="260.46" transform="translate(-77.46 47.39) rotate(-1.8)"/><path class="cls-13" d="M1530.4,1743.15l-171.65,5.39-2.4-76.42c45.07-66.41,94.49-109.37,147-120.47q10.74-2.28,20.84-4.58Z"/><path class="cls-13" d="M1346.55,1748.93l-35.82,1.13q16.45-32.25,34-60.07Z"/><path class="cls-13" d="M1355.1,2020.43l-139.7,4.39-.79-25.24c26.52-89.65,56.88-170.51,90.39-238.17l41.91-1.32Z"/><rect class="cls-13" x="1363.16" y="1756.95" width="171.73" height="260.46" transform="translate(-58.63 46.5) rotate(-1.8)"/><rect class="cls-13" x="1740.48" y="2044.17" width="171.73" height="289.05" transform="translate(-67.93 58.52) rotate(-1.8)"/><rect class="cls-13" x="1588.6" y="2049.45" width="139.75" height="289.05" transform="translate(-68.18 53.24) rotate(-1.8)"/><rect class="cls-13" x="1597.59" y="2349.53" width="139.75" height="260.46" transform="translate(-77.16 53.67) rotate(-1.8)"/><rect class="cls-13" x="1749.47" y="2344.25" width="171.73" height="260.46" transform="translate(-76.91 58.94) rotate(-1.8)"/><path class="cls-13" d="M1897.87,1731.58l-171.65,5.4-8.44-268.16c9.71-6.75,19.27-13.94,28.89-21.66l0,0,142.08-4.47Z"/><path class="cls-13" d="M1714,1737.36l-139.68,4.4-6.48-205.64c57.27-15.86,99.32-34.27,138-59.27Z"/><rect class="cls-13" x="1578.75" y="1750.67" width="139.75" height="260.46" transform="translate(-58.34 52.78) rotate(-1.8)"/><rect class="cls-13" x="1730.63" y="1745.38" width="171.73" height="260.46" transform="translate(-58.09 58.05) rotate(-1.8)"/></g><g class="cls-12"><rect class="cls-13" x="2729.21" y="2055.73" width="171.73" height="289.05" transform="translate(-67.8 89.62) rotate(-1.8)"/><rect class="cls-13" x="2577.33" y="2061.02" width="139.75" height="289.05" transform="matrix(1, -0.03, 0.03, 1, -68.05, 84.34)"/><rect class="cls-13" x="2586.32" y="2361.09" width="139.75" height="260.46" transform="translate(-77.03 84.77) rotate(-1.8)"/><rect class="cls-13" x="2738.2" y="2355.81" width="171.73" height="260.46" transform="translate(-76.78 90.04) rotate(-1.8)"/><rect class="cls-13" x="2710.37" y="1456.87" width="171.73" height="289.05" transform="translate(-48.98 88.73) rotate(-1.8)"/><rect class="cls-13" x="2558.49" y="1462.15" width="139.75" height="289.05" transform="translate(-49.23 83.45) rotate(-1.8)"/><rect class="cls-13" x="2567.48" y="1762.23" width="139.75" height="260.46" transform="translate(-58.21 83.88) rotate(-1.8)"/><rect class="cls-13" x="2719.36" y="1756.95" width="171.73" height="260.46" transform="translate(-57.96 89.15) rotate(-1.8)"/><rect class="cls-13" x="3096.68" y="2044.17" width="171.73" height="289.05" transform="translate(-67.26 101.17) rotate(-1.8)"/><rect class="cls-13" x="2944.8" y="2049.45" width="139.75" height="289.05" transform="translate(-67.51 95.89) rotate(-1.8)"/><rect class="cls-13" x="2953.79" y="2349.53" width="139.75" height="260.46" transform="translate(-76.49 96.32) rotate(-1.8)"/><rect class="cls-13" x="3105.67" y="2344.25" width="171.73" height="260.46" transform="translate(-76.24 101.59) rotate(-1.8)"/><path class="cls-13" d="M3254.06,1731.58l-171.64,5.4-8.9-282.92c70.59,50.14,128.45,114.4,177.69,187v.07Z"/><rect class="cls-13" x="2925.96" y="1450.59" width="139.75" height="289.05" transform="matrix(1, -0.03, 0.03, 1, -48.68, 95)"/><rect class="cls-13" x="2934.95" y="1750.67" width="139.75" height="260.46" transform="translate(-57.66 95.43) rotate(-1.8)"/><rect class="cls-13" x="3086.83" y="1745.38" width="171.73" height="260.46" transform="translate(-57.42 100.7) rotate(-1.8)"/></g><rect class="cls-13" x="3387.49" y="1349.66" width="920.85" height="829.87" rx="5.49"/><path class="cls-14" d="M4308.34,1442.32H3387.49v-86.25a6.41,6.41,0,0,1,6.41-6.41h908a6.41,6.41,0,0,1,6.41,6.41Z"/><circle class="cls-9" cx="3443.68" cy="1396.14" r="7.26"/><path class="cls-9" d="M3494.53,1396.14a7.27,7.27,0,1,1-7.27-7.26A7.28,7.28,0,0,1,3494.53,1396.14Z"/><circle class="cls-9" cx="3530.84" cy="1396.14" r="7.26"/><rect class="cls-9" x="3849.89" y="1517.02" width="347.72" height="12.59"/><rect class="cls-9" x="3849.89" y="1568.81" width="347.72" height="12.59"/><rect class="cls-9" x="3849.89" y="1620.6" width="347.72" height="12.59"/><rect class="cls-9" x="3849.89" y="1672.38" width="347.72" height="12.59"/><rect class="cls-9" x="3849.89" y="1724.17" width="173.86" height="12.59"/><rect class="cls-9" x="3480.57" y="1826.03" width="347.72" height="12.59" transform="translate(7308.86 3664.65) rotate(180)"/><rect class="cls-9" x="3480.57" y="1877.82" width="347.72" height="12.59" transform="translate(7308.86 3768.22) rotate(180)"/><rect class="cls-9" x="3480.57" y="1929.61" width="347.72" height="12.59" transform="translate(7308.86 3871.8) rotate(180)"/><rect class="cls-9" x="3480.57" y="1981.39" width="347.72" height="12.59" transform="translate(7308.86 3975.37) rotate(180)"/><rect class="cls-9" x="3654.43" y="2033.18" width="173.86" height="12.59" transform="translate(7482.72 4078.95) rotate(180)"/><rect class="cls-9" x="3888.36" y="1812.11" width="297.55" height="247.57"/><polygon class="cls-14" points="3887.85 1984.92 3975.78 1923.31 4037.14 1965.76 4133.63 1884.11 4185.91 1935.9 4185.91 2059.69 3888.36 2059.69 3887.85 1984.92"/><circle class="cls-13" cx="4042.28" cy="1884.11" r="24.92"/><rect class="cls-9" x="3480.57" y="1509.39" width="297.55" height="247.57"/><polygon class="cls-14" points="3480.07 1682.2 3567.99 1620.6 3629.35 1663.04 3725.84 1581.39 3778.12 1633.18 3778.12 1756.97 3480.57 1756.97 3480.07 1682.2"/><circle class="cls-13" cx="3634.49" cy="1581.39" r="24.92"/><rect class="cls-15" x="1722.52" y="3225.97" width="1425.85" height="35.01"/><path class="cls-13" d="M2434.54,2173.45c-1001.77,0-877.22,426-877.22,426l164.82,537.12h1424.8l164.81-537.12S3436.31,2173.45,2434.54,2173.45Z"/><polygon class="cls-15" points="1722.52 3260.98 1677.36 3438.49 1696.78 3438.49 1761.91 3260.98 1722.52 3260.98"/><polygon class="cls-15" points="3148.37 3260.98 3193.53 3438.49 3174.1 3438.49 3108.98 3260.98 3148.37 3260.98"/><polygon class="cls-14" points="3163.23 3176.14 1735.92 3176.14 1613.47 2960.7 3230.07 2960.7 3163.23 3176.14"/><path class="cls-16" d="M3181.82,3243.48l195.06-458.86a78.49,78.49,0,0,0-24.72-108.2h0a76.79,76.79,0,0,0-105.88,24.19L3096,3088.2H1776.34L1638,2707.84a76.79,76.79,0,0,0-105.87-24.19h0a78.48,78.48,0,0,0-24.73,108.2l183.09,451.61v0Z"/><path class="cls-1" d="M3316.93,2175.63s-54.35-2.72-65.22,62.5-46.21,209.26-46.21,209.26l-163.6,21.41,16.85,13.92s141.32,24.46,179.37,2.72,46.2-154.91,57.07-187.52S3316.93,2175.63,3316.93,2175.63Z"/><path class="cls-17" d="M3420,2137s43.83.76,43.83-28.12c0,0,48.14-16.05,32.1-48.14,0,0,38.51-35.31,12.83-64.19,0,0,28.89-44.94,0-64.19,0,0-12.83-64.19-48.14-51.35,0,0-6.42-41.73-57.77-19.26,0,0-51.35-38.51-67.4-9.63,0,0-64.19-3.21-64.19,28.89,0,0-51.35,19.25-32.09,61,0,0-25.68,44.93-3.21,67.39,0,0-22.47,41.73,9.63,61,0,0-6.42,44.94,25.67,48.15,0,0,38.52,41.72,67.4,19.25C3338.66,2137.74,3405.05,2161.9,3420,2137Z"/><path class="cls-1" d="M3433.16,3240.89s-29.62-9.08-43.15,23.67l66.87,74.68s36.72,55.19,31.51,66.34-24.26,40.29,1.63,19.78,34.51-27.35,28.57-43.72-15.31-37-15.31-37l38.51,39.72s-34-78.39-71.07-63.08"/><g class="cls-18"><path class="cls-6" d="M3476.39,3311.11l-5.24,9.52s61.32,80.25,13.81,82-14.28,54.17-14.28,54.17l68-27.74,44.65-53-62.39-83.94Z"/></g><path class="cls-1" d="M3431.07,3276.27s-19-24.46-48.92-5.44l11.8,99.55s-1.68,66.27-12.35,72.4-43,19-10,17.12,44-2.54,48.51-19.35,8.76-39.1,8.76-39.1l8.68,54.63s17.21-83.7-21.9-92.47"/><g class="cls-19"><path class="cls-6" d="M3426.08,3358.58l-9.76,4.78s4,100.91-35.85,75.07-42.83,36.11-42.83,36.11l71.58,16.38,67-17.69-2.81-104.55Z"/></g><path class="cls-1" d="M3488.84,2334s4.93,403.36,41.63,409.48c-9.46,15.79-13.61,27.68-8.16,40.8,1.22,2.93,6.19,1.63,6.19,1.63s28-26.15,19.32-61.56l-3.92-219.06s67.29-305.87-18.36-269.16C3525.54,2236.15,3464.37,2297.32,3488.84,2334Z"/><path class="cls-5" d="M3470.49,2498.64s67.29,55.6,61.17,220.77-67.29,526.08-97.87,599.49c0,0-55.06,6.12-61.18-6.12,0,0-6.11-593.37,6.12-630.07,0,0-116.23-79.53-110.11-152.93S3470.49,2498.64,3470.49,2498.64Z"/><g class="cls-20"><polyline class="cls-21" points="3363.99 3011.01 3466.4 3262.68 3409.33 3336.06 3357.69 3249.09 3363.99 3011.01"/><g class="cls-22"><path class="cls-23" d="M3361.77,2952.29a.78.78,0,0,0,0-1.56.78.78,0,0,0,0,1.56Z"/></g><g class="cls-22"><path class="cls-23" d="M3427.46,2520.89c5.34,35,21.69,67.24,42.47,95.59,16,21.82,39.52,45.19,69.12,39,12.82-2.67,24.4-10.72,28.47-23.55.07-.24-.3-.34-.38-.1-4,12.7-15.51,20.63-28.19,23.27-14,2.91-27.66-1-39.38-8.83-12.64-8.42-22.48-20.45-31.23-32.69a266.18,266.18,0,0,1-24-40.26,188.22,188.22,0,0,1-16.48-52.56c0-.25-.42-.14-.38.1Z"/></g><g class="cls-22"><path class="cls-23" d="M3427,2575.05c46.93,0,94.36-.11,140.13-11.75a.19.19,0,0,0-.1-.37c-45.74,11.63-93.14,11.76-140,11.73a.2.2,0,0,0,0,.39Z"/></g><g class="cls-22"><path class="cls-23" d="M3250,2539.73c95.69,17,194.54,34.36,291.14,13.87a339,339,0,0,0,73.11-24.19c.23-.1,0-.44-.19-.33-87.83,41-187.48,37.76-281.2,24.11-27.68-4-55.22-8.93-82.76-13.84-.24,0-.35.34-.1.38Z"/></g><g class="cls-22"><path class="cls-23" d="M3500.17,2635a1210.8,1210.8,0,0,1-14.08,322.84c-18.8,104.62-54.78,205.22-73.79,309.77-10.24,56.33-10.92,115.95-34.21,169.08-.1.23.24.43.34.2,20.42-46.6,22.84-98,30.6-147.6,8.28-53,21.68-105,35.53-156.76,13.81-51.61,28-103.16,38.34-155.62A1208.36,1208.36,0,0,0,3500.56,2635c0-.25-.41-.25-.39,0Z"/></g><g class="cls-22"><path class="cls-23" d="M3364.18,3298.87a176,176,0,0,0,70.56,8.81c10.8-.88,22.31-2.29,32.51-6.1,7.81-2.92,14.56-8.48,15.69-17.13,0-.25-.35-.25-.38,0-1.66,12.61-14.41,17.11-25.21,19.47a171.56,171.56,0,0,1-31.77,3.87,176.11,176.11,0,0,1-61.3-9.29c-.24-.08-.34.29-.1.37Z"/></g></g><path class="cls-24" d="M3384.85,2664.36c0,6.11-36.71,238.57-42.82,263s116.23,342.56,116.23,348.68c0,0-18.36,42.82-48.94,36.7s-195.75-360.91-195.75-409.85,38.51-341.46,55.95-378.72S3384.85,2664.36,3384.85,2664.36Z"/><path class="cls-1" d="M3433.79,2175s-35.33-48.27-16.31-94.47L3352.26,2105s10.87,59.79-34.7,70c-21.52,4.82,12.23,42.82,12.23,42.82h79.53Z"/><g class="cls-25"><path class="cls-26" d="M3343.09,2139.24s58.08,14.65,63.52-45.14-70.66,43.48-70.66,43.48"/></g><path class="cls-1" d="M3303.1,1947.35c0,7.07-28.31,162.76,35.38,184s92-70.76,92-70.76L3388,1961.5Z"/><path class="cls-6" d="M3433.79,2175s-61.18,42.82-116.23,0c0,0-16.94-2.07-36,11.52-22.64,16.17-24.46,76.63-24.46,122.29,0,85.64,11.48,221,11.48,221S3336,2618.6,3471.83,2499c0,0-31.93-61-25.81-79.36s42.82-85.65,42.82-85.65,18.35-97.87,61.17-97.87C3550,2236.15,3452.14,2193.33,3433.79,2175Z"/><g class="cls-27"><path class="cls-28" d="M3225.43,2560.5a.78.78,0,0,0,0-1.56.78.78,0,0,0,0,1.56Z"/><g class="cls-12"><path d="M3419.33,2411.9l17.19,3.72"/></g><g class="cls-12"><path d="M3419.29,2429.27l6.34-.9"/></g><g class="cls-12"><path d="M3301.47,2176.61c23.22,14,50.17,21.93,77.38,21.31,28-.64,53.15-11.32,75.47-27.74,12.83-9.44,24.61-20.21,36.32-31,.19-.17-.09-.44-.27-.27-25.69,23.59-52.88,48-87.94,55.78-34.4,7.6-70.88-.44-100.77-18.44a.19.19,0,0,0-.19.33Z"/></g><g class="cls-12"><path d="M3262.61,2524.34a140.47,140.47,0,0,0,49.82,21.67"/></g><g class="cls-12"><path d="M3272.54,2525.3l17.21,4.52"/></g><g class="cls-12"><path d="M3432,2489.93a219.81,219.81,0,0,0,25.35,5.53"/></g><g class="cls-12"><path d="M3444.62,2482.9l23.62,5.11"/></g><g class="cls-12"><path d="M3486.5,2339.42a72.62,72.62,0,0,1-14.82-22.41"/></g><g class="cls-12"><path d="M3474.55,2343.21l-5.43-3.62"/></g></g><path class="cls-17" d="M3284.32,1966.37s16.3,21.74,40.76,0c0,0,13.59,24.46,40.77,10.87,0,0,8.15,27.18,29.89,19,0,0,8.15,67.94,32.61,43.49s-32.61-116.86-32.61-116.86h-62.51l-48.91,5.43S3273.45,1952.78,3284.32,1966.37Z"/><path class="cls-1" d="M3448.05,2057.56c-4.12,9.83-13,15.45-19.92,12.57s-9.11-13.19-5-23,13-15.45,19.91-12.56S3452.17,2047.74,3448.05,2057.56Z"/><g class="cls-22"><path class="cls-23" d="M3345.12,2711.67a547,547,0,0,0,53.35,22.45c.23.08.33-.29.1-.38a542.49,542.49,0,0,1-53.25-22.41c-.23-.1-.43.23-.2.34Z"/></g><g class="cls-22"><path class="cls-23" d="M3348,2696.44q32,16.92,65.33,31c.23.1.43-.24.2-.34q-33.33-14.1-65.34-31c-.22-.11-.41.22-.19.34Z"/></g><g class="cls-22"><path class="cls-23" d="M3329,2565.52a266.93,266.93,0,0,0,14.53,74.09c5.71,16.25,16,38.22,37,34.95.24,0,.14-.42-.11-.38-24.33,3.8-33.9-25.71-39.49-43.66a266.86,266.86,0,0,1-11.55-65c0-.25-.4-.25-.38,0Z"/></g><g class="cls-22"><path class="cls-23" d="M3261.17,2558.89c51,27.86,116.1,25.4,164.87-6.24.2-.14,0-.47-.2-.34-48.65,31.57-113.57,34-164.48,6.25a.19.19,0,0,0-.19.33Z"/></g><g class="cls-22"><path class="cls-23" d="M3247.45,2649.91c15,3.81,30.64-2.22,41.21-13.1,12.11-12.46,17.07-30,19-46.77,0-.25-.36-.25-.39,0-1.89,16.24-6.57,33.06-17.87,45.39-10.5,11.45-26.48,18-41.88,14.11a.19.19,0,0,0-.1.37Z"/></g><g class="cls-22"><path class="cls-23" d="M3351.92,2719l-9.29,23.19c-.1.23.28.33.37.1l9.3-23.18c.09-.24-.28-.34-.38-.11Z"/></g><g class="cls-22"><path class="cls-23" d="M3332.78,2776.81l-24.48,105.82c-2.07,9-4.22,17.93-6.22,26.91-1.72,7.7-2.5,15-.36,22.71,4.58,16.45,11.54,32.57,17.6,48.52q36.46,96,81.81,188.32,26,52.83,54.75,104.22c.12.22.46,0,.34-.2q-49.68-88.77-91-181.87-21-47.32-39.74-95.62-9.21-23.72-17.85-47.63c-3-8.26-7-16.95-6.94-25.89.09-9.28,3.27-18.82,5.36-27.82l27.15-117.37a.2.2,0,0,0-.38-.1Z"/></g><g class="cls-22"><path class="cls-23" d="M3393.1,3303a57,57,0,0,0,62.57-56.59.2.2,0,0,0-.39,0,56.59,56.59,0,0,1-62.18,56.2c-.25,0-.25.36,0,.39Z"/></g><path class="cls-1" d="M2224.15,3441.76l-58.69,57.14s10.05,25.39-45.47,67.72c0,0-132.56-194.87-123.57-200.69s80.94,56,80.94,56l53.17,23,55.78-61.64Z"/><g class="cls-29"><path class="cls-30" d="M2172.31,3503.9c-1.61-7-2.54-9.84-33.79-4.91s2.52-55.21-11.6-65.19S1989,3350.88,1989,3350.88l-11.1,30.14,142.52,202.37S2180.73,3540.54,2172.31,3503.9Z"/></g><path class="cls-7" d="M2753.42,3033.55s-203.49,123.17-251.68,133.88c0,0-123.17,171.36-283.82,283.82L2159,3392.34s246.33-380.21,321.31-396.28S2742.71,3006.78,2753.42,3033.55Z"/><g class="cls-31"><path class="cls-32" d="M2718.46,3071.34s-189.51,0-205.57-6.43,54.61,61,57.82,118.85-160.61,131.69-160.61,131.69-83.51-260.17-64.24-273S2667.07,2994.25,2718.46,3071.34Z"/><path class="cls-33" d="M2276.8,3163.66a.78.78,0,0,0,0-1.56.78.78,0,0,0,0,1.56Z"/><path class="cls-33" d="M2147.1,3370.37q2.24-3.35,5.51-1.25c1.06.75,2.09,1.55,3.09,2.37,1.56,1.24,3.1,2.52,4.65,3.78l10.09,8.17,18.61,15.08,39.56,32.06,78.35,63.5c.19.15.47-.12.27-.28l-92.3-74.81-45.77-37.08-10.86-8.81c-2.23-1.81-4.5-4.41-7.45-5-1.93-.39-4.72-.16-4.12,2.37.06.25.43.14.37-.1Z"/><g class="cls-34"><path class="cls-33" d="M2165.57,3365.85c-1.93,3.64,0,6.87,2.69,9.58,4.25,4.25,10,7.26,14.84,10.77A455.47,455.47,0,0,1,2219,3415a460.7,460.7,0,0,1,60.71,65.62c.15.2.49,0,.33-.2a461.71,461.71,0,0,0-53-58.67q-14.64-13.62-30.45-25.93-7.22-5.62-14.66-11c-4.88-3.49-20.19-10.87-16-18.79.12-.22-.22-.42-.33-.2Z"/></g></g><path class="cls-1" d="M2582.06,3408.41l16.07,80.32s26.77,5.36,32.13,75c0,0-235.63,5.36-235.63-5.35s91-37.49,91-37.49l48.2-32.13-21.42-80.32Z"/><g class="cls-35"><path class="cls-30" d="M2606,3485.69c-6.75-2.45-9.63-3.21-22.48,25.7s-45-32.12-61-25.7S2378,3556.36,2378,3556.36l19.28,25.7,247.33-9.64S2641.37,3498.54,2606,3485.69Z"/></g><path class="cls-23" d="M2935.5,2449.85l16.06,10.71s58.91,0,107.1,21.42c0,0,0,433.76-42.84,487.31,0,0-241-10.71-337.37-101.75,0,0,53.55-385.56,80.33-401.63s123.17-5.35,123.17-5.35Z"/><path class="cls-6" d="M3021.65,2959.16s-.47,144-530.62,90.46c0,0,80.32,128.52,107.1,369.5l-96.39,21.42s-180.17-365.48-151.89-521.1a13.65,13.65,0,0,1,10.81-10.86c43.59-8.69,238.24-45.77,366-41C2871.24,2872.9,3021.65,2959.16,3021.65,2959.16Z"/><g class="cls-36"><path class="cls-37" d="M2609.46,3271.34l-6.42-1.61a.78.78,0,0,0-.42,1.51l6.43,1.6a.78.78,0,0,0,.41-1.5Z"/><path class="cls-37" d="M2487.36,3418.79q77-23.37,155.6-40.85c.24-.06.14-.43-.11-.38q-78.54,17.46-155.6,40.86a.19.19,0,0,0,.11.37Z"/><path class="cls-37" d="M2705.57,2869.15l62.69,15.82c.25.06.35-.32.11-.38l-62.7-15.81c-.24-.06-.35.31-.1.37Z"/><path class="cls-37" d="M2737.69,2896.47l22.48,6.42c.24.07.34-.31.1-.38l-22.48-6.42a.2.2,0,0,0-.1.38Z"/><path class="cls-37" d="M2753.68,2872.57c95.75,6.42,187.82,49.63,255.22,117.74a383.75,383.75,0,0,1,50.47,63.08c.14.21.48,0,.34-.2-51.79-80.9-134.08-140.85-226.34-167.14a385.36,385.36,0,0,0-79.69-13.87c-.25,0-.25.37,0,.39Z"/><path class="cls-37" d="M2973.79,2931.71c-33.13,9.9-66.23,21.59-95.83,39.78a192.89,192.89,0,0,0-38.85,30.9c-11.42,12-24.15,27.07-26.1,44.1-1.64,14.25,8.27,31.22,24.29,29.52.24,0,.25-.41,0-.39-8.84.94-16.56-4.43-20.75-12-4.47-8-4.07-17.47-1.07-26,5.5-15.58,17.52-29.16,29.3-40.42,22.58-21.61,50.61-36.63,79.42-48.19,16.26-6.52,32.92-12,49.7-17,.23-.08.13-.45-.11-.38Z"/><path class="cls-37" d="M2885,2950c30.47,22.51,63.1,47.29,75.87,84.51.08.24.46.14.38-.1-12.82-37.33-45.48-62.17-76.05-84.75-.2-.14-.39.19-.2.34Z"/><path class="cls-37" d="M2891.76,2935.1a249.33,249.33,0,0,1,56.49,36.69c15.7,13.73,30.64,32.42,28.28,54.53,0,.25.36.25.39,0,2.25-21.07-11.22-39.15-26-52.66-17.38-15.89-37.79-28.75-59-38.9-.23-.11-.43.23-.2.34Z"/><path class="cls-37" d="M2495,3036.18a119.92,119.92,0,0,1-13.91-29.17c-.07-.24-.45-.14-.37.1a120.12,120.12,0,0,0,13.94,29.27c.14.2.48,0,.34-.2Z"/><path class="cls-37" d="M2482.78,3042l-22.65-19.07c-.19-.16-.47.12-.28.28l22.66,19.07c.19.16.46-.12.27-.28Z"/></g><path class="cls-1" d="M2946.52,2380.74l5,79.82s-48.19,42.84-85.68,0l5.36-69.62Z"/><g class="cls-38"><path class="cls-39" d="M2844.17,2431.37s82.37,9.69,92.07-38.77S2844.17,2431.37,2844.17,2431.37Z"/></g><path class="cls-1" d="M3103.91,2727.64s-20.33-31.17-41.69-68.93c28-30.24,68.53-32.31,86.77-31.48,19.29,47,36.7,98.61,44.86,142.17,0,0-75.39,107.06-342,74.94l-19.27-41.76S3049.31,2756.55,3103.91,2727.64Z"/><path class="cls-23" d="M3059,2676.25c-25.15-44.44-48.45-115.54-45-138.12,6.42-41.76,19.27-48.18,19.27-48.18s19.27-22.49,45,3.21c14.81,14.81,60.49,87.06,86.72,151C3146.7,2643.3,3086.92,2646,3059,2676.25Z"/><path class="cls-40" d="M2851.86,2844.34l-86.25-213.1a18.93,18.93,0,0,0-17.54-11.82H2384.54a13.22,13.22,0,0,0-12.16,18.4l99.27,233.29h524.8l-5-18.81Z"/><path class="cls-1" d="M3080.64,2490.32a99,99,0,0,0-16-8.49c-7.49-2.85-16.41-20-26.4-11.77,0,0-18.91-8.92-21.41,2.14s-11.41,30-3.21,40S3061.66,2509.52,3080.64,2490.32Z"/><path class="cls-1" d="M2827.71,2216.61s-60.43,176.9,22.45,199.46,119.25-60.92,119.25-60.92l.69-118.27Z"/><path class="cls-41" d="M2940,2398.2s129-57.19,80-139.62c0,0,7-61.59-62.65-74.31,0,0-85.74-84.49-85.87-24.1,0,0-69.24-30.56-58.44,31.48,0,0-62-.18-11.06,47.76,0,0,60.69,53.67,147.89,24.28,0,0-29.66,33.58-15.56,73.73C2934.31,2337.42,2925.43,2375.88,2940,2398.2Z"/><path class="cls-1" d="M2932.26,2338.49c-7.1,13.76-3.72,29.62,7.53,35.42s26.14-.64,33.23-14.4,3.72-29.61-7.53-35.42S2939.36,2324.73,2932.26,2338.49Z"/><path class="cls-41" d="M2954,2257.81a4.53,4.53,0,0,1-.41,1.61,7.21,7.21,0,0,1-.74,1.37,7.8,7.8,0,0,1-.92,1.22,8.29,8.29,0,0,1-1,1.11,28.19,28.19,0,0,1-4.77,3.56l-2.61,1.42-.65.35-.68.29-1.35.58-2.72,1.16-2.78.95a140.37,140.37,0,0,1-22.84,5.39l-5.8.93-5.82.69-5.82.69-5.85.48c-7.78.75-15.59,1-23.39,1.43,7.79-.51,15.6-.86,23.37-1.69l5.83-.55,5.81-.75,5.81-.75,5.77-1a138.58,138.58,0,0,0,22.67-5.62l2.75-1,2.66-1.17,1.33-.59.67-.29.63-.35,2.53-1.41a27.34,27.34,0,0,0,4.56-3.48,7.84,7.84,0,0,0,.95-1,6.76,6.76,0,0,0,.83-1.12,7.12,7.12,0,0,0,.64-1.22,4.19,4.19,0,0,0,.33-1.2Z"/><path class="cls-41" d="M3013.43,2257.73a15.48,15.48,0,0,0,7.61-3.18,19.61,19.61,0,0,0,5.36-6.49,31.61,31.61,0,0,0,2.87-8.06c.22-1.42.48-2.83.67-4.26l.31-4.3-.18,4.32c-.14,1.43-.36,2.86-.54,4.29a32,32,0,0,1-2.67,8.24,20.18,20.18,0,0,1-5.34,6.87,16.28,16.28,0,0,1-8,3.61Z"/><path class="cls-41" d="M3007.88,2253.76a28.18,28.18,0,0,0,6.65,3.8,24.71,24.71,0,0,0,7.48,1.79,23.82,23.82,0,0,0,3.87,0,22.44,22.44,0,0,0,3.79-.81,24.44,24.44,0,0,0,6.95-3.46,24.83,24.83,0,0,1-6.87,3.71,23.56,23.56,0,0,1-3.83.95,24.69,24.69,0,0,1-3.94.15,25.71,25.71,0,0,1-7.74-1.58,29.4,29.4,0,0,1-7-3.72Z"/><path class="cls-42" d="M3038.08,2646.72a.2.2,0,0,0,0-.39.2.2,0,0,0,0,.39Z"/><path class="cls-42" d="M3039,2678.39c-5.94-4.27-9.1-12.64-12.37-18.92-2.95-5.68-5.87-12.23-10.88-16.42-.19-.16-.47.11-.28.27,5.93,5,9.15,13.16,12.65,19.86,2.79,5.34,5.63,11.91,10.68,15.55.21.14.4-.19.2-.34Z"/><path class="cls-42" d="M2823,2871.77a498,498,0,0,1,197.39,63.07c.22.12.42-.22.2-.34A498.7,498.7,0,0,0,2823,2871.38c-.25,0-.25.37,0,.39Z"/><path class="cls-42" d="M2855.08,2465.41c11.4,14.13,28.19,27.49,47,28.54,20.49,1.13,38.56-10.47,55-21.21.21-.14,0-.48-.2-.34-15.94,10.43-33.22,21.59-53,21.22-19.47-.36-36.78-14-48.5-28.48-.16-.2-.43.08-.28.27Z"/><path class="cls-42" d="M3063.87,2659.45c8.71-12.2,23.35-17.51,37.45-20.66,16.13-3.6,32.7-4.34,49.17-4.91.25,0,.25-.4,0-.39-17.75.62-35.68,1.42-53,5.81-13,3.29-26,8.72-34,19.95-.15.2.19.4.33.2Z"/><polygon class="cls-15" points="824.89 3117.32 834.42 3529.47 852.61 3529.47 851.45 3118.36 824.89 3117.32"/><polygon class="cls-15" points="759.24 3112.75 670.85 3529.47 650.6 3529.47 724.17 3112.75 759.24 3112.75"/><polygon class="cls-15" points="924.91 3117.32 1022.72 3529.47 1042.97 3529.47 954.22 3115.64 924.91 3117.32"/><path class="cls-43" d="M644.47,2664.24s-112.05-6.4-100.85,123.26,17.61,260.92,59.23,305.74,461,46.42,496.23,9.6-67.23-35.21-86.44-35.21S875,3078.83,836.56,2978,807.74,2657.84,644.47,2664.24Z"/><path class="cls-44" d="M637.28,2664.31s-85.66,17.54-77.65,107.18,30.42,246.52,72,286.53,204.71,48.74,292.94,43.22c102.45-6.4,167.12-25.9,167.12-25.9s18.69,12,13,19.76S1049.14,3134,807,3128.8s-225.31-40.91-235.36-79.94S540.49,2801.77,543.41,2756,569.38,2672.33,637.28,2664.31Z"/><path class="cls-2" d="M868.79,2527.13c18.86-53.05,52.24-42,52.24-42,50.13,21.75,102.18,231.92,102.18,231.92,36.13,24.55,206.74,71.89,206.74,71.89s35.11-23.15,43-13.41,19.6,40.69,9.25,54.5-70.74-7.54-70.74-7.54C1120,2810.24,988,2769.92,988,2769.92S849.93,2580.18,868.79,2527.13Z"/><path class="cls-2" d="M1166.55,2993.24s-25.51-60.71,48-55.87l189,534.85s36.68,70.3,51.38,71.27,56.22-2.19,19.79,13.11-48.57,20.41-62.29,4.74-30-37.39-30-37.39l19.44,63.26s-62.54-80.86-25.15-110.86c0,0-207.43-255.69-197.13-367.15a49.37,49.37,0,0,0,2.91-44.08c-10.2-24.29-15.91-71.88-15.91-71.88"/><g class="cls-45"><path class="cls-40" d="M1362.78,3476.45h13s48.76,110.53,78,61.77,65,16.26,65,16.26l-68.27,55.26L1369.28,3626l-52-113.79Z"/></g><path class="cls-1" d="M1056.89,2937.07s98.77-32.93,164.62,0l-32.92,566.3s6.58,79,19.75,85.61,52.68,19.75,13.17,19.75-52.68,0-59.26-19.75-13.17-46.1-13.17-46.1l-6.59,65.85s-26.34-98.77,19.76-111.94c0,0-92.19-316.08-39.51-414.85,0,0-171.21,6.58-171.21-19.76s98.77-125.11,98.77-125.11"/><g class="cls-46"><path class="cls-40" d="M1151.47,3489.46l9.75,6.5s3.26,94.28,45.52,91,55.26,26,55.26,26l-68.27,16.26-78-3.25-16.25-45.52,22.75-84.52Z"/></g><path class="cls-3" d="M734.23,2884.39s-65.85,85.6-26.34,151.45,329.24,46.1,329.24,46.1,32.93-138.29,138.29-158c0,0-223.89-39.51-302.91-19.76S734.23,2884.39,734.23,2884.39Z"/><g class="cls-47"><path class="cls-3" d="M1008.26,2955.1l3.12-1c1-.31.54-1.81-.42-1.5l-3.11,1c-1,.31-.55,1.82.41,1.51Z"/><path class="cls-48" d="M1052.79,3109.53v1a.78.78,0,0,0,1.56,0v-1a.78.78,0,0,0-1.56,0Z"/><path class="cls-48" d="M1167.47,2920.26A698.26,698.26,0,0,0,1035,2935.69c-.24,0-.14.43.1.38a697.21,697.21,0,0,1,132.42-15.42.2.2,0,0,0,0-.39Z"/><path class="cls-48" d="M1170.58,2926.7a261.24,261.24,0,0,0-79.69,16.16c-.23.09-.13.46.11.37a261.06,261.06,0,0,1,79.58-16.14c.25,0,.25-.4,0-.39Z"/><path class="cls-49" d="M1024,3093.22a86.82,86.82,0,0,1,3.08-76.65s-34.07,52.63-20.85,66.91c10.55,0,13.91-.6,13.91-.6"/><path class="cls-48" d="M935.47,2911.56l-74.58,26.87c-.24.09-.13.46.1.38l74.58-26.87c.24-.09.14-.46-.1-.38Z"/><path class="cls-49" d="M1005.91,2923c-61,25.83-129.78,26.86-195.69,33.33C810.22,2956.36,940.09,2945.32,1005.91,2923Z"/></g><path class="cls-1" d="M1021.91,2221.59c0,7.73,30.92,177.74-38.63,200.92s-100.46-77.27-100.46-77.27l46.36-108.19Z"/><polygon class="cls-1" points="936.91 2383.88 936.91 2499.79 867.36 2461.15 888.21 2332.65 936.91 2383.88"/><path class="cls-4" d="M882.82,2445.7s-61.82,15.45-77.28,123.64,7.73,208.65-85,332.29c0,0-18.71,115.32,213.12-.59,0,0,126.89-266,3.25-430.23C936.91,2470.81,906,2476.61,882.82,2445.7Z"/><g class="cls-50"><path class="cls-51" d="M978,2834.85a.78.78,0,0,0,0-1.56.78.78,0,0,0,0,1.56Z"/><path class="cls-51" d="M939.88,2895.77a482.21,482.21,0,0,1-75.9,19.76c-.24,0-.14.42.11.38a482.81,482.81,0,0,0,75.9-19.77c.23-.08.13-.46-.11-.37Z"/><path class="cls-51" d="M934.47,2892.1a214.53,214.53,0,0,1-47.47-6.83.19.19,0,0,0-.1.37,214.18,214.18,0,0,0,47.57,6.85.2.2,0,1,0,0-.39Z"/><path class="cls-51" d="M727.31,2873.38c-6,12.4,1.15,26.7,8.86,36.66a67.49,67.49,0,0,0,34.44,23.34c.24.07.34-.31.1-.38a67.25,67.25,0,0,1-31.38-19.76c-9-10.1-18.2-26.14-11.69-39.66.11-.23-.22-.42-.33-.2Z"/><path class="cls-51" d="M950,2482.54c-28.9,4.4-65.8,5.79-83.33-22.7-.13-.21-.47,0-.34.2,17.62,28.62,54.71,27.3,83.78,22.88.24,0,.14-.41-.11-.38Z"/><path class="cls-52" d="M968.65,2825.79c-6.21-6.22-165.51-208-146.44-250s168.19,219,168.19,219Z"/></g><path class="cls-6" d="M1021.43,2221.59s-41.77,93.41-126.54,95.47c0,0,9.51,151.6-16.5,171.11s-73.84,52.41-75.93,107.48c0,0-109.37-94.48-28.1-169.25s26-175.55,78-204.81c0,0,104-78,159.29-55.26s48,96.21,15.86,108.25C1027.54,2274.58,1024.69,2237.85,1021.43,2221.59Z"/><path class="cls-1" d="M821.5,2554.85c14.63-60.11,52.36-51.81,52.36-51.81C931.1,2521.16,1011.68,2745,1011.68,2745c42.26,22.76,234.07,55.27,234.07,55.27s35.76-29.26,45.51-19.51,26,42.27,16.26,58.52-78.17-.26-78.17-.26c-101.35-3.07-250.18-32.25-250.18-32.25S806.87,2615,821.5,2554.85Z"/><path class="cls-1" d="M874.34,2340.44c4.93,11.75,15.59,18.48,23.82,15s10.9-15.77,6-27.53-15.6-18.48-23.83-15S869.4,2328.68,874.34,2340.44Z"/><path class="cls-53" d="M1025.19,2215.29c-3,7.31-6.24,14.46-9.69,21.53s-7.11,14-11,20.88c-7.79,13.66-16.46,26.89-26.7,38.85a125.18,125.18,0,0,1-16.85,16.51,66,66,0,0,1-20.48,11.54,43.08,43.08,0,0,1-11.58,2.16,39.47,39.47,0,0,1-11.7-1.26A45.65,45.65,0,0,1,906.3,2321a68.09,68.09,0,0,1-9.62-6.79,66.94,66.94,0,0,0,9.65,6.73,45.27,45.27,0,0,0,10.89,4.39,39.45,39.45,0,0,0,11.65,1.19,43,43,0,0,0,11.51-2.21,66.21,66.21,0,0,0,20.31-11.6,126,126,0,0,0,16.68-16.55c10.15-12,18.72-25.23,26.41-38.9q5.78-10.26,10.87-20.89c3.4-7.07,6.63-14.24,9.53-21.51Z"/><path class="cls-1" d="M1027.88,2329.41s10.45,30.46,6,35.42c-2.66,3-11,3.09-19.51-.21s-9.11-7.9-9.11-7.9Z"/><path class="cls-2" d="M909,2394.49c10.77,13.64,16,18.6,27.95,25.06v12.14S913.11,2418.67,909,2394.49Z"/><polygon class="cls-54" points="933.05 2907.11 1237.31 2860.78 1094.1 2960.06 933.05 2907.11"/><polygon class="cls-55" points="1094.1 2960.06 935.13 2922.31 933.05 2907.11 1103.99 2943.51 1094.1 2960.06"/><polygon class="cls-56" points="1094.1 2960.06 1150.81 2700.02 1443.81 2664.67 1388.7 2904.7 1094.1 2960.06"/><polygon class="cls-57" points="1443.81 2664.67 1094.1 2960.06 1150.81 2700.02 1443.81 2664.67"/><path class="cls-9" d="M1259.38,2796.72c-6.47,19.05-1.11,38.1,12,42.55s28.94-7.4,35.42-26.46,1.11-38.11-12-42.55S1265.85,2777.65,1259.38,2796.72Z"/><path class="cls-58" d="M3720.49,2838.63c-4.37-21.4-8.77-43.24-6.2-64.94,3.32-28,17.94-53.3,34.26-76.27,9.9-13.92,26.28-28.9,41.73-21.62,6.06,2.86,10.17,8.64,13.45,14.48,23.37,41.54,17.13,92.53,14.23,140.1-2,32.69-2.18,66.14-13.12,97-3.66,10.33-8.67,20.49-16.7,27.94s-19.55,11.82-30.18,9.14c-24-6-29.9-38.77-30.42-59.54C3727,2881.74,3725.23,2861.81,3720.49,2838.63Z"/><path class="cls-43" d="M3726.64,3119.77c-20.54-25.68-125.87-65.63-149.41-88.58-40.93-39.92-64.84-96.74-64.76-153.9.09-68.86,33.09-134.37,34-203.22.44-31.64-6-63.16-4.39-94.77s13.11-65.34,40-82c38.8-24,93.1-.06,116.39,39.13s23.18,87.71,19,133.11-9,91.23-.68,136.06c16.46,88.94,96.07,122.84,99.9,196.59,4.14,79.91-63.92,84.71-64.7,113-.89,32.17-2.34,74.43-16.48,103.34-19.83,40.57,31.47,57.3-7.48,12C3701.83,3200,3756.14,3156.65,3726.64,3119.77Z"/><path class="cls-14" d="M3843.45,3173.84,3792,3331.55a16.93,16.93,0,0,1-16.1,11.68H3693a16.94,16.94,0,0,1-16.1-11.68l-51.47-157.71a16.94,16.94,0,0,1,16.11-22.19h185.77A16.93,16.93,0,0,1,3843.45,3173.84Z"/><g class="cls-12"><path class="cls-59" d="M3624.62,2552.07c11.76,57.09,25,78.09,19.31,127s-14.18,104-9,141.61,61.35,196.14,78.58,224.45c0,0,28.21,53,28.21,106.47"/><path class="cls-59" d="M3682.82,2578.55c2,14.38-2.61,37.91-14.38,49.67a209.07,209.07,0,0,1-23.39,20.08"/><path class="cls-59" d="M3581.51,2624.3c12.42,17.65,28.1,49.5,62.42,54.82"/><path class="cls-59" d="M3637.17,2736.08s37.81-3.28,55.46-47.73"/><path class="cls-59" d="M3632.49,2778.55c-24.56-7.12-51.63-27.45-55.56-50.32"/><path class="cls-59" d="M3689.36,2783.07c3.27,36.51-43.77,47.94-51.22,53.06"/><path class="cls-59" d="M3652,2883.62s-58.7.82-67.85-35.13"/><path class="cls-59" d="M3707.66,2867.45s5,37.41-38,68.7"/><path class="cls-59" d="M3683.26,2973.75s-65.8-9.57-85.41-43.56"/><path class="cls-59" d="M3741.65,2936.15s3.87,71-38.59,87.44"/></g><g class="cls-12"><path class="cls-59" d="M3779.2,2679.11c-11.76,23.53-20.72,37.91-15.59,85s9.2,111.2-2.64,123.25"/><path class="cls-59" d="M3738.12,2710.49c1.21,21.57,2.72,49.67,25.49,53.59"/><path class="cls-59" d="M3800.77,2743.17c-3.92,15.69-2.4,54.11-33.88,56.47"/><path class="cls-59" d="M3733.45,2809.18c3.92,7.85,8.06,37.52,33.44,40"/></g><g class="cls-12"><polygon class="cls-13" points="2106.68 1688.56 2394.35 1693.46 2386.76 1946.13 2099.2 1937.49 2106.68 1688.56"/></g><polygon class="cls-60" points="2343.15 1712.73 2258.43 1647.33 2152.1 1711.1 2149.61 1706.95 2258.77 1641.47 2346.11 1708.9 2343.15 1712.73"/><path class="cls-60" d="M2244.83,1640.76c-.09.85-.17,1.7-.26,2.55,0,.29-.05.57-.08.85-.12,1.33-.12,1.13,0-.59-2.22,7.39,3.88,15,11.39,15,7.81,0,13.15-7.51,11.4-15,.67,2.87.16.62.13-.26s-.07-1.7-.1-2.55c-.23-5.87-5-11.52-11.25-11.24-6.58.29-10.63,5-11.24,11.24Z"/><g class="cls-61"><polygon class="cls-13" points="2129.97 1720.88 2358.57 1712.12 2363.65 1913.04 2134.98 1918.83 2129.97 1720.88"/></g><polygon class="cls-62" points="2133.3 1852.5 2188.03 1784.96 2247.86 1852.5 2304.33 1802.63 2373.57 1852.5 2373.57 1927.8 2123.24 1927.8 2117.27 1865.17 2133.3 1852.5"/><path class="cls-9" d="M2151.09,1830.55,2188,1785l37.89,42.77s-16.41,21.4-28.8,0c0,0-7.75,27-18.89,0C2178.23,1827.73,2169.81,1845.45,2151.09,1830.55Z"/><path class="cls-9" d="M2272.41,1830.82l31.92-28.19,34.85,25.1s-17.21,17.57-33.39-5.16c0,0-.39,9.48-9.67,11.47S2272.41,1830.82,2272.41,1830.82Z"/><path class="cls-49" d="M1001.52,3025.66c-5.49,15.55-12.8,26.31-10.49,48.42C983.26,3067.06,997,3029.94,1001.52,3025.66Z"/></g></g></g></g></svg>